Hack-BoldItalic.ufo
<glyph name="exclam" format="1">
  <advance width="1233"/>
  <unicode hex="0021"/>
  <outline>
    <contour>
      <point x="637" y="1054" type="line" name="hr00"/>
      <point x="708" y="1508" type="line" name="at01"/>
      <point x="994" y="1508" type="line"/>
      <point x="922" y="1051" type="line"/>
      <point x="763" y="476" type="line"/>
      <point x="624" y="476" type="line"/>
    </contour>
    <contour>
      <point x="612" y="-65" type="curve" smooth="yes" name="dv01"/>
      <point x="561" y="-65"/>
      <point x="526" y="-46" name="dh01"/>
      <point x="503" y="-22" type="curve"/>
      <point x="474" y="11" name="dv02"/>
      <point x="465" y="55"/>
      <point x="465" y="90" type="curve" smooth="yes" name="dh02"/>
      <point x="465" y="174"/>
      <point x="519" y="251"/>
      <point x="597" y="281" type="curve" smooth="yes"/>
      <point x="619" y="289"/>
      <point x="643" y="293"/>
      <point x="670" y="293" type="curve" smooth="yes"/>
      <point x="727" y="293"/>
      <point x="759" y="270"/>
      <point x="780" y="247" type="curve" smooth="yes"/>
      <point x="807" y="216"/>
      <point x="817" y="180"/>
      <point x="817" y="140" type="curve" smooth="yes"/>
      <point x="817" y="112"/>
      <point x="811" y="85"/>
      <point x="803" y="66" type="curve" smooth="yes"/>
      <point x="782" y="14"/>
      <point x="742" y="-29"/>
      <point x="686" y="-52" type="curve" smooth="yes"/>
      <point x="664" y="-61"/>
      <point x="639" y="-65"/>
    </contour>
  </outline>
</glyph>
<glyph name="quotedbl" format="1">
  <advance width="1233"/>
  <unicode hex="0022"/>
  <outline>
    <contour>
      <point x="285" y="1493" type="line" name="sh01"/>
      <point x="541" y="1493" type="line" name="sh02"/>
      <point x="433" y="938" type="line" name="av01"/>
      <point x="177" y="938" type="line"/>
    </contour>
    <contour>
      <point x="797" y="1493" type="line" name="ah01"/>
      <point x="1053" y="1493" type="line" name="sh03"/>
      <point x="945" y="938" type="line" name="av02"/>
      <point x="689" y="938" type="line"/>
    </contour>
  </outline>
</glyph>
<glyph name="percent" format="1">
  <advance width="1233"/>
  <unicode hex="0025"/>
  <outline>
    <contour>
      <point x="353" y="778" type="curve" smooth="yes" name="dv05"/>
      <point x="264" y="778"/>
      <point x="176" y="807" name="dh01"/>
      <point x="109" y="871" type="curve" smooth="yes"/>
      <point x="52" y="927" name="dv02"/>
      <point x="13" y="1009"/>
      <point x="13" y="1105" type="curve" smooth="yes"/>
      <point x="13" y="1198"/>
      <point x="49" y="1280"/>
      <point x="109" y="1339" type="curve" smooth="yes"/>
      <point x="172" y="1400"/>
      <point x="257" y="1432"/>
      <point x="360" y="1432" type="curve" smooth="yes" name="dh04"/>
      <point x="363" y="1432"/>
      <point x="374" y="1432"/>
      <point x="385" y="1431" type="curve" smooth="yes"/>
      <point x="394" y="1430"/>
      <point x="408" y="1429" name="dv06"/>
      <point x="419" y="1426" type="curve" smooth="yes"/>
      <point x="430" y="1423"/>
      <point x="435" y="1423"/>
      <point x="452" y="1418" type="curve" smooth="yes" name="dh03"/>
      <point x="476" y="1411"/>
      <point x="481" y="1408" name="dv01"/>
      <point x="484" y="1407" type="curve" smooth="yes"/>
      <point x="518" y="1394" name="dh02"/>
      <point x="524" y="1390"/>
      <point x="545" y="1377" type="curve" smooth="yes"/>
      <point x="564" y="1365" name="sh01"/>
      <point x="582" y="1352" name="sh02"/>
      <point x="597" y="1337" type="curve" smooth="yes"/>
      <point x="628" y="1308" name="ih01"/>
      <point x="654" y="1274" name="ab01"/>
      <point x="673" y="1231" type="curve" smooth="yes"/>
      <point x="691" y="1191"/>
      <point x="700" y="1148"/>
      <point x="700" y="1103" type="curve" smooth="yes"/>
      <point x="700" y="1058" name="ih02"/>
      <point x="692" y="1016"/>
      <point x="675" y="978" type="curve" smooth="yes" name="dv04"/>
      <point x="658" y="940"/>
      <point x="633" y="905"/>
      <point x="599" y="873" type="curve" smooth="yes"/>
      <point x="570" y="846"/>
      <point x="533" y="821"/>
      <point x="486" y="802" type="curve" smooth="yes"/>
      <point x="444" y="786"/>
      <point x="400" y="778"/>
    </contour>
    <contour>
      <point x="351" y="943" type="curve" smooth="yes" name="dh06"/>
      <point x="375" y="943"/>
      <point x="398" y="947"/>
      <point x="419" y="955" type="curve" smooth="yes" name="sv01"/>
      <point x="434" y="960"/>
      <point x="453" y="969" name="dh05"/>
      <point x="476" y="990" type="curve" smooth="yes"/>
      <point x="493" y="1006" name="dv03"/>
      <point x="506" y="1023"/>
      <point x="515" y="1042" type="curve" smooth="yes" name="sh03"/>
      <point x="524" y="1060"/>
      <point x="528" y="1080"/>
      <point x="528" y="1103" type="curve" smooth="yes"/>
      <point x="528" y="1149"/>
      <point x="511" y="1188"/>
      <point x="477" y="1219" type="curve" smooth="yes"/>
      <point x="442" y="1250" name="sh04"/>
      <point x="398" y="1266"/>
      <point x="351" y="1266" type="curve" smooth="yes"/>
      <point x="304" y="1266"/>
      <point x="258" y="1251"/>
      <point x="226" y="1220" type="curve" smooth="yes"/>
      <point x="194" y="1189"/>
      <point x="178" y="1147"/>
      <point x="178" y="1104" type="curve" smooth="yes"/>
      <point x="178" y="1060"/>
      <point x="194" y="1020"/>
      <point x="225" y="989" type="curve" smooth="yes"/>
      <point x="254" y="961"/>
      <point x="299" y="943"/>
    </contour>
    <contour>
      <point x="22" y="570" type="line"/>
      <point x="1232" y="1018" type="line"/>
      <point x="1232" y="873" type="line"/>
      <point x="22" y="431" type="line"/>
    </contour>
    <contour>
      <point x="898" y="0" type="curve" smooth="yes"/>
      <point x="851" y="0"/>
      <point x="806" y="8"/>
      <point x="764" y="24" type="curve" smooth="yes"/>
      <point x="727" y="39"/>
      <point x="689" y="59"/>
      <point x="652" y="94" type="curve" smooth="yes"/>
      <point x="632" y="113"/>
      <point x="612" y="137"/>
      <point x="597" y="162" type="curve" smooth="yes"/>
      <point x="582" y="187"/>
      <point x="571" y="212"/>
      <point x="564" y="239" type="curve" smooth="yes"/>
      <point x="557" y="267"/>
      <point x="553" y="296"/>
      <point x="553" y="327" type="curve" smooth="yes"/>
      <point x="553" y="423"/>
      <point x="591" y="502"/>
      <point x="654" y="561" type="curve" smooth="yes"/>
      <point x="718" y="621"/>
      <point x="803" y="654"/>
      <point x="900" y="654" type="curve" smooth="yes"/>
      <point x="948" y="654"/>
      <point x="992" y="646"/>
      <point x="1031" y="629" type="curve" smooth="yes"/>
      <point x="1071" y="612"/>
      <point x="1115" y="583"/>
      <point x="1140" y="558" type="curve" smooth="yes"/>
      <point x="1159" y="538" type="line"/>
      <point x="1160" y="535"/>
      <point x="1172" y="521"/>
      <point x="1175" y="518" type="curve"/>
      <point x="1189" y="496" type="line"/>
      <point x="1203" y="474" type="line" smooth="yes"/>
      <point x="1206" y="469"/>
      <point x="1211" y="455"/>
      <point x="1214" y="451" type="curve"/>
      <point x="1225" y="428"/>
      <point x="1230" y="407"/>
      <point x="1234" y="390" type="curve" smooth="yes"/>
      <point x="1238" y="371"/>
      <point x="1240" y="346"/>
      <point x="1240" y="325" type="curve" smooth="yes"/>
      <point x="1240" y="240"/>
      <point x="1207" y="156"/>
      <point x="1144" y="95" type="curve" smooth="yes"/>
      <point x="1087" y="39"/>
      <point x="1002" y="0"/>
    </contour>
    <contour>
      <point x="900" y="165" type="curve" smooth="yes"/>
      <point x="949" y="165"/>
      <point x="991" y="181"/>
      <point x="1024" y="212" type="curve" smooth="yes"/>
      <point x="1057" y="243"/>
      <point x="1073" y="282"/>
      <point x="1073" y="325" type="curve" smooth="yes"/>
      <point x="1073" y="369"/>
      <point x="1056" y="411"/>
      <point x="1024" y="442" type="curve" smooth="yes"/>
      <point x="997" y="469"/>
      <point x="955" y="489"/>
      <point x="899" y="489" type="curve" smooth="yes"/>
      <point x="852" y="489"/>
      <point x="808" y="474"/>
      <point x="775" y="443" type="curve" smooth="yes"/>
      <point x="742" y="412"/>
      <point x="725" y="373"/>
      <point x="725" y="326" type="curve" smooth="yes"/>
      <point x="725" y="310"/>
      <point x="727" y="299"/>
      <point x="731" y="284" type="curve" smooth="yes"/>
      <point x="735" y="269"/>
      <point x="739" y="258"/>
      <point x="747" y="245" type="curve" smooth="yes"/>
      <point x="752" y="237"/>
      <point x="763" y="222"/>
      <point x="775" y="211" type="curve" smooth="yes"/>
      <point x="792" y="195"/>
      <point x="810" y="185"/>
      <point x="831" y="177" type="curve" smooth="yes"/>
      <point x="852" y="169"/>
      <point x="875" y="165"/>
    </contour>
  </outline>
</glyph>
<glyph name="quotesingle" format="1">
  <advance width="1233"/>
  <unicode hex="0027"/>
  <outline>
    <contour>
      <point x="541" y="1493" type="line" name="dh01"/>
      <point x="797" y="1493" type="line" name="dh02"/>
      <point x="689" y="938" type="line" name="av01"/>
      <point x="433" y="938" type="line"/>
    </contour>
  </outline>
</glyph>
<glyph name="parenright" format="1">
  <advance width="1233"/>
  <unicode hex="0029"/>
  <outline>
    <contour>
      <point x="243" y="-270" type="line" name="av01"/>
      <point x="398" y="-61"/>
      <point x="515" y="143" name="dh01"/>
      <point x="593" y="344" type="curve" smooth="yes"/>
      <point x="671" y="545" name="at01"/>
      <point x="710" y="743"/>
      <point x="710" y="939" type="curve" smooth="yes"/>
      <point x="710" y="1034" name="dh02"/>
      <point x="701" y="1131"/>
      <point x="682" y="1235" type="curve" smooth="yes" name="av02"/>
      <point x="663" y="1338"/>
      <point x="634" y="1445"/>
      <point x="597" y="1554" type="curve" name="sh01"/>
      <point x="822" y="1554" type="line"/>
      <point x="877" y="1439"/>
      <point x="917" y="1327"/>
      <point x="944" y="1218" type="curve" smooth="yes"/>
      <point x="971" y="1107"/>
      <point x="984" y="999"/>
      <point x="984" y="892" type="curve" smooth="yes"/>
      <point x="984" y="697"/>
      <point x="942" y="505"/>
      <point x="855" y="310" type="curve" smooth="yes"/>
      <point x="770" y="118"/>
      <point x="640" y="-75"/>
      <point x="468" y="-270" type="curve"/>
    </contour>
  </outline>
</glyph>
<glyph name="asterisk" format="1">
  <advance width="1233"/>
  <unicode hex="002A"/>
  <outline>
    <contour>
      <point x="154" y="548" type="line" name="hr00"/>
      <point x="460" y="864" type="line"/>
      <point x="136" y="1087" type="line"/>
      <point x="206" y="1206" type="line"/>
      <point x="546" y="1015" type="line" name="iv01"/>
      <point x="646" y="1423" type="line" name="at01"/>
      <point x="780" y="1397" type="line"/>
      <point x="719" y="981" type="line" name="iv02"/>
      <point x="1107" y="1030" type="line"/>
      <point x="1127" y="894" type="line"/>
      <point x="743" y="809" type="line"/>
      <point x="908" y="402" type="line"/>
      <point x="777" y="342" type="line" name="av01"/>
      <point x="582" y="739" type="line" name="iv03"/>
      <point x="253" y="443" type="line" name="av02"/>
    </contour>
  </outline>
</glyph>
<glyph name="plus" format="1">
  <advance width="1233"/>
  <unicode hex="002B"/>
  <outline>
    <contour>
      <point x="475" y="524" type="line" name="dh01"/>
      <point x="43" y="524" type="line"/>
      <point x="89" y="762" type="line"/>
      <point x="521" y="762" type="line" name="sh01"/>
      <point x="605" y="1192" type="line" name="av02"/>
      <point x="842" y="1192" type="line" name="sh02"/>
      <point x="758" y="762" type="line" name="sv01"/>
      <point x="1188" y="762" type="line"/>
      <point x="1142" y="524" type="line" name="sv02"/>
      <point x="712" y="524" type="line" name="dh02"/>
      <point x="628" y="92" type="line" name="av01"/>
      <point x="391" y="92" type="line"/>
    </contour>
  </outline>
</glyph>
<glyph name="comma" format="1">
  <advance width="1233"/>
  <unicode hex="002C"/>
  <outline>
    <contour>
      <point x="331" y="-275" type="line" name="hr00"/>
      <point x="346" y="-269" type="line" smooth="yes"/>
      <point x="493" y="-210" name="sh01"/>
      <point x="608" y="-106"/>
      <point x="647" y="34" type="curve"/>
      <point x="637" y="33" name="dh01"/>
      <point x="631" y="32"/>
      <point x="619" y="32" type="curve" smooth="yes"/>
      <point x="576" y="32"/>
      <point x="537" y="46" name="av02"/>
      <point x="511" y="75" type="curve" name="av03" smooth="yes"/>
      <point x="485" y="102" name="av04"/>
      <point x="474" y="139"/>
      <point x="485" y="196" type="curve" smooth="yes"/>
      <point x="489" y="215"/>
      <point x="494" y="229" name="dh02"/>
      <point x="501" y="244" type="curve" smooth="yes"/>
      <point x="509" y="263"/>
      <point x="519" y="276"/>
      <point x="525" y="285" type="curve" name="av01" smooth="yes"/>
      <point x="532" y="294"/>
      <point x="545" y="308"/>
      <point x="560" y="319" type="curve" smooth="yes"/>
      <point x="582" y="335"/>
      <point x="599" y="345"/>
      <point x="624" y="353" type="curve" smooth="yes"/>
      <point x="645" y="360"/>
      <point x="666" y="364"/>
      <point x="693" y="364" type="curve" smooth="yes"/>
      <point x="716" y="364"/>
      <point x="731" y="361"/>
      <point x="749" y="356" type="curve" smooth="yes"/>
      <point x="766" y="351"/>
      <point x="782" y="342"/>
      <point x="794" y="331" type="curve" smooth="yes"/>
      <point x="808" y="319"/>
      <point x="817" y="306"/>
      <point x="824" y="289" type="curve"/>
      <point x="837" y="266"/>
      <point x="843" y="237"/>
      <point x="845" y="204" type="curve" smooth="yes"/>
      <point x="846" y="171"/>
      <point x="843" y="134"/>
      <point x="835" y="93" type="curve" smooth="yes"/>
      <point x="824" y="34"/>
      <point x="805" y="-20"/>
      <point x="779" y="-71" type="curve" smooth="yes"/>
      <point x="753" y="-122"/>
      <point x="718" y="-172"/>
      <point x="681" y="-211" type="curve" smooth="yes"/>
      <point x="599" y="-300"/>
      <point x="498" y="-358"/>
      <point x="377" y="-401" type="curve" smooth="yes"/>
      <point x="363" y="-406" type="line"/>
    </contour>
  </outline>
</glyph>
<glyph name="period" format="1">
  <advance width="1233"/>
  <unicode hex="002E"/>
  <outline>
    <contour>
      <point x="614" y="-42" type="curve" name="dv01" smooth="yes"/>
      <point x="563" y="-42"/>
      <point x="521" y="-25" name="dh01"/>
      <point x="487" y="9" type="curve" smooth="yes"/>
      <point x="455" y="41" name="dv02"/>
      <point x="436" y="86"/>
      <point x="436" y="143" type="curve" name="dh02" smooth="yes"/>
      <point x="436" y="196"/>
      <point x="453" y="240"/>
      <point x="487" y="275" type="curve" smooth="yes"/>
      <point x="521" y="309"/>
      <point x="563" y="326"/>
      <point x="612" y="326" type="curve" smooth="yes"/>
      <point x="663" y="326"/>
      <point x="705" y="309"/>
      <point x="739" y="275" type="curve" smooth="yes"/>
      <point x="773" y="241"/>
      <point x="790" y="196"/>
      <point x="790" y="141" type="curve" smooth="yes"/>
      <point x="790" y="88"/>
      <point x="773" y="44"/>
      <point x="739" y="9" type="curve" smooth="yes"/>
      <point x="705" y="-25"/>
      <point x="663" y="-42"/>
    </contour>
  </outline>
</glyph>
<glyph name="two" format="1">
  <advance width="1233"/>
  <unicode hex="0032"/>
  <outline>
    <contour>
      <point x="13" y="218" type="line" smooth="yes" name="hr00"/>
      <point x="18" y="243"/>
      <point x="27" y="258"/>
      <point x="46" y="275" type="curve" smooth="yes"/>
      <point x="297" y="500" type="line" smooth="yes" name="dh01"/>
      <point x="372" y="567"/>
      <point x="383" y="575" name="sv01"/>
      <point x="442" y="628" type="curve" smooth="yes"/>
      <point x="731" y="887" name="iv01"/>
      <point x="844" y="1033"/>
      <point x="844" y="1138" type="curve" smooth="yes"/>
      <point x="844" y="1181" name="at01"/>
      <point x="825" y="1221"/>
      <point x="788" y="1248" type="curve" smooth="yes" name="dh02"/>
      <point x="751" y="1275"/>
      <point x="699" y="1288"/>
      <point x="635" y="1288" type="curve" smooth="yes" name="sv02"/>
      <point x="579" y="1288"/>
      <point x="515" y="1278" name="ab01"/>
      <point x="447" y="1259" type="curve" smooth="yes"/>
      <point x="387" y="1242"/>
      <point x="309" y="1212" name="sh01"/>
      <point x="225" y="1171" type="curve"/>
      <point x="276" y="1438" type="line"/>
      <point x="349" y="1465"/>
      <point x="424" y="1486"/>
      <point x="492" y="1499" type="curve"/>
      <point x="564" y="1514"/>
      <point x="637" y="1520"/>
      <point x="697" y="1520" type="curve" smooth="yes"/>
      <point x="824" y="1520"/>
      <point x="934" y="1490"/>
      <point x="1014" y="1426" type="curve" smooth="yes"/>
      <point x="1089" y="1367"/>
      <point x="1135" y="1283"/>
      <point x="1135" y="1186" type="curve" smooth="yes"/>
      <point x="1135" y="1011"/>
      <point x="984" y="799"/>
      <point x="681" y="542" type="curve" smooth="yes"/>
      <point x="641" y="508" type="line"/>
      <point x="324" y="260" type="line"/>
      <point x="971" y="260" type="line"/>
      <point x="920" y="0" type="line"/>
      <point x="-29" y="0" type="line"/>
    </contour>
  </outline>
</glyph>
<glyph name="less" format="1">
  <advance width="1233"/>
  <unicode hex="003C"/>
  <outline>
    <contour>
      <point x="65" y="524" type="line" name="hr00"/>
      <point x="111" y="760" type="line"/>
      <point x="1249" y="1176" type="line" name="av01"/>
      <point x="1200" y="926" type="line"/>
      <point x="350" y="641" type="line" name="iv01"/>
      <point x="1090" y="358" type="line"/>
      <point x="1041" y="109" type="line" name="av02"/>
    </contour>
  </outline>
</glyph>
<glyph name="equal" format="1">
  <advance width="1233"/>
  <unicode hex="003D"/>
  <outline>
    <contour>
      <point x="155" y="987" type="line" name="hr00"/>
      <point x="1212" y="987" type="line" name="dv04"/>
      <point x="1167" y="752" type="line" name="dv03"/>
      <point x="110" y="752" type="line"/>
    </contour>
    <contour>
      <point x="67" y="532" type="line"/>
      <point x="1124" y="532" type="line" name="dv02"/>
      <point x="1078" y="295" type="line" name="dv01"/>
      <point x="21" y="295" type="line"/>
    </contour>
  </outline>
</glyph>
<glyph name="greater" format="1">
  <advance width="1233"/>
  <unicode hex="003E"/>
  <outline>
    <contour>
      <point x="33" y="358" type="line" name="hr00"/>
      <point x="883" y="641" type="line" name="iv01"/>
      <point x="143" y="926" type="line"/>
      <point x="192" y="1176" type="line" name="av01"/>
      <point x="1168" y="760" type="line"/>
      <point x="1122" y="524" type="line"/>
      <point x="-16" y="109" type="line" name="av02"/>
    </contour>
  </outline>
</glyph>
<glyph name="J" format="1">
  <advance width="1233"/>
  <unicode hex="004A"/>
  <outline>
    <contour>
      <point x="411" y="-29" type="curve" smooth="yes" name="dv01"/>
      <point x="338" y="-29"/>
      <point x="261" y="-20"/>
      <point x="192" y="-3" type="curve" smooth="yes"/>
      <point x="131" y="12"/>
      <point x="56" y="39" name="dv02"/>
      <point x="-20" y="78" type="curve"/>
      <point x="45" y="422" type="line"/>
      <point x="97" y="358" name="sv01"/>
      <point x="153" y="310"/>
      <point x="212" y="279" type="curve" smooth="yes" name="at01"/>
      <point x="271" y="247"/>
      <point x="335" y="231"/>
      <point x="406" y="231" type="curve" smooth="yes"/>
      <point x="481" y="231"/>
      <point x="537" y="249"/>
      <point x="575" y="285" type="curve" smooth="yes"/>
      <point x="614" y="321"/>
      <point x="640" y="382"/>
      <point x="659" y="479" type="curve" smooth="yes"/>
      <point x="807" y="1233" type="line"/>
      <point x="446" y="1233" type="line"/>
      <point x="498" y="1493" type="line"/>
      <point x="1153" y="1493" type="line"/>
      <point x="954" y="479" type="line" smooth="yes"/>
      <point x="931" y="362"/>
      <point x="907" y="280"/>
      <point x="880" y="223" type="curve" smooth="yes"/>
      <point x="853" y="167"/>
      <point x="819" y="121"/>
      <point x="772" y="82" type="curve" smooth="yes"/>
      <point x="725" y="43"/>
      <point x="673" y="18"/>
      <point x="614" y="-1" type="curve" smooth="yes"/>
      <point x="553" y="-20"/>
      <point x="484" y="-29"/>
    </contour>
  </outline>
</glyph>
<glyph name="P" format="1">
  <advance width="1233"/>
  <unicode hex="0050"/>
  <outline>
    <contour>
      <point x="305" y="1493" type="line" name="at01"/>
      <point x="725" y="1493" type="line" smooth="yes"/>
      <point x="882" y="1493"/>
      <point x="1002" y="1463" name="dh02"/>
      <point x="1085" y="1402" type="curve" smooth="yes"/>
      <point x="1169" y="1339"/>
      <point x="1208" y="1252"/>
      <point x="1208" y="1129" type="curve" smooth="yes" name="dv01"/>
      <point x="1208" y="1061"/>
      <point x="1196" y="985" name="ab01"/>
      <point x="1172" y="909" type="curve" smooth="yes"/>
      <point x="1147" y="830" name="dv02"/>
      <point x="1116" y="776"/>
      <point x="1077" y="731" type="curve" smooth="yes" name="dh01"/>
      <point x="1026" y="671"/>
      <point x="961" y="627" name="sv01"/>
      <point x="883" y="600" type="curve" smooth="yes"/>
      <point x="805" y="573"/>
      <point x="705" y="559"/>
      <point x="582" y="559" type="curve" smooth="yes" name="sh01"/>
      <point x="418" y="559" type="line"/>
      <point x="309" y="0" type="line"/>
      <point x="14" y="0" type="line"/>
    </contour>
    <contour>
      <point x="610" y="807" type="line" smooth="yes"/>
      <point x="710" y="807"/>
      <point x="782" y="832"/>
      <point x="829" y="875" type="curve" smooth="yes"/>
      <point x="877" y="920"/>
      <point x="901" y="990"/>
      <point x="901" y="1071" type="curve" smooth="yes"/>
      <point x="901" y="1136"/>
      <point x="884" y="1182"/>
      <point x="849" y="1207" type="curve" smooth="yes"/>
      <point x="814" y="1232"/>
      <point x="755" y="1245"/>
      <point x="672" y="1245" type="curve" smooth="yes"/>
      <point x="551" y="1245" type="line"/>
      <point x="467" y="807" type="line"/>
    </contour>
  </outline>
</glyph>
<glyph name="backslash" format="1">
  <advance width="1233"/>
  <unicode hex="005C"/>
  <outline>
    <contour>
      <point x="340" y="1493" type="line" name="at01"/>
      <point x="543" y="1493" type="line"/>
      <point x="741" y="-190" type="line" name="av01"/>
      <point x="539" y="-190" type="line"/>
    </contour>
  </outline>
</glyph>
<glyph name="asciicircum" format="1">
  <advance width="1233"/>
  <unicode hex="005E"/>
  <outline>
    <contour>
      <point x="548" y="1493" type="line" name="at01"/>
      <point x="793" y="1493" type="line"/>
      <point x="1122" y="936" type="line" name="av01"/>
      <point x="880" y="936" type="line"/>
      <point x="620" y="1237" type="line"/>
      <point x="245" y="936" type="line" name="av02"/>
      <point x="3" y="936" type="line"/>
    </contour>
  </outline>
</glyph>
<glyph name="underscore" format="1">
  <advance width="1233"/>
  <unicode hex="005F"/>
  <outline>
    <contour>
      <point x="113" y="-190" type="line" name="hr00"/>
      <point x="1157" y="-190" type="line"/>
      <point x="1119" y="-390" type="line"/>
      <point x="75" y="-390" type="line"/>
    </contour>
  </outline>
</glyph>
<glyph name="b" format="1">
  <advance width="1233"/>
  <unicode hex="0062"/>
  <outline>
    <contour>
      <point x="651" y="-29" type="curve" smooth="yes" name="dv01"/>
      <point x="574" y="-29"/>
      <point x="515" y="-5" name="iv01"/>
      <point x="470" y="34" type="curve" smooth="yes" name="ab01"/>
      <point x="425" y="73"/>
      <point x="393" y="127" name="at01"/>
      <point x="381" y="207" type="curve"/>
      <point x="311" y="0" type="line" name="ih01"/>
      <point x="47" y="0" type="line"/>
      <point x="350" y="1556" type="line" name="at02"/>
      <point x="643" y="1556" type="line"/>
      <point x="524" y="952" type="line" name="sh01"/>
      <point x="566" y="1016"/>
      <point x="615" y="1065"/>
      <point x="670" y="1098" type="curve" smooth="yes"/>
      <point x="726" y="1131"/>
      <point x="785" y="1147" name="dv02"/>
      <point x="848" y="1147" type="curve" smooth="yes"/>
      <point x="943" y="1147" name="dh02"/>
      <point x="1024" y="1111"/>
      <point x="1081" y="1038" type="curve" smooth="yes" name="sv01"/>
      <point x="1141" y="962"/>
      <point x="1165" y="856" name="dh01"/>
      <point x="1165" y="732" type="curve" smooth="yes"/>
      <point x="1165" y="655"/>
      <point x="1155" y="566"/>
      <point x="1135" y="479" type="curve" smooth="yes"/>
      <point x="1118" y="407"/>
      <point x="1089" y="320"/>
      <point x="1049" y="244" type="curve" smooth="yes"/>
      <point x="1004" y="160"/>
      <point x="944" y="90"/>
      <point x="876" y="43" type="curve" smooth="yes"/>
      <point x="808" y="-4"/>
      <point x="730" y="-29"/>
    </contour>
    <contour>
      <point x="599" y="209" type="curve" smooth="yes"/>
      <point x="675" y="209"/>
      <point x="743" y="262"/>
      <point x="792" y="351" type="curve" smooth="yes"/>
      <point x="843" y="443"/>
      <point x="870" y="563"/>
      <point x="870" y="682" type="curve" smooth="yes"/>
      <point x="870" y="762"/>
      <point x="857" y="814"/>
      <point x="829" y="851" type="curve" smooth="yes"/>
      <point x="801" y="888"/>
      <point x="763" y="907"/>
      <point x="714" y="907" type="curve" smooth="yes"/>
      <point x="643" y="907"/>
      <point x="572" y="865"/>
      <point x="516" y="769" type="curve" smooth="yes"/>
      <point x="464" y="680"/>
      <point x="434" y="559"/>
      <point x="434" y="444" type="curve" smooth="yes"/>
      <point x="434" y="360"/>
      <point x="450" y="306"/>
      <point x="478" y="269" type="curve" smooth="yes"/>
      <point x="507" y="230"/>
      <point x="550" y="209"/>
    </contour>
  </outline>
</glyph>
<glyph name="c" format="1">
  <advance width="1233"/>
  <unicode hex="0063"/>
  <outline>
    <contour>
      <point x="621" y="-29" type="curve" smooth="yes" name="dv01"/>
      <point x="481" y="-29"/>
      <point x="355" y="6" name="dh01"/>
      <point x="263" y="94" type="curve" smooth="yes"/>
      <point x="171" y="182" name="at01"/>
      <point x="135" y="305"/>
      <point x="135" y="448" type="curve" smooth="yes"/>
      <point x="135" y="636"/>
      <point x="199" y="823"/>
      <point x="318" y="950" type="curve" smooth="yes" name="sv01"/>
      <point x="438" y="1079"/>
      <point x="605" y="1147" name="dh02"/>
      <point x="797" y="1147" type="curve" smooth="yes"/>
      <point x="864" y="1147" name="dv02"/>
      <point x="930" y="1139"/>
      <point x="981" y="1127" type="curve" smooth="yes"/>
      <point x="1036" y="1114"/>
      <point x="1091" y="1092"/>
      <point x="1142" y="1063" type="curve"/>
      <point x="1089" y="795" type="line"/>
      <point x="1049" y="833"/>
      <point x="1006" y="862"/>
      <point x="960" y="881" type="curve" smooth="yes"/>
      <point x="916" y="900"/>
      <point x="867" y="909"/>
      <point x="814" y="909" type="curve" smooth="yes"/>
      <point x="695" y="909"/>
      <point x="603" y="862"/>
      <point x="538" y="786" type="curve" smooth="yes"/>
      <point x="466" y="702"/>
      <point x="431" y="590"/>
      <point x="431" y="466" type="curve" smooth="yes"/>
      <point x="431" y="374"/>
      <point x="451" y="315"/>
      <point x="492" y="272" type="curve" smooth="yes"/>
      <point x="533" y="229"/>
      <point x="595" y="209"/>
      <point x="675" y="209" type="curve" smooth="yes"/>
      <point x="726" y="209"/>
      <point x="774" y="218"/>
      <point x="827" y="235" type="curve" smooth="yes"/>
      <point x="876" y="251"/>
      <point x="930" y="274"/>
      <point x="997" y="313" type="curve"/>
      <point x="941" y="37" type="line"/>
      <point x="889" y="14"/>
      <point x="836" y="-2"/>
      <point x="783" y="-13" type="curve" smooth="yes"/>
      <point x="727" y="-24"/>
      <point x="673" y="-29"/>
    </contour>
  </outline>
</glyph>
<glyph name="f" format="1">
  <advance width="1233"/>
  <unicode hex="0066"/>
  <outline>
    <contour>
      <point x="456" y="895" type="line" name="sv01"/>
      <point x="183" y="895" type="line"/>
      <point x="226" y="1120" type="line" name="at02"/>
      <point x="499" y="1120" type="line"/>
      <point x="515" y="1198" type="line" smooth="yes"/>
      <point x="546" y="1350"/>
      <point x="590" y="1436" name="at01"/>
      <point x="649" y="1483" type="curve" smooth="yes"/>
      <point x="710" y="1531" name="sv02"/>
      <point x="815" y="1556"/>
      <point x="980" y="1556" type="curve" smooth="yes"/>
      <point x="1220" y="1556" type="line"/>
      <point x="1177" y="1331" type="line" name="at03"/>
      <point x="947" y="1331" type="line" smooth="yes"/>
      <point x="903" y="1331" name="sv03"/>
      <point x="872" y="1322" name="sv04"/>
      <point x="853" y="1304" type="curve" smooth="yes" name="ab01"/>
      <point x="834" y="1285"/>
      <point x="819" y="1248"/>
      <point x="808" y="1196" type="curve" smooth="yes"/>
      <point x="792" y="1120" type="line"/>
      <point x="1136" y="1120" type="line"/>
      <point x="1093" y="895" type="line"/>
      <point x="749" y="895" type="line"/>
      <point x="575" y="0" type="line"/>
      <point x="282" y="0" type="line"/>
    </contour>
  </outline>
</glyph>
<glyph name="g" format="1">
  <advance width="1233"/>
  <unicode hex="0067"/>
  <outline>
    <contour>
      <point x="386" y="-424" type="curve" name="ab01" smooth="yes"/>
      <point x="320" y="-424"/>
      <point x="257" y="-419"/>
      <point x="196" y="-409" type="curve" name="ih01" smooth="yes"/>
      <point x="135" y="-398"/>
      <point x="77" y="-384" name="sv01"/>
      <point x="18" y="-365" type="curve"/>
      <point x="72" y="-100" type="line"/>
      <point x="123" y="-131" name="ih02"/>
      <point x="175" y="-153"/>
      <point x="230" y="-168" type="curve" name="dv03" smooth="yes"/>
      <point x="286" y="-183"/>
      <point x="341" y="-190" name="dh01"/>
      <point x="396" y="-190" type="curve" smooth="yes"/>
      <point x="484" y="-190"/>
      <point x="548" y="-171"/>
      <point x="595" y="-132" type="curve" name="dv02" smooth="yes"/>
      <point x="647" y="-89"/>
      <point x="672" y="-29" name="iv01"/>
      <point x="688" y="51" type="curve" name="at01" smooth="yes"/>
      <point x="715" y="184" type="line"/>
      <point x="679" y="129"/>
      <point x="635" y="87"/>
      <point x="584" y="59" type="curve" smooth="yes"/>
      <point x="533" y="30" name="dv04"/>
      <point x="474" y="16"/>
      <point x="409" y="16" type="curve" name="sh01" smooth="yes"/>
      <point x="308" y="16"/>
      <point x="226" y="48" name="dv01"/>
      <point x="161" y="121" type="curve" smooth="yes"/>
      <point x="97" y="193" name="dh02"/>
      <point x="68" y="282"/>
      <point x="68" y="407" type="curve" smooth="yes"/>
      <point x="68" y="494"/>
      <point x="82" y="588"/>
      <point x="110" y="683" type="curve" smooth="yes"/>
      <point x="141" y="784"/>
      <point x="180" y="865"/>
      <point x="225" y="932" type="curve" smooth="yes"/>
      <point x="272" y="1001"/>
      <point x="329" y="1054"/>
      <point x="396" y="1093" type="curve" smooth="yes"/>
      <point x="463" y="1132"/>
      <point x="531" y="1151"/>
      <point x="602" y="1151" type="curve" smooth="yes"/>
      <point x="672" y="1151"/>
      <point x="729" y="1133"/>
      <point x="774" y="1096" type="curve" smooth="yes"/>
      <point x="819" y="1059"/>
      <point x="848" y="1007"/>
      <point x="862" y="938" type="curve"/>
      <point x="926" y="1120" type="line"/>
      <point x="1190" y="1120" type="line"/>
      <point x="987" y="84" type="line" smooth="yes"/>
      <point x="952" y="-96"/>
      <point x="893" y="-228"/>
      <point x="796" y="-309" type="curve" smooth="yes"/>
      <point x="705" y="-386"/>
      <point x="568" y="-424"/>
    </contour>
    <contour>
      <point x="521" y="246" type="curve" smooth="yes"/>
      <point x="594" y="246"/>
      <point x="664" y="291"/>
      <point x="720" y="379" type="curve" smooth="yes"/>
      <point x="776" y="468"/>
      <point x="803" y="581"/>
      <point x="803" y="689" type="curve" smooth="yes"/>
      <point x="803" y="757"/>
      <point x="793" y="815"/>
      <point x="762" y="855" type="curve" smooth="yes"/>
      <point x="733" y="894"/>
      <point x="693" y="909"/>
      <point x="649" y="909" type="curve" smooth="yes"/>
      <point x="573" y="909"/>
      <point x="502" y="861"/>
      <point x="450" y="777" type="curve" smooth="yes"/>
      <point x="394" y="689"/>
      <point x="367" y="573"/>
      <point x="367" y="465" type="curve" smooth="yes"/>
      <point x="367" y="397"/>
      <point x="378" y="340"/>
      <point x="407" y="301" type="curve" smooth="yes"/>
      <point x="434" y="264"/>
      <point x="472" y="246"/>
    </contour>
  </outline>
</glyph>
<glyph name="p" format="1">
  <advance width="1233"/>
  <unicode hex="0070"/>
  <outline>
    <contour>
      <point x="264" y="1120" type="line" name="at01"/>
      <point x="528" y="1120" type="line"/>
      <point x="524" y="952" type="line" name="ih01"/>
      <point x="571" y="1017"/>
      <point x="622" y="1066" name="at02"/>
      <point x="677" y="1099" type="curve" smooth="yes"/>
      <point x="729" y="1130" name="sh01"/>
      <point x="789" y="1147"/>
      <point x="854" y="1147" type="curve" smooth="yes"/>
      <point x="951" y="1147"/>
      <point x="1027" y="1111" name="dv01"/>
      <point x="1084" y="1038" type="curve" smooth="yes"/>
      <point x="1141" y="965" name="iv01"/>
      <point x="1169" y="867" name="ab01"/>
      <point x="1169" y="734" type="curve" smooth="yes"/>
      <point x="1169" y="654" name="dv02"/>
      <point x="1159" y="568"/>
      <point x="1138" y="480" type="curve" name="dh02" smooth="yes"/>
      <point x="1117" y="392"/>
      <point x="1086" y="311" name="sv01"/>
      <point x="1051" y="244" type="curve" smooth="yes"/>
      <point x="1005" y="158" name="dh01"/>
      <point x="947" y="91"/>
      <point x="877" y="43" type="curve" smooth="yes"/>
      <point x="807" y="-5"/>
      <point x="733" y="-29"/>
      <point x="654" y="-29" type="curve" smooth="yes"/>
      <point x="581" y="-29"/>
      <point x="520" y="-8"/>
      <point x="471" y="33" type="curve" smooth="yes"/>
      <point x="422" y="74"/>
      <point x="392" y="132"/>
      <point x="379" y="207" type="curve"/>
      <point x="256" y="-426" type="line"/>
      <point x="-37" y="-426" type="line"/>
    </contour>
    <contour>
      <point x="601" y="209" type="curve" smooth="yes"/>
      <point x="681" y="209"/>
      <point x="747" y="266"/>
      <point x="794" y="350" type="curve" smooth="yes"/>
      <point x="845" y="442"/>
      <point x="874" y="564"/>
      <point x="874" y="683" type="curve" smooth="yes"/>
      <point x="874" y="763"/>
      <point x="861" y="814"/>
      <point x="833" y="851" type="curve" smooth="yes"/>
      <point x="805" y="888"/>
      <point x="767" y="907"/>
      <point x="718" y="907" type="curve" smooth="yes"/>
      <point x="643" y="907"/>
      <point x="574" y="861"/>
      <point x="519" y="769" type="curve" smooth="yes"/>
      <point x="466" y="678"/>
      <point x="436" y="560"/>
      <point x="436" y="444" type="curve" smooth="yes"/>
      <point x="436" y="371"/>
      <point x="448" y="312"/>
      <point x="480" y="269" type="curve" smooth="yes"/>
      <point x="508" y="232"/>
      <point x="550" y="209"/>
    </contour>
  </outline>
</glyph>
<glyph name="q" format="1">
  <advance width="1233"/>
  <unicode hex="0071"/>
  <outline>
    <contour>
      <point x="709" y="166" type="line" name="ih01"/>
      <point x="666" y="102"/>
      <point x="618" y="54" name="dv03"/>
      <point x="563" y="21" type="curve" smooth="yes"/>
      <point x="508" y="-12" name="dh01"/>
      <point x="448" y="-29"/>
      <point x="385" y="-29" type="curve" smooth="yes"/>
      <point x="292" y="-29"/>
      <point x="210" y="8" name="dv02"/>
      <point x="153" y="81" type="curve" smooth="yes"/>
      <point x="96" y="154" name="iv01"/>
      <point x="68" y="258" name="at01"/>
      <point x="68" y="387" type="curve" smooth="yes"/>
      <point x="68" y="464" name="ab01"/>
      <point x="78" y="552"/>
      <point x="99" y="639" type="curve" smooth="yes" name="dv04"/>
      <point x="120" y="725"/>
      <point x="149" y="803" name="sh01"/>
      <point x="187" y="874" type="curve" smooth="yes"/>
      <point x="234" y="959" name="dv01"/>
      <point x="287" y="1026"/>
      <point x="359" y="1077" type="curve" smooth="yes" name="dh02"/>
      <point x="428" y="1125"/>
      <point x="502" y="1149"/>
      <point x="580" y="1149" type="curve" smooth="yes"/>
      <point x="656" y="1149"/>
      <point x="720" y="1126"/>
      <point x="764" y="1087" type="curve" smooth="yes"/>
      <point x="808" y="1048"/>
      <point x="842" y="990"/>
      <point x="854" y="911" type="curve"/>
      <point x="922" y="1120" type="line"/>
      <point x="1186" y="1120" type="line"/>
      <point x="885" y="-426" type="line"/>
      <point x="594" y="-426" type="line"/>
    </contour>
    <contour>
      <point x="519" y="211" type="curve" smooth="yes"/>
      <point x="596" y="211"/>
      <point x="662" y="257"/>
      <point x="717" y="350" type="curve" smooth="yes"/>
      <point x="772" y="442"/>
      <point x="799" y="554"/>
      <point x="799" y="674" type="curve" smooth="yes"/>
      <point x="799" y="753"/>
      <point x="787" y="807"/>
      <point x="754" y="850" type="curve" smooth="yes"/>
      <point x="724" y="889"/>
      <point x="684" y="909"/>
      <point x="634" y="909" type="curve" smooth="yes"/>
      <point x="559" y="909"/>
      <point x="495" y="862"/>
      <point x="442" y="768" type="curve" smooth="yes"/>
      <point x="389" y="672"/>
      <point x="362" y="553"/>
      <point x="362" y="436" type="curve" smooth="yes"/>
      <point x="362" y="351"/>
      <point x="376" y="305"/>
      <point x="404" y="268" type="curve" smooth="yes"/>
      <point x="432" y="231"/>
      <point x="468" y="211"/>
    </contour>
  </outline>
</glyph>
<glyph name="r" format="1">
  <advance width="1233"/>
  <unicode hex="0072"/>
  <outline>
    <contour>
      <point x="343" y="1120" type="line" name="at01"/>
      <point x="607" y="1120" type="line"/>
      <point x="601" y="946" type="line" name="iv01"/>
      <point x="642" y="1010"/>
      <point x="696" y="1060" name="at03"/>
      <point x="762" y="1095" type="curve" smooth="yes" name="at02"/>
      <point x="827" y="1130"/>
      <point x="900" y="1147" name="iv02"/>
      <point x="979" y="1147" type="curve" smooth="yes"/>
      <point x="1021" y="1147" name="sv01"/>
      <point x="1061" y="1142"/>
      <point x="1098" y="1132" type="curve" smooth="yes"/>
      <point x="1135" y="1122" name="ab01"/>
      <point x="1168" y="1108"/>
      <point x="1197" y="1090" type="curve"/>
      <point x="1144" y="815" type="line"/>
      <point x="1109" y="846"/>
      <point x="1072" y="867"/>
      <point x="1037" y="879" type="curve" smooth="yes"/>
      <point x="997" y="894"/>
      <point x="948" y="899"/>
      <point x="900" y="899" type="curve" smooth="yes"/>
      <point x="796" y="899"/>
      <point x="712" y="872"/>
      <point x="649" y="811" type="curve" smooth="yes"/>
      <point x="590" y="754"/>
      <point x="546" y="657"/>
      <point x="519" y="516" type="curve" smooth="yes"/>
      <point x="419" y="0" type="line"/>
      <point x="124" y="0" type="line"/>
    </contour>
  </outline>
</glyph>
<glyph name="v" format="1">
  <advance width="1233"/>
  <unicode hex="0076"/>
  <outline>
    <contour>
      <point x="172" y="1120" type="line" name="at01"/>
      <point x="455" y="1120" type="line"/>
      <point x="535" y="242" type="line" name="iv01"/>
      <point x="924" y="1120" type="line" name="at02"/>
      <point x="1231" y="1120" type="line"/>
      <point x="680" y="0" type="line" name="ab01"/>
      <point x="311" y="0" type="line"/>
    </contour>
  </outline>
</glyph>
<glyph name="braceleft" format="1">
  <advance width="1233"/>
  <unicode hex="007B"/>
  <outline>
    <contour>
      <point x="644" y="-334" type="line" smooth="yes" name="dv01"/>
      <point x="504" y="-334"/>
      <point x="421" y="-315" name="dh01"/>
      <point x="365" y="-280" type="curve" smooth="yes" name="sh01"/>
      <point x="309" y="-245"/>
      <point x="280" y="-192"/>
      <point x="280" y="-101" type="curve" smooth="yes"/>
      <point x="280" y="-84" name="ih01"/>
      <point x="281" y="-72"/>
      <point x="284" y="-49" type="curve" name="dv03"/>
      <point x="284" y="-41"/>
      <point x="290" y="1" name="dv04"/>
      <point x="298" y="35" type="curve"/>
      <point x="341" y="250" type="line" smooth="yes"/>
      <point x="343" y="260"/>
      <point x="351" y="304"/>
      <point x="354" y="328" type="curve" smooth="yes"/>
      <point x="357" y="351" name="at01"/>
      <point x="358" y="365"/>
      <point x="358" y="377" type="curve" smooth="yes" name="sv01"/>
      <point x="358" y="433"/>
      <point x="338" y="465"/>
      <point x="295" y="486" type="curve"/>
      <point x="259" y="505"/>
      <point x="197" y="516"/>
      <point x="113" y="516" type="curve" smooth="yes" name="ih02"/>
      <point x="51" y="516" type="line"/>
      <point x="88" y="707" type="line" name="sh02"/>
      <point x="179" y="707" type="line" smooth="yes"/>
      <point x="274" y="707"/>
      <point x="343" y="725"/>
      <point x="386" y="762" type="curve" smooth="yes"/>
      <point x="429" y="799" name="dh02"/>
      <point x="460" y="869"/>
      <point x="480" y="973" type="curve" smooth="yes" name="dv02"/>
      <point x="521" y="1188" type="line" smooth="yes"/>
      <point x="550" y="1341" name="sv02"/>
      <point x="597" y="1437"/>
      <point x="658" y="1484" type="curve" smooth="yes"/>
      <point x="720" y="1532"/>
      <point x="838" y="1556"/>
      <point x="1011" y="1556" type="curve" smooth="yes"/>
      <point x="1160" y="1556" type="line"/>
      <point x="1124" y="1366" type="line"/>
      <point x="1001" y="1366" type="line" smooth="yes"/>
      <point x="926" y="1366"/>
      <point x="881" y="1351"/>
      <point x="852" y="1323" type="curve" smooth="yes"/>
      <point x="821" y="1294"/>
      <point x="800" y="1239"/>
      <point x="781" y="1139" type="curve" smooth="yes"/>
      <point x="743" y="930" type="line" smooth="yes"/>
      <point x="724" y="826"/>
      <point x="692" y="744"/>
      <point x="648" y="696" type="curve" smooth="yes"/>
      <point x="607" y="651"/>
      <point x="543" y="623"/>
      <point x="456" y="612" type="curve"/>
      <point x="520" y="598"/>
      <point x="566" y="577"/>
      <point x="593" y="548" type="curve" smooth="yes"/>
      <point x="620" y="521"/>
      <point x="634" y="485"/>
      <point x="634" y="428" type="curve" smooth="yes"/>
      <point x="634" y="413"/>
      <point x="633" y="387"/>
      <point x="630" y="364" type="curve" smooth="yes"/>
      <point x="627" y="347"/>
      <point x="625" y="326"/>
      <point x="618" y="291" type="curve" smooth="yes"/>
      <point x="577" y="86" type="line"/>
      <point x="569" y="51"/>
      <point x="569" y="49"/>
      <point x="564" y="12" type="curve" smooth="yes"/>
      <point x="561" y="-11"/>
      <point x="560" y="-19"/>
      <point x="560" y="-32" type="curve" smooth="yes"/>
      <point x="560" y="-75"/>
      <point x="571" y="-101"/>
      <point x="594" y="-118" type="curve" smooth="yes"/>
      <point x="617" y="-135"/>
      <point x="655" y="-143"/>
      <point x="708" y="-143" type="curve" smooth="yes"/>
      <point x="829" y="-143" type="line"/>
      <point x="792" y="-334" type="line"/>
    </contour>
  </outline>
</glyph>
<glyph name="bar" format="1">
  <advance width="1233"/>
  <unicode hex="007C"/>
  <outline>
    <contour>
      <point x="536" y="713" type="line"/>
      <point x="701" y="1565" type="line" name="dh01"/>
      <point x="928" y="1565" type="line" name="dh02"/>
      <point x="763" y="713" type="line"/>
    </contour>
    <contour>
      <point x="696" y="369" type="line"/>
      <point x="530" y="-483" type="line" name="av01"/>
      <point x="303" y="-483" type="line"/>
      <point x="469" y="370" type="line"/>
    </contour>
  </outline>
</glyph>
<glyph name="asciitilde" format="1">
  <advance width="1233"/>
  <unicode hex="007E"/>
  <outline>
    <contour>
      <point x="1218" y="873" type="line" name="hr00"/>
      <point x="1179" y="696"/>
      <point x="1139" y="571"/>
      <point x="1071" y="483" type="curve" smooth="yes"/>
      <point x="1073" y="486" type="line" smooth="yes"/>
      <point x="999" y="378"/>
      <point x="899" y="324"/>
      <point x="776" y="324" type="curve" smooth="yes"/>
      <point x="717" y="324"/>
      <point x="670" y="337"/>
      <point x="632" y="362" type="curve" smooth="yes"/>
      <point x="597" y="385"/>
      <point x="561" y="431"/>
      <point x="525" y="500" type="curve" smooth="yes"/>
      <point x="492" y="565"/>
      <point x="468" y="604"/>
      <point x="452" y="619" type="curve"/>
      <point x="437" y="630"/>
      <point x="424" y="637"/>
      <point x="411" y="637" type="curve" smooth="yes"/>
      <point x="382" y="637"/>
      <point x="361" y="624"/>
      <point x="344" y="597" type="curve"/>
      <point x="345" y="598" type="line"/>
      <point x="317" y="553"/>
      <point x="286" y="463"/>
      <point x="254" y="330" type="curve"/>
      <point x="15" y="330" type="line"/>
      <point x="52" y="499"/>
      <point x="101" y="628"/>
      <point x="162" y="717" type="curve"/>
      <point x="243" y="824"/>
      <point x="341" y="877"/>
      <point x="453" y="877" type="curve" smooth="yes"/>
      <point x="508" y="877"/>
      <point x="554" y="864"/>
      <point x="592" y="837" type="curve" smooth="yes"/>
      <point x="631" y="810"/>
      <point x="672" y="763"/>
      <point x="704" y="702" type="curve"/>
      <point x="703" y="703" type="line"/>
      <point x="728" y="657"/>
      <point x="752" y="620"/>
      <point x="775" y="591" type="curve" smooth="yes"/>
      <point x="790" y="573"/>
      <point x="805" y="564"/>
      <point x="820" y="564" type="curve" smooth="yes"/>
      <point x="888" y="564"/>
      <point x="933" y="662"/>
      <point x="977" y="873" type="curve"/>
    </contour>
  </outline>
</glyph>
<glyph name="sterling" format="1">
  <advance width="1233"/>
  <unicode hex="00A3"/>
  <outline>
    <contour>
      <point x="29" y="260" type="line" name="sv01"/>
      <point x="264" y="260" type="line"/>
      <point x="328" y="594" type="line" name="dv01"/>
      <point x="129" y="594" type="line"/>
      <point x="174" y="819" type="line"/>
      <point x="373" y="819" type="line" name="dv02"/>
      <point x="410" y="1016" type="line" smooth="yes"/>
      <point x="445" y="1199"/>
      <point x="505" y="1325" name="at01"/>
      <point x="589" y="1402" type="curve"/>
      <point x="674" y="1482"/>
      <point x="799" y="1520" name="iv01"/>
      <point x="952" y="1520" type="curve" smooth="yes"/>
      <point x="1005" y="1520" name="sv02"/>
      <point x="1055" y="1515"/>
      <point x="1102" y="1504" type="curve" smooth="yes"/>
      <point x="1151" y="1493" name="sv03"/>
      <point x="1198" y="1477"/>
      <point x="1245" y="1456" type="curve" name="sv04"/>
      <point x="1192" y="1190" type="line"/>
      <point x="1153" y="1217" name="sv05"/>
      <point x="1108" y="1240" name="sv06"/>
      <point x="1073" y="1252" type="curve" smooth="yes" name="ab01"/>
      <point x="1038" y="1264"/>
      <point x="993" y="1272"/>
      <point x="952" y="1272" type="curve" smooth="yes"/>
      <point x="882" y="1272"/>
      <point x="826" y="1250"/>
      <point x="784" y="1205" type="curve" smooth="yes"/>
      <point x="743" y="1161"/>
      <point x="711" y="1094"/>
      <point x="692" y="995" type="curve" smooth="yes"/>
      <point x="659" y="819" type="line"/>
      <point x="995" y="819" type="line"/>
      <point x="952" y="594" type="line"/>
      <point x="614" y="594" type="line"/>
      <point x="551" y="260" type="line"/>
      <point x="1032" y="260" type="line"/>
      <point x="981" y="0" type="line"/>
      <point x="-23" y="0" type="line"/>
    </contour>
  </outline>
</glyph>
<glyph name="macron" format="1">
  <advance width="1233"/>
  <unicode hex="00AF"/>
  <outline>
    <contour>
      <point x="459" y="1556" type="line" name="at01"/>
      <point x="1090" y="1556" type="line"/>
      <point x="1053" y="1368" type="line" name="sv01"/>
      <point x="422" y="1368" type="line"/>
    </contour>
  </outline>
</glyph>
<glyph name="plusminus" format="1">
  <advance width="1233"/>
  <unicode hex="00B1"/>
  <outline>
    <contour>
      <point x="498" y="694" type="line" name="dh01"/>
      <point x="88" y="694" type="line"/>
      <point x="88" y="930" type="line"/>
      <point x="498" y="930" type="line" name="sh01"/>
      <point x="498" y="1284" type="line" name="av01"/>
      <point x="735" y="1284" type="line" name="sh02"/>
      <point x="735" y="930" type="line" name="sv01"/>
      <point x="1145" y="930" type="line"/>
      <point x="1145" y="694" type="line" name="sv02"/>
      <point x="735" y="694" type="line" name="dh02"/>
      <point x="735" y="340" type="line"/>
      <point x="498" y="340" type="line"/>
    </contour>
    <contour>
      <point x="88" y="238" type="line" name="sv03"/>
      <point x="1145" y="238" type="line"/>
      <point x="1145" y="0" type="line" name="ab01"/>
      <point x="88" y="0" type="line"/>
    </contour>
  </outline>
</glyph>
<glyph name="Eth" format="1">
  <advance width="1233"/>
  <unicode hex="00D0"/>
  <outline>
    <contour>
      <point x="151" y="664" type="line" name="dv01"/>
      <point x="14" y="664" type="line"/>
      <point x="61" y="901" type="line"/>
      <point x="196" y="901" type="line" name="dv02"/>
      <point x="313" y="1493" type="line" name="at01"/>
      <point x="628" y="1493" type="line" smooth="yes"/>
      <point x="813" y="1493"/>
      <point x="959" y="1454" name="dh02"/>
      <point x="1055" y="1370" type="curve" smooth="yes"/>
      <point x="1148" y="1289"/>
      <point x="1195" y="1163"/>
      <point x="1195" y="996" type="curve" smooth="yes"/>
      <point x="1195" y="948"/>
      <point x="1191" y="877" name="ab01"/>
      <point x="1182" y="814" type="curve" smooth="yes"/>
      <point x="1174" y="759" name="sv01"/>
      <point x="1157" y="669"/>
      <point x="1141" y="603" type="curve" smooth="yes"/>
      <point x="1114" y="495"/>
      <point x="1080" y="407" name="dh01"/>
      <point x="1051" y="347" type="curve" smooth="yes"/>
      <point x="1011" y="264" name="sv02"/>
      <point x="967" y="210"/>
      <point x="927" y="171" type="curve" smooth="yes" name="sv03"/>
      <point x="863" y="108"/>
      <point x="785" y="67" name="sv04"/>
      <point x="701" y="40" type="curve"/>
      <point x="609" y="12"/>
      <point x="497" y="0"/>
      <point x="352" y="0" type="curve" smooth="yes" name="sh01"/>
      <point x="22" y="0" type="line"/>
    </contour>
    <contour>
      <point x="464" y="266" type="line" smooth="yes"/>
      <point x="539" y="266"/>
      <point x="602" y="281"/>
      <point x="653" y="310" type="curve" smooth="yes"/>
      <point x="709" y="341"/>
      <point x="744" y="385"/>
      <point x="773" y="442" type="curve" smooth="yes"/>
      <point x="805" y="506"/>
      <point x="837" y="599"/>
      <point x="858" y="695" type="curve" smooth="yes"/>
      <point x="881" y="795"/>
      <point x="890" y="892"/>
      <point x="890" y="960" type="curve" smooth="yes"/>
      <point x="890" y="1057"/>
      <point x="869" y="1120"/>
      <point x="828" y="1163" type="curve" smooth="yes"/>
      <point x="786" y="1206"/>
      <point x="722" y="1227"/>
      <point x="636" y="1227" type="curve" smooth="yes"/>
      <point x="554" y="1227" type="line"/>
      <point x="491" y="901" type="line"/>
      <point x="702" y="901" type="line"/>
      <point x="657" y="664" type="line"/>
      <point x="446" y="664" type="line"/>
      <point x="368" y="266" type="line"/>
    </contour>
  </outline>
</glyph>
<glyph name="atilde" format="1">
  <advance width="1233"/>
  <unicode hex="00E3"/>
  <outline>
    <contour>
      <point x="911" y="1297" type="curve" smooth="yes" name="sv02"/>
      <point x="884" y="1297"/>
      <point x="866" y="1301"/>
      <point x="843" y="1310" type="curve" smooth="yes"/>
      <point x="820" y="1319"/>
      <point x="797" y="1333"/>
      <point x="770" y="1354" type="curve" smooth="yes"/>
      <point x="721" y="1391" type="line" name="sv01"/>
      <point x="717" y="1395"/>
      <point x="719" y="1392"/>
      <point x="716" y="1395" type="curve" smooth="yes" name="av01"/>
      <point x="693" y="1412" name="av02"/>
      <point x="670" y="1428"/>
      <point x="643" y="1428" type="curve" smooth="yes"/>
      <point x="620" y="1428"/>
      <point x="600" y="1417"/>
      <point x="583" y="1394" type="curve" smooth="yes"/>
      <point x="566" y="1371" name="av03"/>
      <point x="554" y="1340"/>
      <point x="547" y="1299" type="curve"/>
      <point x="408" y="1299" type="line"/>
      <point x="421" y="1386" name="dv01"/>
      <point x="450" y="1455"/>
      <point x="495" y="1506" type="curve" smooth="yes" name="dh01"/>
      <point x="540" y="1557"/>
      <point x="596" y="1583"/>
      <point x="656" y="1583" type="curve" smooth="yes" name="dv04"/>
      <point x="679" y="1583"/>
      <point x="704" y="1579"/>
      <point x="723" y="1571" type="curve" smooth="yes"/>
      <point x="742" y="1563"/>
      <point x="768" y="1545" name="sv03"/>
      <point x="799" y="1522" type="curve" smooth="yes"/>
      <point x="850" y="1483" type="line" smooth="yes" name="ih01"/>
      <point x="863" y="1472"/>
      <point x="875" y="1465"/>
      <point x="887" y="1460" type="curve" smooth="yes" name="at01"/>
      <point x="899" y="1455"/>
      <point x="909" y="1452"/>
      <point x="921" y="1452" type="curve" smooth="yes"/>
      <point x="948" y="1452"/>
      <point x="968" y="1465" name="ab01"/>
      <point x="984" y="1486" type="curve" smooth="yes"/>
      <point x="1001" y="1508" name="iv01"/>
      <point x="1013" y="1540" name="ab02"/>
      <point x="1020" y="1581" type="curve"/>
      <point x="1159" y="1581" type="line" name="dv02"/>
      <point x="1144" y="1488"/>
      <point x="1116" y="1417" name="dv03"/>
      <point x="1074" y="1369" type="curve" smooth="yes"/>
      <point x="1032" y="1321"/>
      <point x="978" y="1297" name="dh02"/>
    </contour>
    <contour>
      <point x="379" y="-29" type="curve" smooth="yes"/>
      <point x="279" y="-29"/>
      <point x="195" y="-2"/>
      <point x="135" y="58" type="curve" smooth="yes"/>
      <point x="72" y="119"/>
      <point x="47" y="204"/>
      <point x="47" y="300" type="curve" smooth="yes"/>
      <point x="47" y="436"/>
      <point x="99" y="548"/>
      <point x="203" y="624" type="curve" smooth="yes"/>
      <point x="306" y="699"/>
      <point x="456" y="737"/>
      <point x="651" y="737" type="curve" smooth="yes"/>
      <point x="844" y="737" type="line"/>
      <point x="852" y="786" type="line" smooth="yes"/>
      <point x="853" y="793"/>
      <point x="854" y="797"/>
      <point x="854" y="798" type="curve"/>
      <point x="854" y="815" type="line" smooth="yes"/>
      <point x="854" y="853"/>
      <point x="837" y="882"/>
      <point x="803" y="902" type="curve" smooth="yes"/>
      <point x="769" y="922"/>
      <point x="720" y="932"/>
      <point x="657" y="932" type="curve" smooth="yes"/>
      <point x="600" y="932"/>
      <point x="538" y="923"/>
      <point x="470" y="904" type="curve" smooth="yes"/>
      <point x="403" y="885"/>
      <point x="335" y="859"/>
      <point x="248" y="819" type="curve"/>
      <point x="295" y="1069" type="line"/>
      <point x="372" y="1096"/>
      <point x="443" y="1115"/>
      <point x="509" y="1128" type="curve" smooth="yes"/>
      <point x="577" y="1141"/>
      <point x="637" y="1147"/>
      <point x="705" y="1147" type="curve" smooth="yes"/>
      <point x="850" y="1147"/>
      <point x="956" y="1120"/>
      <point x="1029" y="1071" type="curve" smooth="yes"/>
      <point x="1109" y="1018"/>
      <point x="1141" y="944"/>
      <point x="1141" y="848" type="curve" smooth="yes"/>
      <point x="1141" y="824"/>
      <point x="1139" y="793"/>
      <point x="1134" y="756" type="curve" smooth="yes"/>
      <point x="1129" y="718"/>
      <point x="1125" y="690"/>
      <point x="1114" y="639" type="curve"/>
      <point x="991" y="0" type="line"/>
      <point x="729" y="0" type="line"/>
      <point x="725" y="125" type="line"/>
      <point x="678" y="72"/>
      <point x="627" y="34"/>
      <point x="572" y="10" type="curve" smooth="yes"/>
      <point x="513" y="-17"/>
      <point x="447" y="-29"/>
    </contour>
    <contour>
      <point x="501" y="172" type="curve" smooth="yes"/>
      <point x="573" y="172"/>
      <point x="641" y="202"/>
      <point x="694" y="265" type="curve" smooth="yes"/>
      <point x="745" y="324"/>
      <point x="784" y="411"/>
      <point x="803" y="530" type="curve"/>
      <point x="690" y="530" type="line" smooth="yes"/>
      <point x="575" y="530"/>
      <point x="490" y="513"/>
      <point x="435" y="478" type="curve" smooth="yes"/>
      <point x="379" y="443"/>
      <point x="352" y="389"/>
      <point x="352" y="321" type="curve" smooth="yes"/>
      <point x="352" y="273"/>
      <point x="366" y="240"/>
      <point x="393" y="213" type="curve" smooth="yes"/>
      <point x="420" y="186"/>
      <point x="452" y="172"/>
    </contour>
  </outline>
</glyph>
<glyph name="adieresis" format="1">
  <advance width="1233"/>
  <unicode hex="00E4"/>
  <outline>
    <contour>
      <point x="480" y="1347" type="line" smooth="yes" name="dv03"/>
      <point x="460" y="1347"/>
      <point x="449" y="1360"/>
      <point x="453" y="1380" type="curve" smooth="yes" name="dv04"/>
      <point x="489" y="1566" type="line" smooth="yes"/>
      <point x="492" y="1584"/>
      <point x="502" y="1593"/>
      <point x="521" y="1593" type="curve" smooth="yes"/>
      <point x="698" y="1593" type="line" smooth="yes"/>
      <point x="716" y="1593" name="sv01"/>
      <point x="725" y="1585"/>
      <point x="725" y="1569" type="curve" smooth="yes"/>
      <point x="725" y="1565" name="sv02"/>
      <point x="725" y="1562"/>
      <point x="724" y="1560" type="curve" smooth="yes"/>
      <point x="687" y="1374" type="line" smooth="yes"/>
      <point x="684" y="1356"/>
      <point x="673" y="1347"/>
      <point x="655" y="1347" type="curve" smooth="yes" name="dv01"/>
    </contour>
    <contour>
      <point x="875" y="1347" type="line" smooth="yes"/>
      <point x="855" y="1347" name="dh01"/>
      <point x="844" y="1360"/>
      <point x="848" y="1380" type="curve" smooth="yes"/>
      <point x="884" y="1566" type="line" smooth="yes" name="dv06"/>
      <point x="887" y="1584"/>
      <point x="897" y="1593"/>
      <point x="916" y="1593" type="curve" smooth="yes"/>
      <point x="1094" y="1593" type="line" smooth="yes"/>
      <point x="1112" y="1593" name="sv03"/>
      <point x="1121" y="1585"/>
      <point x="1121" y="1569" type="curve" smooth="yes" name="ih01"/>
      <point x="1121" y="1565"/>
      <point x="1121" y="1562"/>
      <point x="1120" y="1560" type="curve" smooth="yes" name="at01"/>
      <point x="1083" y="1374" type="line" smooth="yes"/>
      <point x="1080" y="1356"/>
      <point x="1069" y="1347"/>
      <point x="1051" y="1347" type="curve" smooth="yes"/>
    </contour>
    <contour>
      <point x="379" y="-29" type="curve" smooth="yes" name="ab01"/>
      <point x="279" y="-29"/>
      <point x="195" y="-2" name="iv01"/>
      <point x="135" y="58" type="curve" smooth="yes" name="ab02"/>
      <point x="72" y="119"/>
      <point x="47" y="204" name="dv02"/>
      <point x="47" y="300" type="curve" smooth="yes"/>
      <point x="47" y="436" name="dv05"/>
      <point x="99" y="548"/>
      <point x="203" y="624" type="curve" smooth="yes"/>
      <point x="306" y="699" name="dh02"/>
      <point x="456" y="737"/>
      <point x="651" y="737" type="curve" smooth="yes"/>
      <point x="844" y="737" type="line"/>
      <point x="852" y="786" type="line" smooth="yes"/>
      <point x="853" y="793"/>
      <point x="854" y="797"/>
      <point x="854" y="798" type="curve"/>
      <point x="854" y="815" type="line" smooth="yes"/>
      <point x="854" y="853"/>
      <point x="837" y="882"/>
      <point x="803" y="902" type="curve" smooth="yes"/>
      <point x="769" y="922"/>
      <point x="720" y="932"/>
      <point x="657" y="932" type="curve" smooth="yes"/>
      <point x="600" y="932"/>
      <point x="538" y="923"/>
      <point x="470" y="904" type="curve" smooth="yes"/>
      <point x="403" y="885"/>
      <point x="335" y="859"/>
      <point x="248" y="819" type="curve"/>
      <point x="295" y="1069" type="line"/>
      <point x="372" y="1096"/>
      <point x="443" y="1115"/>
      <point x="509" y="1128" type="curve" smooth="yes"/>
      <point x="577" y="1141"/>
      <point x="637" y="1147"/>
      <point x="705" y="1147" type="curve" smooth="yes"/>
      <point x="844" y="1147"/>
      <point x="953" y="1122"/>
      <point x="1029" y="1071" type="curve" smooth="yes"/>
      <point x="1109" y="1018"/>
      <point x="1141" y="942"/>
      <point x="1141" y="845" type="curve" smooth="yes"/>
      <point x="1141" y="821"/>
      <point x="1139" y="793"/>
      <point x="1134" y="756" type="curve" smooth="yes"/>
      <point x="1129" y="717"/>
      <point x="1125" y="691"/>
      <point x="1114" y="639" type="curve"/>
      <point x="991" y="0" type="line"/>
      <point x="729" y="0" type="line"/>
      <point x="725" y="125" type="line"/>
      <point x="678" y="72"/>
      <point x="627" y="34"/>
      <point x="572" y="10" type="curve" smooth="yes"/>
      <point x="513" y="-17"/>
      <point x="447" y="-29"/>
    </contour>
    <contour>
      <point x="501" y="172" type="curve" smooth="yes"/>
      <point x="573" y="172"/>
      <point x="641" y="202"/>
      <point x="694" y="265" type="curve" smooth="yes"/>
      <point x="745" y="324"/>
      <point x="784" y="411"/>
      <point x="803" y="530" type="curve"/>
      <point x="690" y="530" type="line" smooth="yes"/>
      <point x="575" y="530"/>
      <point x="490" y="513"/>
      <point x="435" y="478" type="curve" smooth="yes"/>
      <point x="379" y="443"/>
      <point x="352" y="389"/>
      <point x="352" y="321" type="curve" smooth="yes"/>
      <point x="352" y="273"/>
      <point x="366" y="240"/>
      <point x="393" y="213" type="curve" smooth="yes"/>
      <point x="420" y="186"/>
      <point x="452" y="172"/>
    </contour>
  </outline>
</glyph>
<glyph name="iacute" format="1">
  <advance width="1233"/>
  <unicode hex="00ED"/>
  <outline>
    <contour>
      <point x="862" y="1648" type="line" name="av01"/>
      <point x="1183" y="1648" type="line"/>
      <point x="741" y="1272" type="line"/>
      <point x="544" y="1272" type="line" name="iv01"/>
    </contour>
    <contour>
      <point x="697" y="-8" type="line" smooth="yes" name="ab01"/>
      <point x="554" y="-8"/>
      <point x="464" y="10"/>
      <point x="407" y="49" type="curve"/>
      <point x="344" y="90"/>
      <point x="322" y="152" name="sv01"/>
      <point x="322" y="229" type="curve" smooth="yes"/>
      <point x="322" y="252" name="at01"/>
      <point x="324" y="269"/>
      <point x="327" y="292" type="curve" smooth="yes"/>
      <point x="330" y="316"/>
      <point x="334" y="342"/>
      <point x="341" y="371" type="curve" smooth="yes"/>
      <point x="461" y="895" type="line" name="sv02"/>
      <point x="225" y="895" type="line"/>
      <point x="268" y="1120" type="line"/>
      <point x="796" y="1120" type="line"/>
      <point x="630" y="357" type="line"/>
      <point x="622" y="325"/>
      <point x="627" y="331"/>
      <point x="624" y="321" type="curve" smooth="yes"/>
      <point x="621" y="310"/>
      <point x="621" y="303"/>
      <point x="621" y="295" type="curve" smooth="yes"/>
      <point x="621" y="272"/>
      <point x="629" y="251"/>
      <point x="652" y="236" type="curve" smooth="yes"/>
      <point x="673" y="223"/>
      <point x="709" y="217"/>
      <point x="761" y="217" type="curve" smooth="yes"/>
      <point x="1039" y="217" type="line"/>
      <point x="994" y="-8" type="line"/>
    </contour>
  </outline>
</glyph>
<glyph name="eth" format="1">
  <advance width="1233"/>
  <unicode hex="00F0"/>
  <outline>
    <contour>
      <point x="538" y="-29" type="curve" smooth="yes" name="dv01"/>
      <point x="389" y="-29"/>
      <point x="278" y="14" name="sh01"/>
      <point x="202" y="86" type="curve" smooth="yes"/>
      <point x="118" y="166" name="dv04"/>
      <point x="82" y="277"/>
      <point x="82" y="420" type="curve" smooth="yes" name="ih01"/>
      <point x="82" y="592"/>
      <point x="134" y="752"/>
      <point x="241" y="873" type="curve" smooth="yes"/>
      <point x="340" y="985"/>
      <point x="476" y="1053"/>
      <point x="651" y="1053" type="curve" smooth="yes" name="ih02"/>
      <point x="679" y="1053"/>
      <point x="704" y="1051" name="sh03"/>
      <point x="726" y="1047" type="curve" smooth="yes" name="at01"/>
      <point x="749" y="1043"/>
      <point x="769" y="1037"/>
      <point x="788" y="1028" type="curve"/>
      <point x="772" y="1067" name="sh02"/>
      <point x="768" y="1076"/>
      <point x="733" y="1145" type="curve" smooth="yes"/>
      <point x="702" y="1204" name="dv02"/>
      <point x="689" y="1228"/>
      <point x="678" y="1243" type="curve" name="ah02"/>
      <point x="348" y="1120" type="line" name="sh04"/>
      <point x="307" y="1235" type="line" name="sh05"/>
      <point x="614" y="1350" type="line"/>
      <point x="489" y="1556" type="line" name="dv03"/>
      <point x="768" y="1556" type="line"/>
      <point x="842" y="1436" type="line" name="sh06"/>
      <point x="1165" y="1554" type="line"/>
      <point x="1206" y="1442" type="line"/>
      <point x="903" y="1329" type="line" name="ah01"/>
      <point x="983" y="1208" name="sh07"/>
      <point x="1043" y="1091"/>
      <point x="1082" y="980" type="curve" smooth="yes"/>
      <point x="1121" y="872"/>
      <point x="1141" y="765"/>
      <point x="1141" y="646" type="curve" smooth="yes"/>
      <point x="1141" y="454"/>
      <point x="1086" y="283"/>
      <point x="977" y="158" type="curve" smooth="yes"/>
      <point x="873" y="38"/>
      <point x="726" y="-29"/>
    </contour>
    <contour>
      <point x="560" y="207" type="curve" smooth="yes"/>
      <point x="640" y="207"/>
      <point x="712" y="248"/>
      <point x="767" y="332" type="curve" smooth="yes"/>
      <point x="819" y="412"/>
      <point x="848" y="528"/>
      <point x="848" y="652" type="curve" smooth="yes"/>
      <point x="848" y="675"/>
      <point x="847" y="703"/>
      <point x="846" y="718" type="curve"/>
      <point x="838" y="778" type="line"/>
      <point x="813" y="793"/>
      <point x="783" y="802"/>
      <point x="759" y="809" type="curve" smooth="yes"/>
      <point x="732" y="816"/>
      <point x="700" y="819"/>
      <point x="676" y="819" type="curve" smooth="yes"/>
      <point x="585" y="819"/>
      <point x="512" y="778"/>
      <point x="460" y="710" type="curve" smooth="yes"/>
      <point x="403" y="634"/>
      <point x="375" y="534"/>
      <point x="375" y="437" type="curve" smooth="yes"/>
      <point x="375" y="357"/>
      <point x="393" y="303"/>
      <point x="424" y="267" type="curve" smooth="yes"/>
      <point x="453" y="232"/>
      <point x="499" y="207"/>
    </contour>
  </outline>
</glyph>
<glyph name="ntilde" format="1">
  <advance width="1233"/>
  <unicode hex="00F1"/>
  <outline>
    <contour>
      <point x="880" y="1297" type="curve" smooth="yes" name="sv02"/>
      <point x="853" y="1297"/>
      <point x="835" y="1301"/>
      <point x="812" y="1310" type="curve" smooth="yes"/>
      <point x="789" y="1319"/>
      <point x="766" y="1333"/>
      <point x="739" y="1354" type="curve" smooth="yes"/>
      <point x="690" y="1391" type="line" name="sv01"/>
      <point x="686" y="1395"/>
      <point x="688" y="1392"/>
      <point x="685" y="1395" type="curve" smooth="yes" name="av01"/>
      <point x="662" y="1412" name="av02"/>
      <point x="639" y="1428"/>
      <point x="612" y="1428" type="curve" smooth="yes"/>
      <point x="589" y="1428"/>
      <point x="569" y="1417"/>
      <point x="552" y="1394" type="curve" smooth="yes"/>
      <point x="535" y="1371" name="av03"/>
      <point x="523" y="1340" name="sh01"/>
      <point x="516" y="1299" type="curve"/>
      <point x="377" y="1299" type="line"/>
      <point x="390" y="1386" name="at01"/>
      <point x="419" y="1455"/>
      <point x="464" y="1506" type="curve" smooth="yes" name="iv01"/>
      <point x="509" y="1557"/>
      <point x="565" y="1583" name="at02"/>
      <point x="625" y="1583" type="curve" smooth="yes"/>
      <point x="648" y="1583" name="dh02"/>
      <point x="673" y="1579" name="sh02"/>
      <point x="692" y="1571" type="curve" smooth="yes"/>
      <point x="711" y="1563" name="ab01"/>
      <point x="737" y="1545"/>
      <point x="768" y="1522" type="curve" smooth="yes" name="sh03"/>
      <point x="819" y="1483" type="line" smooth="yes" name="sh04"/>
      <point x="832" y="1472" name="dh01"/>
      <point x="844" y="1465"/>
      <point x="856" y="1460" type="curve" smooth="yes" name="sv03"/>
      <point x="868" y="1455"/>
      <point x="878" y="1452"/>
      <point x="890" y="1452" type="curve" smooth="yes" name="ab02"/>
      <point x="917" y="1452"/>
      <point x="937" y="1465"/>
      <point x="953" y="1486" type="curve" smooth="yes" name="sh05"/>
      <point x="970" y="1508"/>
      <point x="982" y="1540"/>
      <point x="989" y="1581" type="curve"/>
      <point x="1128" y="1581" type="line"/>
      <point x="1113" y="1488"/>
      <point x="1085" y="1417"/>
      <point x="1043" y="1369" type="curve" smooth="yes"/>
      <point x="1001" y="1321"/>
      <point x="947" y="1297"/>
    </contour>
    <contour>
      <point x="276" y="1120" type="line"/>
      <point x="540" y="1120" type="line"/>
      <point x="537" y="952" type="line"/>
      <point x="570" y="1016"/>
      <point x="617" y="1064"/>
      <point x="669" y="1096" type="curve" smooth="yes"/>
      <point x="724" y="1130"/>
      <point x="786" y="1147"/>
      <point x="857" y="1147" type="curve" smooth="yes"/>
      <point x="938" y="1147"/>
      <point x="1004" y="1125"/>
      <point x="1051" y="1078" type="curve" smooth="yes"/>
      <point x="1095" y="1034"/>
      <point x="1120" y="969"/>
      <point x="1120" y="880" type="curve" smooth="yes"/>
      <point x="1120" y="861"/>
      <point x="1119" y="838"/>
      <point x="1116" y="813" type="curve"/>
      <point x="1113" y="797"/>
      <point x="1109" y="759"/>
      <point x="1102" y="728" type="curve"/>
      <point x="961" y="0" type="line"/>
      <point x="668" y="0" type="line"/>
      <point x="801" y="682" type="line"/>
      <point x="804" y="692"/>
      <point x="809" y="732"/>
      <point x="809" y="735" type="curve"/>
      <point x="810" y="752"/>
      <point x="811" y="771"/>
      <point x="811" y="784" type="curve" smooth="yes"/>
      <point x="811" y="823"/>
      <point x="803" y="854"/>
      <point x="782" y="877" type="curve" smooth="yes"/>
      <point x="763" y="897"/>
      <point x="735" y="907"/>
      <point x="699" y="907" type="curve" smooth="yes"/>
      <point x="644" y="907"/>
      <point x="597" y="883"/>
      <point x="558" y="835" type="curve" smooth="yes"/>
      <point x="518" y="786"/>
      <point x="490" y="718"/>
      <point x="473" y="629" type="curve" smooth="yes"/>
      <point x="352" y="0" type="line"/>
      <point x="59" y="0" type="line"/>
    </contour>
  </outline>
</glyph>
<glyph name="divide" format="1">
  <advance width="1233"/>
  <unicode hex="00F7"/>
  <outline>
    <contour>
      <point x="461" y="1198" type="line" name="dh01"/>
      <point x="770" y="1198" type="line" name="dh02"/>
      <point x="770" y="889" type="line" name="dv02"/>
      <point x="461" y="889" type="line"/>
    </contour>
    <contour>
      <point x="66" y="762" type="line"/>
      <point x="1165" y="762" type="line" name="dv04"/>
      <point x="1165" y="524" type="line" name="dv03"/>
      <point x="66" y="524" type="line"/>
    </contour>
    <contour>
      <point x="461" y="395" type="line" name="sh01"/>
      <point x="770" y="395" type="line" name="sh02"/>
      <point x="770" y="86" type="line" name="dv01"/>
      <point x="461" y="86" type="line"/>
    </contour>
  </outline>
</glyph>
<glyph name="thorn" format="1">
  <advance width="1233"/>
  <unicode hex="00FE"/>
  <outline>
    <contour>
      <point x="348" y="1556" type="line" name="at01"/>
      <point x="641" y="1556" type="line"/>
      <point x="524" y="952" type="line" name="ih01"/>
      <point x="571" y="1017"/>
      <point x="622" y="1066" name="at02"/>
      <point x="677" y="1099" type="curve" smooth="yes"/>
      <point x="729" y="1130" name="sh01"/>
      <point x="789" y="1147"/>
      <point x="854" y="1147" type="curve" smooth="yes"/>
      <point x="951" y="1147"/>
      <point x="1027" y="1111" name="dv01"/>
      <point x="1084" y="1038" type="curve" smooth="yes"/>
      <point x="1141" y="965" name="iv01"/>
      <point x="1169" y="867" name="ab01"/>
      <point x="1169" y="734" type="curve" smooth="yes"/>
      <point x="1169" y="654" name="dv02"/>
      <point x="1159" y="568"/>
      <point x="1138" y="480" type="curve" smooth="yes" name="dh02"/>
      <point x="1117" y="392"/>
      <point x="1086" y="311" name="sv01"/>
      <point x="1051" y="244" type="curve" smooth="yes"/>
      <point x="1005" y="158" name="dh01"/>
      <point x="947" y="91"/>
      <point x="877" y="43" type="curve" smooth="yes"/>
      <point x="807" y="-5"/>
      <point x="733" y="-29"/>
      <point x="654" y="-29" type="curve" smooth="yes"/>
      <point x="581" y="-29"/>
      <point x="520" y="-8"/>
      <point x="471" y="33" type="curve" smooth="yes"/>
      <point x="422" y="74"/>
      <point x="392" y="132"/>
      <point x="379" y="207" type="curve"/>
      <point x="256" y="-426" type="line"/>
      <point x="-37" y="-426" type="line"/>
    </contour>
    <contour>
      <point x="601" y="209" type="curve" smooth="yes"/>
      <point x="681" y="209"/>
      <point x="747" y="266"/>
      <point x="794" y="350" type="curve" smooth="yes"/>
      <point x="845" y="442"/>
      <point x="874" y="564"/>
      <point x="874" y="683" type="curve" smooth="yes"/>
      <point x="874" y="763"/>
      <point x="861" y="814"/>
      <point x="833" y="851" type="curve" smooth="yes"/>
      <point x="805" y="888"/>
      <point x="767" y="907"/>
      <point x="718" y="907" type="curve" smooth="yes"/>
      <point x="643" y="907"/>
      <point x="574" y="861"/>
      <point x="519" y="769" type="curve" smooth="yes"/>
      <point x="466" y="678"/>
      <point x="436" y="560"/>
      <point x="436" y="444" type="curve" smooth="yes"/>
      <point x="436" y="371"/>
      <point x="448" y="312"/>
      <point x="480" y="269" type="curve" smooth="yes"/>
      <point x="508" y="232"/>
      <point x="550" y="209"/>
    </contour>
  </outline>
</glyph>
<glyph name="Abreve" format="1">
  <advance width="1233"/>
  <unicode hex="0102"/>
  <outline>
    <contour>
      <point x="796" y="1588" type="curve" name="dv01" smooth="yes"/>
      <point x="607" y="1588"/>
      <point x="508" y="1680"/>
      <point x="508" y="1848" type="curve" name="sv01" smooth="yes"/>
      <point x="508" y="1852" type="line" name="dv02"/>
      <point x="651" y="1852" type="line" name="sv02"/>
      <point x="662" y="1780"/>
      <point x="711" y="1737"/>
      <point x="816" y="1737" type="curve" name="at01" smooth="yes"/>
      <point x="920" y="1737"/>
      <point x="989" y="1777" name="ab01"/>
      <point x="1022" y="1852" type="curve"/>
      <point x="1176" y="1852" type="line" name="dv03"/>
      <point x="1123" y="1676"/>
      <point x="977" y="1588" name="ab02"/>
    </contour>
    <contour>
      <point x="582" y="1493" type="line"/>
      <point x="942" y="1493" type="line" name="dv04"/>
      <point x="1055" y="0" type="line"/>
      <point x="762" y="0" type="line"/>
      <point x="748" y="369" type="line"/>
      <point x="348" y="369" type="line"/>
      <point x="186" y="0" type="line"/>
      <point x="-113" y="0" type="line"/>
    </contour>
    <contour>
      <point x="737" y="612" type="line"/>
      <point x="717" y="1219" type="line"/>
      <point x="453" y="612" type="line"/>
    </contour>
  </outline>
</glyph>
<glyph name="abreve" format="1">
  <advance width="1233"/>
  <unicode hex="0103"/>
  <outline>
    <contour>
      <point x="736" y="1297" type="curve" name="dv01" smooth="yes"/>
      <point x="545" y="1297"/>
      <point x="446" y="1382" name="dh03"/>
      <point x="446" y="1561" type="curve" name="sv01" smooth="yes"/>
      <point x="446" y="1594" type="line" name="dh04"/>
      <point x="590" y="1594" type="line" name="dv02"/>
      <point x="590" y="1581" type="line" name="sv02" smooth="yes"/>
      <point x="590" y="1500"/>
      <point x="652" y="1448"/>
      <point x="756" y="1448" type="curve" name="sv04" smooth="yes"/>
      <point x="861" y="1448" name="dh01"/>
      <point x="944" y="1502"/>
      <point x="977" y="1594" type="curve" name="dv04"/>
      <point x="1120" y="1594" type="line"/>
      <point x="1081" y="1409" name="dh05"/>
      <point x="952" y="1297" name="sv05"/>
    </contour>
    <contour>
      <point x="381" y="-29" type="curve" name="ih01" smooth="yes"/>
      <point x="174" y="-29"/>
      <point x="47" y="90" name="at01"/>
      <point x="47" y="302" type="curve" name="dh06" smooth="yes"/>
      <point x="47" y="578"/>
      <point x="260" y="737" name="ab01"/>
      <point x="651" y="737" type="curve" smooth="yes"/>
      <point x="844" y="737" type="line" name="ih02"/>
      <point x="852" y="786" type="line" smooth="yes"/>
      <point x="853" y="794" name="sv03"/>
      <point x="854" y="800" name="dv03"/>
      <point x="854" y="811" type="curve" smooth="yes"/>
      <point x="854" y="891" name="dh02"/>
      <point x="785" y="932"/>
      <point x="661" y="932" type="curve" smooth="yes"/>
      <point x="544" y="932" name="sh01"/>
      <point x="411" y="896"/>
      <point x="248" y="819" type="curve"/>
      <point x="295" y="1069" type="line"/>
      <point x="463" y="1125"/>
      <point x="583" y="1147"/>
      <point x="709" y="1147" type="curve" smooth="yes"/>
      <point x="988" y="1147"/>
      <point x="1141" y="1045"/>
      <point x="1141" y="845" type="curve" smooth="yes"/>
      <point x="1141" y="792"/>
      <point x="1130" y="722"/>
      <point x="1114" y="639" type="curve" smooth="yes"/>
      <point x="991" y="0" type="line"/>
      <point x="729" y="0" type="line"/>
      <point x="725" y="125" type="line"/>
      <point x="636" y="21"/>
      <point x="517" y="-29"/>
    </contour>
    <contour>
      <point x="504" y="172" type="curve" smooth="yes"/>
      <point x="649" y="172"/>
      <point x="766" y="303"/>
      <point x="803" y="530" type="curve"/>
      <point x="690" y="530" type="line" smooth="yes"/>
      <point x="466" y="530"/>
      <point x="352" y="462"/>
      <point x="352" y="325" type="curve" smooth="yes"/>
      <point x="352" y="229"/>
      <point x="408" y="172"/>
    </contour>
  </outline>
</glyph>
<glyph name="Cdotaccent" format="1">
  <advance width="1233"/>
  <unicode hex="010A"/>
  <outline>
    <contour>
      <point x="763" y="1607" type="line" smooth="yes" name="dv03"/>
      <point x="742" y="1607"/>
      <point x="732" y="1620"/>
      <point x="736" y="1640" type="curve" smooth="yes" name="dv04"/>
      <point x="773" y="1826" type="line" smooth="yes"/>
      <point x="776" y="1844"/>
      <point x="786" y="1853"/>
      <point x="805" y="1853" type="curve" smooth="yes"/>
      <point x="1020" y="1853" type="line" smooth="yes" name="dv01"/>
      <point x="1041" y="1853" name="dh01"/>
      <point x="1051" y="1840"/>
      <point x="1047" y="1820" type="curve" smooth="yes" name="at01"/>
      <point x="1010" y="1634" type="line" smooth="yes"/>
      <point x="1007" y="1616"/>
      <point x="996" y="1607" name="sv01"/>
      <point x="978" y="1607" type="curve" smooth="yes"/>
    </contour>
    <contour>
      <point x="596" y="-29" type="curve" smooth="yes" name="dh02"/>
      <point x="279" y="-29" name="dv02"/>
      <point x="106" y="151"/>
      <point x="106" y="522" type="curve" smooth="yes"/>
      <point x="106" y="805"/>
      <point x="208" y="1112"/>
      <point x="368" y="1296" type="curve" smooth="yes"/>
      <point x="497" y="1444"/>
      <point x="673" y="1520"/>
      <point x="876" y="1520" type="curve" smooth="yes"/>
      <point x="989" y="1520"/>
      <point x="1090" y="1496"/>
      <point x="1194" y="1448" type="curve"/>
      <point x="1130" y="1120" type="line"/>
      <point x="1065" y="1209"/>
      <point x="961" y="1257"/>
      <point x="857" y="1257" type="curve" smooth="yes"/>
      <point x="732" y="1257"/>
      <point x="632" y="1188"/>
      <point x="559" y="1075" type="curve" smooth="yes"/>
      <point x="469" y="937"/>
      <point x="405" y="711"/>
      <point x="405" y="536" type="curve" smooth="yes"/>
      <point x="405" y="332"/>
      <point x="491" y="231"/>
      <point x="652" y="231" type="curve" smooth="yes"/>
      <point x="756" y="231"/>
      <point x="860" y="274"/>
      <point x="985" y="371" type="curve"/>
      <point x="921" y="43" type="line"/>
      <point x="817" y="-5"/>
      <point x="713" y="-29"/>
    </contour>
  </outline>
</glyph>
<glyph name="Dcaron" format="1">
  <advance width="1233"/>
  <unicode hex="010E"/>
  <outline>
    <contour>
      <point x="383" y="1853" type="line" name="sv01"/>
      <point x="553" y="1853" type="line"/>
      <point x="702" y="1691" type="line"/>
      <point x="931" y="1853" type="line" name="dv02"/>
      <point x="1112" y="1853" type="line" name="ih01"/>
      <point x="868" y="1589" type="line" name="dv01"/>
      <point x="520" y="1589" type="line"/>
    </contour>
    <contour>
      <point x="283" y="1493" type="line" name="at01"/>
      <point x="598" y="1493" type="line" smooth="yes"/>
      <point x="981" y="1493" name="dh02"/>
      <point x="1165" y="1330"/>
      <point x="1165" y="994" type="curve" smooth="yes"/>
      <point x="1165" y="889" name="ab01"/>
      <point x="1147" y="751"/>
      <point x="1110" y="602" type="curve" smooth="yes" name="sv02"/>
      <point x="1056" y="385"/>
      <point x="990" y="262" name="dh01"/>
      <point x="897" y="172" type="curve" smooth="yes" name="sv03"/>
      <point x="772" y="50"/>
      <point x="613" y="0"/>
      <point x="322" y="0" type="curve" smooth="yes"/>
      <point x="-8" y="0" type="line" name="sh01"/>
    </contour>
    <contour>
      <point x="434" y="266" type="line" smooth="yes"/>
      <point x="587" y="266"/>
      <point x="682" y="323"/>
      <point x="743" y="442" type="curve" smooth="yes"/>
      <point x="807" y="564"/>
      <point x="860" y="800"/>
      <point x="860" y="956" type="curve" smooth="yes"/>
      <point x="860" y="1143"/>
      <point x="783" y="1227"/>
      <point x="606" y="1227" type="curve" smooth="yes"/>
      <point x="524" y="1227" type="line"/>
      <point x="338" y="266" type="line"/>
    </contour>
  </outline>
</glyph>
<glyph name="dcaron" format="1">
  <advance width="1233"/>
  <unicode hex="010F"/>
  <outline>
    <contour>
      <point x="382" y="-29" type="curve" name="sv02" smooth="yes"/>
      <point x="187" y="-29" name="dh01"/>
      <point x="66" y="122"/>
      <point x="66" y="393" type="curve" name="dv02" smooth="yes"/>
      <point x="66" y="564" name="iv01"/>
      <point x="115" y="744" name="at01"/>
      <point x="185" y="873" type="curve" smooth="yes"/>
      <point x="282" y="1054" name="ab01"/>
      <point x="423" y="1149"/>
      <point x="579" y="1149" type="curve" name="sh01" smooth="yes"/>
      <point x="733" y="1149"/>
      <point x="835" y="1054" name="at02"/>
      <point x="854" y="911" type="curve"/>
      <point x="979" y="1556" type="line" name="sv03"/>
      <point x="1272" y="1556" type="line"/>
      <point x="969" y="0" type="line" name="sv01"/>
      <point x="707" y="0" type="line" name="sh02"/>
      <point x="709" y="166" type="line" name="dv01"/>
      <point x="621" y="37" name="dh02"/>
      <point x="511" y="-29"/>
    </contour>
    <contour>
      <point x="1333" y="1556" type="line"/>
      <point x="1654" y="1556" type="line"/>
      <point x="1397" y="1180" type="line"/>
      <point x="1200" y="1180" type="line"/>
    </contour>
    <contour>
      <point x="513" y="211" type="curve" smooth="yes"/>
      <point x="681" y="211"/>
      <point x="799" y="445"/>
      <point x="799" y="667" type="curve" smooth="yes"/>
      <point x="799" y="831"/>
      <point x="734" y="909"/>
      <point x="639" y="909" type="curve" smooth="yes"/>
      <point x="471" y="909"/>
      <point x="362" y="663"/>
      <point x="362" y="443" type="curve" smooth="yes"/>
      <point x="362" y="282"/>
      <point x="421" y="211"/>
    </contour>
  </outline>
</glyph>
<glyph name="dcroat" format="1">
  <advance width="1233"/>
  <unicode hex="0111"/>
  <outline>
    <contour>
      <point x="382" y="-29" type="curve" smooth="yes" name="dv01"/>
      <point x="286" y="-29"/>
      <point x="209" y="8" name="dh01"/>
      <point x="152" y="81" type="curve" smooth="yes"/>
      <point x="95" y="154"/>
      <point x="66" y="251"/>
      <point x="66" y="386" type="curve" smooth="yes" name="dv04"/>
      <point x="66" y="466"/>
      <point x="76" y="552"/>
      <point x="97" y="639" type="curve" smooth="yes" name="sv01"/>
      <point x="118" y="726"/>
      <point x="151" y="811"/>
      <point x="184" y="874" type="curve" smooth="yes" name="sv02"/>
      <point x="227" y="955" name="at01"/>
      <point x="286" y="1025"/>
      <point x="358" y="1076" type="curve" smooth="yes" name="sv03"/>
      <point x="427" y="1125"/>
      <point x="502" y="1149" name="sv04"/>
      <point x="581" y="1149" type="curve" smooth="yes" name="sv05"/>
      <point x="655" y="1149" name="ab01"/>
      <point x="717" y="1128"/>
      <point x="766" y="1086" type="curve" smooth="yes" name="ih01"/>
      <point x="811" y="1047"/>
      <point x="843" y="988"/>
      <point x="854" y="911" type="curve" name="dv02"/>
      <point x="920" y="1251" type="line"/>
      <point x="616" y="1251" type="line" name="sh01"/>
      <point x="653" y="1440" type="line"/>
      <point x="956" y="1440" type="line" name="dv03"/>
      <point x="979" y="1556" type="line"/>
      <point x="1272" y="1556" type="line" name="dh02"/>
      <point x="1249" y="1440" type="line"/>
      <point x="1395" y="1440" type="line"/>
      <point x="1358" y="1251" type="line"/>
      <point x="1212" y="1251" type="line"/>
      <point x="969" y="0" type="line"/>
      <point x="707" y="0" type="line"/>
      <point x="709" y="166" type="line"/>
      <point x="665" y="102"/>
      <point x="616" y="54"/>
      <point x="561" y="21" type="curve" smooth="yes"/>
      <point x="506" y="-12"/>
      <point x="446" y="-29"/>
    </contour>
    <contour>
      <point x="517" y="211" type="curve" smooth="yes"/>
      <point x="593" y="211"/>
      <point x="660" y="257"/>
      <point x="716" y="350" type="curve" smooth="yes"/>
      <point x="772" y="443"/>
      <point x="799" y="557"/>
      <point x="799" y="674" type="curve" smooth="yes"/>
      <point x="799" y="762"/>
      <point x="783" y="811"/>
      <point x="754" y="850" type="curve" smooth="yes"/>
      <point x="724" y="889"/>
      <point x="684" y="909"/>
      <point x="634" y="909" type="curve" smooth="yes"/>
      <point x="559" y="909"/>
      <point x="495" y="862"/>
      <point x="442" y="768" type="curve" smooth="yes"/>
      <point x="389" y="672"/>
      <point x="362" y="553"/>
      <point x="362" y="436" type="curve" smooth="yes"/>
      <point x="362" y="351"/>
      <point x="376" y="304"/>
      <point x="404" y="267" type="curve" smooth="yes"/>
      <point x="432" y="230"/>
      <point x="470" y="211"/>
    </contour>
  </outline>
</glyph>
<glyph name="edotaccent" format="1">
  <advance width="1233"/>
  <unicode hex="0117"/>
  <outline>
    <contour>
      <point x="636" y="1349" type="line" name="dv03" smooth="yes"/>
      <point x="615" y="1349"/>
      <point x="606" y="1362"/>
      <point x="610" y="1382" type="curve" name="dv04" smooth="yes"/>
      <point x="647" y="1568" type="line" name="sh01" smooth="yes"/>
      <point x="650" y="1586"/>
      <point x="660" y="1595" name="sh02"/>
      <point x="679" y="1595" type="curve" smooth="yes"/>
      <point x="891" y="1595" type="line" name="dv01" smooth="yes"/>
      <point x="911" y="1595" name="sh03"/>
      <point x="922" y="1582"/>
      <point x="918" y="1562" type="curve" name="dv07" smooth="yes"/>
      <point x="882" y="1376" type="line" name="sh04" smooth="yes"/>
      <point x="879" y="1358" name="dv05"/>
      <point x="868" y="1349" name="sh06"/>
      <point x="850" y="1349" type="curve" name="sh05" smooth="yes"/>
    </contour>
    <contour>
      <point x="586" y="-29" type="curve" name="dv02" smooth="yes"/>
      <point x="249" y="-29" name="ih01"/>
      <point x="76" y="127"/>
      <point x="76" y="440" type="curve" smooth="yes"/>
      <point x="76" y="621" name="sh07"/>
      <point x="135" y="805" name="ah02"/>
      <point x="244" y="938" type="curve" name="dv06" smooth="yes"/>
      <point x="357" y="1075"/>
      <point x="513" y="1149" name="ah01"/>
      <point x="696" y="1149" type="curve" name="sh08" smooth="yes"/>
      <point x="972" y="1149"/>
      <point x="1155" y="975"/>
      <point x="1155" y="708" type="curve" smooth="yes"/>
      <point x="1155" y="652"/>
      <point x="1147" y="577"/>
      <point x="1128" y="465" type="curve"/>
      <point x="369" y="465" type="line"/>
      <point x="365" y="442"/>
      <point x="363" y="423"/>
      <point x="362" y="403" type="curve"/>
      <point x="362" y="270"/>
      <point x="451" y="203"/>
      <point x="630" y="203" type="curve" smooth="yes"/>
      <point x="771" y="203"/>
      <point x="919" y="244"/>
      <point x="1044" y="324" type="curve"/>
      <point x="993" y="55" type="line"/>
      <point x="865" y="-1"/>
      <point x="727" y="-29"/>
    </contour>
    <contour>
      <point x="876" y="684" type="line"/>
      <point x="881" y="702"/>
      <point x="883" y="720"/>
      <point x="883" y="739" type="curve" smooth="yes"/>
      <point x="883" y="851"/>
      <point x="812" y="920"/>
      <point x="689" y="920" type="curve" smooth="yes"/>
      <point x="560" y="920"/>
      <point x="463" y="841"/>
      <point x="410" y="684" type="curve"/>
    </contour>
  </outline>
</glyph>
<glyph name="eogonek" format="1">
  <advance width="1233"/>
  <unicode hex="0119"/>
  <outline>
    <contour>
      <point x="369" y="465" type="line" name="dv07"/>
      <point x="365" y="442" name="dh02"/>
      <point x="363" y="423" name="dv06"/>
      <point x="362" y="403" type="curve" name="ih01"/>
      <point x="362" y="270"/>
      <point x="451" y="203"/>
      <point x="630" y="203" type="curve" smooth="yes"/>
      <point x="771" y="203" name="dh04"/>
      <point x="919" y="244" name="dv02"/>
      <point x="1044" y="324" type="curve" name="ih02"/>
      <point x="993" y="55" type="line"/>
      <point x="940" y="32" name="dv01"/>
      <point x="885" y="13" name="dh03"/>
      <point x="829" y="0" type="curve" name="ih03"/>
      <point x="779" y="-53" name="dv05"/>
      <point x="746" y="-92" name="dh01"/>
      <point x="730" y="-117" type="curve" smooth="yes"/>
      <point x="714" y="-142" name="dv04"/>
      <point x="706" y="-162" name="dh06"/>
      <point x="706" y="-182" type="curve" smooth="yes"/>
      <point x="706" y="-221" name="dv03"/>
      <point x="737" y="-254" name="ih04"/>
      <point x="806" y="-254" type="curve" smooth="yes"/>
      <point x="842" y="-254" name="dh05"/>
      <point x="899" y="-246"/>
      <point x="962" y="-223" type="curve"/>
      <point x="931" y="-379" type="line" name="sh01"/>
      <point x="866" y="-394"/>
      <point x="803" y="-401"/>
      <point x="752" y="-401" type="curve" smooth="yes"/>
      <point x="615" y="-401"/>
      <point x="532" y="-350"/>
      <point x="532" y="-255" type="curve" smooth="yes"/>
      <point x="532" y="-190"/>
      <point x="571" y="-111"/>
      <point x="659" y="-26" type="curve"/>
      <point x="635" y="-28"/>
      <point x="611" y="-29"/>
      <point x="586" y="-29" type="curve" smooth="yes"/>
      <point x="249" y="-29"/>
      <point x="76" y="127"/>
      <point x="76" y="440" type="curve" smooth="yes"/>
      <point x="76" y="621"/>
      <point x="135" y="805"/>
      <point x="244" y="938" type="curve" smooth="yes"/>
      <point x="357" y="1075"/>
      <point x="513" y="1149"/>
      <point x="696" y="1149" type="curve" smooth="yes"/>
      <point x="972" y="1149"/>
      <point x="1155" y="975"/>
      <point x="1155" y="708" type="curve" smooth="yes"/>
      <point x="1155" y="652"/>
      <point x="1147" y="577"/>
      <point x="1128" y="465" type="curve"/>
    </contour>
    <contour>
      <point x="689" y="920" type="curve" smooth="yes"/>
      <point x="560" y="920"/>
      <point x="463" y="841"/>
      <point x="410" y="684" type="curve"/>
      <point x="876" y="684" type="line"/>
      <point x="881" y="702"/>
      <point x="883" y="720"/>
      <point x="883" y="739" type="curve" smooth="yes"/>
      <point x="883" y="851"/>
      <point x="812" y="920"/>
    </contour>
  </outline>
</glyph>
<glyph name="ecaron" format="1">
  <advance width="1233"/>
  <unicode hex="011B"/>
  <outline>
    <contour>
      <point x="410" y="1673" type="line" name="ih01"/>
      <point x="584" y="1673" type="line"/>
      <point x="737" y="1446" type="line"/>
      <point x="975" y="1673" type="line" name="av01"/>
      <point x="1165" y="1673" type="line" name="sh03"/>
      <point x="834" y="1297" type="line"/>
      <point x="592" y="1297" type="line"/>
    </contour>
    <contour>
      <point x="586" y="-29" type="curve" smooth="yes" name="dv01"/>
      <point x="249" y="-29" name="sh01"/>
      <point x="76" y="127"/>
      <point x="76" y="440" type="curve" smooth="yes" name="dv05"/>
      <point x="76" y="621" name="sh02"/>
      <point x="135" y="805" name="dv03"/>
      <point x="244" y="938" type="curve" smooth="yes" name="sh05"/>
      <point x="357" y="1075" name="sh04"/>
      <point x="513" y="1149" name="dv02"/>
      <point x="696" y="1149" type="curve" smooth="yes" name="ih02"/>
      <point x="972" y="1149"/>
      <point x="1155" y="975"/>
      <point x="1155" y="708" type="curve" smooth="yes" name="sh06"/>
      <point x="1155" y="652" name="ah02"/>
      <point x="1147" y="577" name="dv04"/>
      <point x="1128" y="465" type="curve"/>
      <point x="369" y="465" type="line" name="ah01"/>
      <point x="365" y="442" name="sh07"/>
      <point x="363" y="423"/>
      <point x="362" y="403" type="curve"/>
      <point x="362" y="270"/>
      <point x="451" y="203"/>
      <point x="630" y="203" type="curve" smooth="yes"/>
      <point x="771" y="203"/>
      <point x="919" y="244"/>
      <point x="1044" y="324" type="curve"/>
      <point x="993" y="55" type="line"/>
      <point x="865" y="-1"/>
      <point x="727" y="-29"/>
    </contour>
    <contour>
      <point x="876" y="684" type="line"/>
      <point x="881" y="702"/>
      <point x="883" y="720"/>
      <point x="883" y="739" type="curve" smooth="yes"/>
      <point x="883" y="851"/>
      <point x="812" y="920"/>
      <point x="689" y="920" type="curve" smooth="yes"/>
      <point x="560" y="920"/>
      <point x="463" y="841"/>
      <point x="410" y="684" type="curve"/>
    </contour>
  </outline>
</glyph>
<glyph name="gdotaccent" format="1">
  <advance width="1233"/>
  <unicode hex="0121"/>
  <outline>
    <contour>
      <point x="647" y="1351" type="line" smooth="yes" name="dv01"/>
      <point x="626" y="1351"/>
      <point x="617" y="1364"/>
      <point x="621" y="1384" type="curve" smooth="yes" name="dv02"/>
      <point x="658" y="1570" type="line" smooth="yes"/>
      <point x="661" y="1588"/>
      <point x="671" y="1597"/>
      <point x="690" y="1597" type="curve" smooth="yes"/>
      <point x="902" y="1597" type="line" smooth="yes" name="ab01"/>
      <point x="922" y="1597"/>
      <point x="933" y="1584" name="ih01"/>
      <point x="929" y="1564" type="curve" smooth="yes" name="sv01"/>
      <point x="893" y="1378" type="line" smooth="yes"/>
      <point x="890" y="1360" name="ih02"/>
      <point x="879" y="1351" name="dv03"/>
      <point x="861" y="1351" type="curve" smooth="yes" name="dh01"/>
    </contour>
    <contour>
      <point x="389" y="-424" type="curve" smooth="yes"/>
      <point x="252" y="-424" name="dv06"/>
      <point x="135" y="-404" name="iv01"/>
      <point x="18" y="-365" type="curve" name="at01"/>
      <point x="72" y="-100" type="line"/>
      <point x="172" y="-160"/>
      <point x="284" y="-190"/>
      <point x="395" y="-190" type="curve" smooth="yes" name="dv04"/>
      <point x="571" y="-190" name="sh01"/>
      <point x="656" y="-113" name="dv05"/>
      <point x="688" y="51" type="curve" smooth="yes" name="dh02"/>
      <point x="715" y="184" type="line"/>
      <point x="640" y="69"/>
      <point x="536" y="16"/>
      <point x="409" y="16" type="curve" smooth="yes"/>
      <point x="201" y="16"/>
      <point x="68" y="161"/>
      <point x="68" y="412" type="curve" smooth="yes"/>
      <point x="68" y="584"/>
      <point x="132" y="796"/>
      <point x="225" y="932" type="curve" smooth="yes"/>
      <point x="321" y="1071"/>
      <point x="459" y="1151"/>
      <point x="603" y="1151" type="curve" smooth="yes"/>
      <point x="742" y="1151"/>
      <point x="834" y="1075"/>
      <point x="862" y="938" type="curve"/>
      <point x="926" y="1120" type="line"/>
      <point x="1190" y="1120" type="line"/>
      <point x="987" y="84" type="line" smooth="yes"/>
      <point x="915" y="-285"/>
      <point x="749" y="-424"/>
    </contour>
    <contour>
      <point x="516" y="246" type="curve" smooth="yes"/>
      <point x="675" y="246"/>
      <point x="803" y="457"/>
      <point x="803" y="684" type="curve" smooth="yes"/>
      <point x="803" y="837"/>
      <point x="745" y="909"/>
      <point x="653" y="909" type="curve" smooth="yes"/>
      <point x="496" y="909"/>
      <point x="367" y="702"/>
      <point x="367" y="471" type="curve" smooth="yes"/>
      <point x="367" y="318"/>
      <point x="423" y="246"/>
    </contour>
  </outline>
</glyph>
<glyph name="Itilde" format="1">
  <advance width="1233"/>
  <unicode hex="0128"/>
  <outline>
    <contour>
      <point x="428" y="1588" type="line" name="sv01"/>
      <point x="461" y="1761" name="dv02"/>
      <point x="553" y="1854"/>
      <point x="680" y="1854" type="curve" smooth="yes"/>
      <point x="731" y="1854" name="dv04"/>
      <point x="770" y="1839" name="sv02"/>
      <point x="817" y="1803" type="curve" smooth="yes"/>
      <point x="870" y="1762" type="line" name="dv03"/>
      <point x="891" y="1744"/>
      <point x="915" y="1735"/>
      <point x="940" y="1735" type="curve" name="dv01" smooth="yes"/>
      <point x="989" y="1735"/>
      <point x="1025" y="1777" name="sv03"/>
      <point x="1040" y="1854" type="curve"/>
      <point x="1177" y="1854" type="line" name="sv04"/>
      <point x="1142" y="1689"/>
      <point x="1058" y="1588" name="at01"/>
      <point x="925" y="1588" type="curve" smooth="yes"/>
      <point x="878" y="1588" name="sv05"/>
      <point x="839" y="1600" name="sv06"/>
      <point x="788" y="1639" type="curve" name="sv07" smooth="yes"/>
      <point x="739" y="1676" type="line" name="sv08" smooth="yes"/>
      <point x="706" y="1701" name="ab01"/>
      <point x="686" y="1708"/>
      <point x="666" y="1708" type="curve" smooth="yes"/>
      <point x="615" y="1708"/>
      <point x="580" y="1667"/>
      <point x="565" y="1588" type="curve"/>
    </contour>
    <contour>
      <point x="78" y="260" type="line"/>
      <point x="375" y="260" type="line"/>
      <point x="563" y="1233" type="line"/>
      <point x="266" y="1233" type="line"/>
      <point x="317" y="1493" type="line"/>
      <point x="1206" y="1493" type="line"/>
      <point x="1155" y="1233" type="line"/>
      <point x="858" y="1233" type="line"/>
      <point x="670" y="260" type="line"/>
      <point x="967" y="260" type="line"/>
      <point x="915" y="0" type="line"/>
      <point x="27" y="0" type="line"/>
    </contour>
  </outline>
</glyph>
<glyph name="imacron" format="1">
  <advance width="1233"/>
  <unicode hex="012B"/>
  <outline>
    <contour>
      <point x="367" y="1508" type="line" name="at01"/>
      <point x="998" y="1508" type="line"/>
      <point x="961" y="1320" type="line" name="sv01"/>
      <point x="330" y="1320" type="line"/>
    </contour>
    <contour>
      <point x="717" y="-8" type="line" smooth="yes" name="ab01"/>
      <point x="574" y="-8"/>
      <point x="484" y="10"/>
      <point x="427" y="49" type="curve"/>
      <point x="364" y="90"/>
      <point x="342" y="152" name="sv02"/>
      <point x="342" y="229" type="curve" smooth="yes"/>
      <point x="342" y="252" name="at02"/>
      <point x="344" y="269"/>
      <point x="347" y="292" type="curve" smooth="yes"/>
      <point x="351" y="323"/>
      <point x="354" y="340"/>
      <point x="361" y="371" type="curve" smooth="yes"/>
      <point x="481" y="895" type="line" name="sv03"/>
      <point x="245" y="895" type="line"/>
      <point x="288" y="1120" type="line"/>
      <point x="816" y="1120" type="line"/>
      <point x="650" y="357" type="line"/>
      <point x="642" y="325"/>
      <point x="647" y="333"/>
      <point x="644" y="321" type="curve" smooth="yes"/>
      <point x="641" y="310"/>
      <point x="641" y="303"/>
      <point x="641" y="295" type="curve" smooth="yes"/>
      <point x="641" y="272"/>
      <point x="649" y="251"/>
      <point x="672" y="236" type="curve" smooth="yes"/>
      <point x="693" y="223"/>
      <point x="729" y="217"/>
      <point x="781" y="217" type="curve" smooth="yes"/>
      <point x="1059" y="217" type="line"/>
      <point x="1014" y="-8" type="line"/>
    </contour>
  </outline>
</glyph>
<glyph name="Idotaccent" format="1">
  <advance width="1233"/>
  <unicode hex="0130"/>
  <outline>
    <contour>
      <point x="674" y="1607" type="line" smooth="yes" name="dv01"/>
      <point x="654" y="1607"/>
      <point x="643" y="1620"/>
      <point x="647" y="1640" type="curve" smooth="yes" name="dv02"/>
      <point x="683" y="1826" type="line" smooth="yes"/>
      <point x="686" y="1844"/>
      <point x="696" y="1853"/>
      <point x="715" y="1853" type="curve" smooth="yes"/>
      <point x="929" y="1853" type="line" smooth="yes" name="sv01"/>
      <point x="949" y="1853"/>
      <point x="960" y="1840" name="sv02"/>
      <point x="956" y="1820" type="curve" smooth="yes"/>
      <point x="920" y="1634" type="line" smooth="yes" name="at01"/>
      <point x="917" y="1616"/>
      <point x="906" y="1607" name="sv03"/>
      <point x="888" y="1607" type="curve" smooth="yes" name="sv04"/>
    </contour>
    <contour>
      <point x="78" y="260" type="line" name="sv05"/>
      <point x="375" y="260" type="line" name="sv06"/>
      <point x="563" y="1233" type="line" name="ab01"/>
      <point x="266" y="1233" type="line"/>
      <point x="317" y="1493" type="line"/>
      <point x="1206" y="1493" type="line"/>
      <point x="1155" y="1233" type="line"/>
      <point x="858" y="1233" type="line"/>
      <point x="670" y="260" type="line"/>
      <point x="967" y="260" type="line"/>
      <point x="915" y="0" type="line"/>
      <point x="27" y="0" type="line"/>
    </contour>
  </outline>
</glyph>
<glyph name="uni0146" format="1">
  <advance width="1233"/>
  <unicode hex="0146"/>
  <outline>
    <contour>
      <point x="276" y="1120" type="line" name="at01"/>
      <point x="540" y="1120" type="line"/>
      <point x="537" y="952" type="line" name="dh01"/>
      <point x="601" y="1073" name="at02"/>
      <point x="713" y="1147" name="sh01"/>
      <point x="858" y="1147" type="curve" smooth="yes"/>
      <point x="1023" y="1147" name="ab01"/>
      <point x="1120" y="1051"/>
      <point x="1120" y="882" type="curve" smooth="yes"/>
      <point x="1120" y="839" name="dh02"/>
      <point x="1114" y="792" name="sv01"/>
      <point x="1102" y="728" type="curve" smooth="yes"/>
      <point x="961" y="0" type="line" name="ab02"/>
      <point x="668" y="0" type="line"/>
      <point x="801" y="682" type="line" smooth="yes" name="dv02"/>
      <point x="808" y="717" name="ih01"/>
      <point x="811" y="756" name="dv01"/>
      <point x="811" y="780" type="curve" smooth="yes"/>
      <point x="811" y="868"/>
      <point x="772" y="907"/>
      <point x="700" y="907" type="curve" smooth="yes"/>
      <point x="587" y="907"/>
      <point x="508" y="809"/>
      <point x="473" y="629" type="curve" smooth="yes"/>
      <point x="352" y="0" type="line"/>
      <point x="59" y="0" type="line"/>
    </contour>
    <contour>
      <point x="390" y="-158" type="line"/>
      <point x="672" y="-158" type="line"/>
      <point x="436" y="-464" type="line"/>
      <point x="242" y="-464" type="line"/>
    </contour>
  </outline>
</glyph>
<glyph name="Eng" format="1">
  <advance width="1233"/>
  <unicode hex="014A"/>
  <outline>
    <contour>
      <point x="447" y="-199" type="line" name="sv01"/>
      <point x="484" y="-199" type="line" smooth="yes"/>
      <point x="617" y="-199"/>
      <point x="678" y="-133"/>
      <point x="713" y="44" type="curve" smooth="yes" name="dh02"/>
      <point x="902" y="1015" type="line" smooth="yes" name="sv02"/>
      <point x="909" y="1050"/>
      <point x="912" y="1082" name="ab01"/>
      <point x="912" y="1107" type="curve" smooth="yes"/>
      <point x="912" y="1210" name="at01"/>
      <point x="861" y="1255" name="sh01"/>
      <point x="758" y="1255" type="curve" smooth="yes" name="sh02"/>
      <point x="600" y="1255" name="sv03"/>
      <point x="498" y="1145" name="sh03"/>
      <point x="463" y="972" type="curve"/>
      <point x="274" y="0" type="line"/>
      <point x="-21" y="0" type="line" name="dh01"/>
      <point x="270" y="1493" type="line"/>
      <point x="536" y="1493" type="line"/>
      <point x="518" y="1253" type="line"/>
      <point x="602" y="1425"/>
      <point x="741" y="1522"/>
      <point x="916" y="1522" type="curve" smooth="yes"/>
      <point x="1107" y="1522"/>
      <point x="1207" y="1407"/>
      <point x="1207" y="1172" type="curve" smooth="yes"/>
      <point x="1207" y="1105"/>
      <point x="1199" y="1029"/>
      <point x="1182" y="942" type="curve" smooth="yes"/>
      <point x="1010" y="58" type="line" smooth="yes"/>
      <point x="940" y="-298"/>
      <point x="801" y="-426"/>
      <point x="524" y="-426" type="curve" smooth="yes"/>
      <point x="403" y="-426" type="line"/>
    </contour>
  </outline>
</glyph>
<glyph name="Ohungarumlaut" format="1">
  <advance width="1233"/>
  <unicode hex="0150"/>
  <outline>
    <contour>
      <point x="687" y="1852" type="line" name="dv04"/>
      <point x="971" y="1852" type="line" name="ih01"/>
      <point x="634" y="1588" type="line" name="dv03"/>
      <point x="437" y="1588" type="line" name="ih02"/>
    </contour>
    <contour>
      <point x="1062" y="1852" type="line" name="sv01"/>
      <point x="1346" y="1852" type="line"/>
      <point x="1009" y="1588" type="line" name="sv02"/>
      <point x="812" y="1588" type="line" name="ih03"/>
    </contour>
    <contour>
      <point x="497" y="-29" type="curve" name="dv01" smooth="yes"/>
      <point x="214" y="-29" name="sh02"/>
      <point x="61" y="139"/>
      <point x="61" y="482" type="curve" name="at01" smooth="yes"/>
      <point x="61" y="728" name="sh01"/>
      <point x="139" y="1045"/>
      <point x="246" y="1229" type="curve"/>
      <point x="355" y="1421" name="dv02"/>
      <point x="515" y="1520"/>
      <point x="735" y="1520" type="curve" smooth="yes"/>
      <point x="1016" y="1520" name="ah02"/>
      <point x="1171" y="1354" name="sv03"/>
      <point x="1171" y="1011" type="curve" smooth="yes"/>
      <point x="1171" y="784"/>
      <point x="1103" y="463" name="sh03"/>
      <point x="989" y="264" type="curve" smooth="yes"/>
      <point x="880" y="72" name="ah01"/>
      <point x="718" y="-29" name="sh04"/>
    </contour>
    <contour>
      <point x="528" y="233" type="curve" smooth="yes"/>
      <point x="612" y="233"/>
      <point x="670" y="281"/>
      <point x="719" y="373" type="curve" smooth="yes"/>
      <point x="752" y="434"/>
      <point x="782" y="517"/>
      <point x="810" y="630" type="curve" smooth="yes"/>
      <point x="842" y="763"/>
      <point x="868" y="916"/>
      <point x="868" y="1024" type="curve" smooth="yes"/>
      <point x="868" y="1181"/>
      <point x="814" y="1260"/>
      <point x="705" y="1260" type="curve" smooth="yes"/>
      <point x="618" y="1260"/>
      <point x="562" y="1211"/>
      <point x="514" y="1119" type="curve"/>
      <point x="483" y="1062"/>
      <point x="453" y="981"/>
      <point x="422" y="861" type="curve" smooth="yes"/>
      <point x="382" y="702"/>
      <point x="365" y="537"/>
      <point x="365" y="458" type="curve" smooth="yes"/>
      <point x="365" y="315"/>
      <point x="417" y="233"/>
    </contour>
  </outline>
</glyph>
<glyph name="OE" format="1">
  <advance width="1233"/>
  <unicode hex="0152"/>
  <outline>
    <contour>
      <point x="474" y="0" type="line" smooth="yes" name="ab01"/>
      <point x="297" y="0"/>
      <point x="186" y="32" name="dh01"/>
      <point x="117" y="91" type="curve" smooth="yes"/>
      <point x="46" y="151"/>
      <point x="11" y="246"/>
      <point x="11" y="402" type="curve" smooth="yes" name="at01"/>
      <point x="11" y="490"/>
      <point x="22" y="599" name="sv01"/>
      <point x="45" y="724" type="curve" smooth="yes"/>
      <point x="68" y="849"/>
      <point x="101" y="978" name="dv02"/>
      <point x="138" y="1083" type="curve" smooth="yes" name="dv01"/>
      <point x="185" y="1215"/>
      <point x="239" y="1320" name="sv02"/>
      <point x="334" y="1395" type="curve" smooth="yes"/>
      <point x="419" y="1463"/>
      <point x="521" y="1493" name="sv03"/>
      <point x="646" y="1493" type="curve" smooth="yes" name="sv04"/>
      <point x="1332" y="1493" type="line" name="sv05"/>
      <point x="1280" y="1233" type="line"/>
      <point x="949" y="1233" type="line"/>
      <point x="889" y="922" type="line"/>
      <point x="1190" y="922" type="line" name="dh02"/>
      <point x="1139" y="662" type="line"/>
      <point x="838" y="662" type="line" name="sv06"/>
      <point x="760" y="260" type="line"/>
      <point x="1102" y="260" type="line"/>
      <point x="1051" y="0" type="line"/>
    </contour>
    <contour>
      <point x="506" y="260" type="line"/>
      <point x="695" y="1233" type="line"/>
      <point x="644" y="1233" type="line" smooth="yes"/>
      <point x="580" y="1233"/>
      <point x="536" y="1214"/>
      <point x="501" y="1186" type="curve" smooth="yes"/>
      <point x="461" y="1153"/>
      <point x="434" y="1106"/>
      <point x="410" y="1039" type="curve" smooth="yes"/>
      <point x="384" y="968"/>
      <point x="348" y="835"/>
      <point x="327" y="717" type="curve" smooth="yes"/>
      <point x="307" y="610"/>
      <point x="295" y="508"/>
      <point x="295" y="440" type="curve" smooth="yes"/>
      <point x="295" y="371"/>
      <point x="307" y="330"/>
      <point x="334" y="302" type="curve"/>
      <point x="358" y="275"/>
      <point x="395" y="260"/>
      <point x="455" y="260" type="curve" smooth="yes"/>
    </contour>
  </outline>
</glyph>
<glyph name="tbar" format="1">
  <advance width="1233"/>
  <unicode hex="0167"/>
  <outline>
    <contour>
      <point x="706" y="-5" type="line" smooth="yes" name="ab01"/>
      <point x="539" y="-5"/>
      <point x="430" y="22"/>
      <point x="381" y="75" type="curve" smooth="yes"/>
      <point x="350" y="110" name="dv01"/>
      <point x="334" y="162"/>
      <point x="334" y="233" type="curve" smooth="yes"/>
      <point x="334" y="274" name="dv02"/>
      <point x="339" y="321" name="sv01"/>
      <point x="350" y="374" type="curve"/>
      <point x="385" y="561" type="line" name="at01"/>
      <point x="207" y="561" type="line"/>
      <point x="245" y="753" type="line" name="av01"/>
      <point x="423" y="753" type="line"/>
      <point x="450" y="895" type="line" name="at02"/>
      <point x="164" y="895" type="line"/>
      <point x="208" y="1120" type="line" name="sv02"/>
      <point x="494" y="1120" type="line" name="sv03"/>
      <point x="556" y="1438" type="line" name="sv04"/>
      <point x="849" y="1438" type="line"/>
      <point x="787" y="1120" type="line" name="sv05"/>
      <point x="1170" y="1120" type="line"/>
      <point x="1126" y="895" type="line"/>
      <point x="743" y="895" type="line"/>
      <point x="716" y="753" type="line"/>
      <point x="900" y="753" type="line" name="sv06"/>
      <point x="862" y="561" type="line" name="sv07"/>
      <point x="678" y="561" type="line" name="ab02"/>
      <point x="640" y="360" type="line" smooth="yes"/>
      <point x="637" y="341"/>
      <point x="635" y="326"/>
      <point x="635" y="315" type="curve" smooth="yes"/>
      <point x="635" y="288"/>
      <point x="642" y="268"/>
      <point x="655" y="253" type="curve" smooth="yes"/>
      <point x="676" y="231"/>
      <point x="714" y="220"/>
      <point x="771" y="220" type="curve" smooth="yes"/>
      <point x="996" y="220" type="line"/>
      <point x="952" y="-5" type="line"/>
    </contour>
  </outline>
</glyph>
<glyph name="Utilde" format="1">
  <advance width="1233"/>
  <unicode hex="0168"/>
  <outline>
    <contour>
      <point x="438" y="1589" type="line" name="sv01"/>
      <point x="471" y="1762" name="dv04"/>
      <point x="563" y="1855"/>
      <point x="690" y="1855" type="curve" smooth="yes"/>
      <point x="741" y="1855" name="dv06"/>
      <point x="780" y="1840" name="sv02"/>
      <point x="827" y="1804" type="curve" smooth="yes"/>
      <point x="880" y="1763" type="line" name="dv05"/>
      <point x="901" y="1745"/>
      <point x="925" y="1736"/>
      <point x="950" y="1736" type="curve" smooth="yes" name="dv03"/>
      <point x="999" y="1736"/>
      <point x="1035" y="1778" name="dv01"/>
      <point x="1050" y="1855" type="curve" name="dh01"/>
      <point x="1187" y="1855" type="line"/>
      <point x="1152" y="1690" name="at01"/>
      <point x="1068" y="1589"/>
      <point x="935" y="1589" type="curve" smooth="yes" name="sh01"/>
      <point x="888" y="1589" name="sh02"/>
      <point x="849" y="1601" name="dh02"/>
      <point x="798" y="1640" type="curve" smooth="yes" name="dv02"/>
      <point x="749" y="1677" type="line" smooth="yes"/>
      <point x="716" y="1702" name="at02"/>
      <point x="696" y="1709"/>
      <point x="676" y="1709" type="curve" smooth="yes"/>
      <point x="625" y="1709"/>
      <point x="590" y="1668"/>
      <point x="575" y="1589" type="curve"/>
    </contour>
    <contour>
      <point x="492" y="-29" type="curve" smooth="yes"/>
      <point x="209" y="-29"/>
      <point x="45" y="107"/>
      <point x="45" y="359" type="curve" smooth="yes"/>
      <point x="45" y="411"/>
      <point x="52" y="471"/>
      <point x="68" y="551" type="curve" smooth="yes"/>
      <point x="252" y="1493" type="line"/>
      <point x="547" y="1493" type="line"/>
      <point x="348" y="477" type="line"/>
      <point x="348" y="475"/>
      <point x="348" y="473"/>
      <point x="347" y="471" type="curve"/>
      <point x="342" y="440"/>
      <point x="340" y="418"/>
      <point x="340" y="399" type="curve" smooth="yes"/>
      <point x="340" y="294"/>
      <point x="402" y="231"/>
      <point x="522" y="231" type="curve" smooth="yes"/>
      <point x="655" y="231"/>
      <point x="745" y="309"/>
      <point x="778" y="477" type="curve" smooth="yes"/>
      <point x="977" y="1493" type="line"/>
      <point x="1272" y="1493" type="line"/>
      <point x="1087" y="551" type="line" smooth="yes"/>
      <point x="1042" y="322"/>
      <point x="997" y="208"/>
      <point x="909" y="123" type="curve"/>
      <point x="809" y="24"/>
      <point x="672" y="-29"/>
    </contour>
  </outline>
</glyph>
<glyph name="umacron" format="1">
  <advance width="1233"/>
  <unicode hex="016B"/>
  <outline>
    <contour>
      <point x="469" y="1508" type="line" name="at03"/>
      <point x="1100" y="1508" type="line"/>
      <point x="1063" y="1320" type="line" name="sv01"/>
      <point x="432" y="1320" type="line"/>
    </contour>
    <contour>
      <point x="368" y="-29" type="curve" smooth="yes" name="sv03"/>
      <point x="204" y="-29" name="dh01"/>
      <point x="106" y="67"/>
      <point x="106" y="244" type="curve" smooth="yes" name="at01"/>
      <point x="106" y="283"/>
      <point x="111" y="327"/>
      <point x="123" y="391" type="curve" smooth="yes" name="dh02"/>
      <point x="266" y="1120" type="line" name="sv02"/>
      <point x="557" y="1120" type="line"/>
      <point x="426" y="436" type="line" smooth="yes" name="at02"/>
      <point x="419" y="400"/>
      <point x="416" y="362" name="ab01"/>
      <point x="416" y="338" type="curve" smooth="yes"/>
      <point x="416" y="251" name="sh01"/>
      <point x="456" y="211"/>
      <point x="528" y="211" type="curve" smooth="yes"/>
      <point x="635" y="211"/>
      <point x="715" y="298"/>
      <point x="752" y="489" type="curve" smooth="yes"/>
      <point x="874" y="1120" type="line"/>
      <point x="1165" y="1120" type="line"/>
      <point x="948" y="0" type="line"/>
      <point x="684" y="0" type="line"/>
      <point x="688" y="166" type="line"/>
      <point x="628" y="45"/>
      <point x="513" y="-29"/>
    </contour>
  </outline>
</glyph>
<glyph name="Uring" format="1">
  <advance width="1233"/>
  <unicode hex="016E"/>
  <outline>
    <contour>
      <point x="1272" y="1493" type="line" name="at01"/>
      <point x="1087" y="551" type="line" smooth="yes"/>
      <point x="1042" y="322"/>
      <point x="997" y="208" name="dv01"/>
      <point x="909" y="123" type="curve" name="dh01"/>
      <point x="809" y="24"/>
      <point x="672" y="-29" name="at02"/>
      <point x="492" y="-29" type="curve" name="ih01" smooth="yes"/>
      <point x="209" y="-29" name="dh03"/>
      <point x="45" y="107" name="dv04"/>
      <point x="45" y="359" type="curve" name="dh06" smooth="yes"/>
      <point x="45" y="411" name="ih02"/>
      <point x="52" y="471" name="dv03"/>
      <point x="68" y="551" type="curve" name="dh04" smooth="yes"/>
      <point x="252" y="1493" type="line" name="at03"/>
      <point x="503" y="1493" type="line" name="dh05"/>
      <point x="484" y="1532"/>
      <point x="475" y="1573" name="ih03"/>
      <point x="475" y="1616" type="curve" name="sv01" smooth="yes"/>
      <point x="475" y="1773" name="iv01"/>
      <point x="601" y="1901" name="sh01"/>
      <point x="759" y="1901" type="curve" name="sh02" smooth="yes"/>
      <point x="916" y="1901" name="dh02"/>
      <point x="1044" y="1773" name="dv02"/>
      <point x="1044" y="1616" type="curve" smooth="yes"/>
      <point x="1044" y="1573"/>
      <point x="1035" y="1532" name="sh03"/>
      <point x="1016" y="1493" type="curve"/>
    </contour>
    <contour>
      <point x="759" y="1747" type="curve" smooth="yes"/>
      <point x="687" y="1747"/>
      <point x="628" y="1688"/>
      <point x="628" y="1616" type="curve" smooth="yes"/>
      <point x="628" y="1543"/>
      <point x="687" y="1485"/>
      <point x="759" y="1485" type="curve" smooth="yes"/>
      <point x="831" y="1485"/>
      <point x="891" y="1544"/>
      <point x="891" y="1616" type="curve" smooth="yes"/>
      <point x="891" y="1688"/>
      <point x="831" y="1747"/>
    </contour>
    <contour>
      <point x="962" y="1416" type="line"/>
      <point x="910" y="1363"/>
      <point x="839" y="1331"/>
      <point x="759" y="1331" type="curve" smooth="yes"/>
      <point x="667" y="1331"/>
      <point x="588" y="1372"/>
      <point x="536" y="1439" type="curve"/>
      <point x="348" y="477" type="line"/>
      <point x="348" y="475"/>
      <point x="348" y="473"/>
      <point x="347" y="471" type="curve"/>
      <point x="342" y="440"/>
      <point x="340" y="418"/>
      <point x="340" y="399" type="curve" smooth="yes"/>
      <point x="340" y="294"/>
      <point x="402" y="231"/>
      <point x="522" y="231" type="curve" smooth="yes"/>
      <point x="655" y="231"/>
      <point x="745" y="309"/>
      <point x="778" y="477" type="curve" smooth="yes"/>
    </contour>
  </outline>
</glyph>
<glyph name="Uring" format="1">
  <advance width="1233"/>
  <unicode hex="016E"/>
  <outline>
    <contour>
      <point x="1272" y="1493" type="line" name="at01"/>
      <point x="1087" y="551" type="line" smooth="yes"/>
      <point x="1042" y="322"/>
      <point x="997" y="208" name="dv01"/>
      <point x="909" y="123" type="curve" name="dh01"/>
      <point x="809" y="24"/>
      <point x="672" y="-29" name="at02"/>
      <point x="492" y="-29" type="curve" smooth="yes" name="ih01"/>
      <point x="209" y="-29" name="dh03"/>
      <point x="45" y="107" name="dv04"/>
      <point x="45" y="359" type="curve" smooth="yes" name="dh06"/>
      <point x="45" y="411" name="ih02"/>
      <point x="52" y="471" name="dv03"/>
      <point x="68" y="551" type="curve" smooth="yes" name="dh04"/>
      <point x="252" y="1493" type="line" name="at03"/>
      <point x="503" y="1493" type="line" name="dh05"/>
      <point x="484" y="1532"/>
      <point x="475" y="1573" name="ih03"/>
      <point x="475" y="1616" type="curve" smooth="yes" name="sv01"/>
      <point x="475" y="1773" name="iv01"/>
      <point x="601" y="1901" name="sh01"/>
      <point x="759" y="1901" type="curve" smooth="yes" name="sh02"/>
      <point x="916" y="1901" name="dh02"/>
      <point x="1044" y="1773" name="dv02"/>
      <point x="1044" y="1616" type="curve" smooth="yes"/>
      <point x="1044" y="1573"/>
      <point x="1035" y="1532" name="sh03"/>
      <point x="1016" y="1493" type="curve"/>
    </contour>
    <contour>
      <point x="759" y="1747" type="curve" smooth="yes"/>
      <point x="687" y="1747"/>
      <point x="628" y="1688"/>
      <point x="628" y="1616" type="curve" smooth="yes"/>
      <point x="628" y="1543"/>
      <point x="687" y="1485"/>
      <point x="759" y="1485" type="curve" smooth="yes"/>
      <point x="831" y="1485"/>
      <point x="891" y="1544"/>
      <point x="891" y="1616" type="curve" smooth="yes"/>
      <point x="891" y="1688"/>
      <point x="831" y="1747"/>
    </contour>
    <contour>
      <point x="962" y="1416" type="line"/>
      <point x="910" y="1363"/>
      <point x="839" y="1331"/>
      <point x="759" y="1331" type="curve" smooth="yes"/>
      <point x="667" y="1331"/>
      <point x="588" y="1372"/>
      <point x="536" y="1439" type="curve"/>
      <point x="348" y="477" type="line"/>
      <point x="348" y="475"/>
      <point x="348" y="473"/>
      <point x="347" y="471" type="curve"/>
      <point x="342" y="440"/>
      <point x="340" y="418"/>
      <point x="340" y="399" type="curve" smooth="yes"/>
      <point x="340" y="294"/>
      <point x="402" y="231"/>
      <point x="522" y="231" type="curve" smooth="yes"/>
      <point x="655" y="231"/>
      <point x="745" y="309"/>
      <point x="778" y="477" type="curve" smooth="yes"/>
    </contour>
  </outline>
</glyph>
<glyph name="Uhungarumlaut" format="1">
  <advance width="1233"/>
  <unicode hex="0170"/>
  <outline>
    <contour>
      <point x="687" y="1852" type="line" name="dv04"/>
      <point x="971" y="1852" type="line"/>
      <point x="634" y="1588" type="line" name="dv03"/>
      <point x="437" y="1588" type="line"/>
    </contour>
    <contour>
      <point x="1062" y="1852" type="line" name="sv01"/>
      <point x="1346" y="1852" type="line"/>
      <point x="1009" y="1588" type="line" name="sv02"/>
      <point x="812" y="1588" type="line"/>
    </contour>
    <contour>
      <point x="492" y="-29" type="curve" name="dv01" smooth="yes"/>
      <point x="209" y="-29" name="dh01"/>
      <point x="45" y="107"/>
      <point x="45" y="359" type="curve" name="at01" smooth="yes"/>
      <point x="45" y="411"/>
      <point x="52" y="471" name="sh01"/>
      <point x="68" y="551" type="curve" name="sh02" smooth="yes"/>
      <point x="252" y="1493" type="line" name="dh02"/>
      <point x="547" y="1493" type="line" name="dv02"/>
      <point x="348" y="477" type="line"/>
      <point x="348" y="475" name="at02"/>
      <point x="348" y="473"/>
      <point x="347" y="471" type="curve"/>
      <point x="342" y="440"/>
      <point x="340" y="418"/>
      <point x="340" y="399" type="curve" smooth="yes"/>
      <point x="340" y="294"/>
      <point x="402" y="231"/>
      <point x="522" y="231" type="curve" smooth="yes"/>
      <point x="655" y="231"/>
      <point x="745" y="309"/>
      <point x="778" y="477" type="curve" smooth="yes"/>
      <point x="977" y="1493" type="line"/>
      <point x="1272" y="1493" type="line"/>
      <point x="1087" y="551" type="line" smooth="yes"/>
      <point x="1042" y="322"/>
      <point x="997" y="208"/>
      <point x="909" y="123" type="curve"/>
      <point x="809" y="24"/>
      <point x="672" y="-29"/>
    </contour>
  </outline>
</glyph>
<glyph name="Uogonek" format="1">
  <advance width="1233"/>
  <unicode hex="0172"/>
  <outline>
    <contour>
      <point x="1272" y="1493" type="line" name="at01"/>
      <point x="1087" y="551" type="line" smooth="yes"/>
      <point x="1042" y="322"/>
      <point x="997" y="208" name="dv03"/>
      <point x="909" y="123" type="curve"/>
      <point x="809" y="24"/>
      <point x="672" y="-29" name="sh01"/>
      <point x="492" y="-29" type="curve" smooth="yes" name="dv02"/>
      <point x="487" y="-29" type="line"/>
      <point x="445" y="-74"/>
      <point x="416" y="-109" name="dv01"/>
      <point x="400" y="-133" type="curve" smooth="yes" name="ih01"/>
      <point x="384" y="-158" name="ih02"/>
      <point x="376" y="-178" name="dh01"/>
      <point x="376" y="-198" type="curve" smooth="yes"/>
      <point x="376" y="-237" name="at02"/>
      <point x="407" y="-270"/>
      <point x="476" y="-270" type="curve" smooth="yes" name="sh02"/>
      <point x="512" y="-270" name="sh03"/>
      <point x="569" y="-262" name="dh02"/>
      <point x="632" y="-239" type="curve" name="dv04"/>
      <point x="601" y="-395" type="line"/>
      <point x="536" y="-410"/>
      <point x="473" y="-417"/>
      <point x="422" y="-417" type="curve" smooth="yes"/>
      <point x="285" y="-417"/>
      <point x="202" y="-366"/>
      <point x="202" y="-271" type="curve" smooth="yes"/>
      <point x="202" y="-199"/>
      <point x="250" y="-112"/>
      <point x="357" y="-17" type="curve"/>
      <point x="156" y="22"/>
      <point x="45" y="148"/>
      <point x="45" y="359" type="curve" smooth="yes"/>
      <point x="45" y="411"/>
      <point x="52" y="471"/>
      <point x="68" y="551" type="curve" smooth="yes"/>
      <point x="252" y="1493" type="line"/>
      <point x="547" y="1493" type="line"/>
      <point x="348" y="477" type="line"/>
      <point x="348" y="475"/>
      <point x="348" y="473"/>
      <point x="347" y="471" type="curve"/>
      <point x="342" y="440"/>
      <point x="340" y="418"/>
      <point x="340" y="399" type="curve" smooth="yes"/>
      <point x="340" y="294"/>
      <point x="402" y="231"/>
      <point x="522" y="231" type="curve" smooth="yes"/>
      <point x="655" y="231"/>
      <point x="745" y="309"/>
      <point x="778" y="477" type="curve" smooth="yes"/>
      <point x="977" y="1493" type="line"/>
    </contour>
  </outline>
</glyph>
<glyph name="uogonek" format="1">
  <advance width="1233"/>
  <unicode hex="0173"/>
  <outline>
    <contour>
      <point x="823" y="-182" type="curve" smooth="yes" name="hr00"/>
      <point x="823" y="-221" name="dv02"/>
      <point x="854" y="-254"/>
      <point x="923" y="-254" type="curve" smooth="yes"/>
      <point x="959" y="-254" name="dv01"/>
      <point x="1016" y="-246"/>
      <point x="1079" y="-223" type="curve" name="ab01"/>
      <point x="1048" y="-379" type="line"/>
      <point x="983" y="-394" name="iv01"/>
      <point x="920" y="-401" name="sv02"/>
      <point x="869" y="-401" type="curve" smooth="yes" name="dh01"/>
      <point x="732" y="-401"/>
      <point x="649" y="-350" name="at01"/>
      <point x="649" y="-255" type="curve" smooth="yes"/>
      <point x="649" y="-183"/>
      <point x="697" y="-95" name="dh02"/>
      <point x="805" y="0" type="curve" name="sv01"/>
      <point x="655" y="0" type="line"/>
      <point x="688" y="166" type="line" name="at02"/>
      <point x="628" y="45"/>
      <point x="513" y="-29" name="ab02"/>
      <point x="368" y="-29" type="curve" smooth="yes"/>
      <point x="204" y="-29"/>
      <point x="106" y="67"/>
      <point x="106" y="244" type="curve" smooth="yes"/>
      <point x="106" y="283"/>
      <point x="111" y="327"/>
      <point x="123" y="391" type="curve" smooth="yes"/>
      <point x="266" y="1120" type="line"/>
      <point x="557" y="1120" type="line"/>
      <point x="426" y="436" type="line" smooth="yes"/>
      <point x="419" y="400"/>
      <point x="416" y="362"/>
      <point x="416" y="338" type="curve" smooth="yes"/>
      <point x="416" y="251"/>
      <point x="456" y="211"/>
      <point x="528" y="211" type="curve" smooth="yes"/>
      <point x="635" y="211"/>
      <point x="715" y="298"/>
      <point x="752" y="489" type="curve" smooth="yes"/>
      <point x="874" y="1120" type="line"/>
      <point x="1165" y="1120" type="line"/>
      <point x="948" y="0" type="line"/>
      <point x="946" y="0" type="line"/>
      <point x="896" y="-53"/>
      <point x="863" y="-92"/>
      <point x="847" y="-117" type="curve" smooth="yes"/>
      <point x="831" y="-142"/>
      <point x="823" y="-162"/>
    </contour>
  </outline>
</glyph>
<glyph name="florin" format="1">
  <advance width="1233"/>
  <unicode hex="0192"/>
  <outline>
    <contour>
      <point x="270" y="-426" type="curve" smooth="yes" name="ab01"/>
      <point x="233" y="-426" name="ab02"/>
      <point x="191" y="-422"/>
      <point x="155" y="-414" type="curve" smooth="yes" name="iv01"/>
      <point x="119" y="-406"/>
      <point x="79" y="-392" name="sv01"/>
      <point x="42" y="-375" type="curve"/>
      <point x="42" y="-141" type="line"/>
      <point x="71" y="-160" name="dv01"/>
      <point x="98" y="-173"/>
      <point x="125" y="-182" type="curve" smooth="yes"/>
      <point x="151" y="-191" name="dv02"/>
      <point x="178" y="-195"/>
      <point x="205" y="-195" type="curve" smooth="yes"/>
      <point x="268" y="-195" name="at01"/>
      <point x="317" y="-175" name="at02"/>
      <point x="352" y="-135" type="curve" smooth="yes"/>
      <point x="387" y="-95" name="iv02"/>
      <point x="410" y="-32"/>
      <point x="421" y="55" type="curve" smooth="yes" name="sv02"/>
      <point x="501" y="666" type="line"/>
      <point x="249" y="666" type="line"/>
      <point x="249" y="885" type="line" name="sv03"/>
      <point x="530" y="885" type="line"/>
      <point x="569" y="1178" type="line" smooth="yes" name="sv04"/>
      <point x="585" y="1299"/>
      <point x="630" y="1394"/>
      <point x="695" y="1458" type="curve" smooth="yes"/>
      <point x="763" y="1523"/>
      <point x="852" y="1556"/>
      <point x="956" y="1556" type="curve" smooth="yes"/>
      <point x="993" y="1556"/>
      <point x="1037" y="1552"/>
      <point x="1072" y="1544" type="curve" smooth="yes"/>
      <point x="1103" y="1537"/>
      <point x="1148" y="1521"/>
      <point x="1183" y="1505" type="curve"/>
      <point x="1183" y="1274" type="line"/>
      <point x="1152" y="1293"/>
      <point x="1124" y="1304"/>
      <point x="1101" y="1312" type="curve" smooth="yes"/>
      <point x="1075" y="1321"/>
      <point x="1049" y="1325"/>
      <point x="1022" y="1325" type="curve" smooth="yes"/>
      <point x="960" y="1325"/>
      <point x="912" y="1305"/>
      <point x="878" y="1265" type="curve" smooth="yes"/>
      <point x="842" y="1222"/>
      <point x="819" y="1159"/>
      <point x="808" y="1075" type="curve" smooth="yes"/>
      <point x="784" y="885" type="line"/>
      <point x="1044" y="885" type="line"/>
      <point x="1044" y="666" type="line"/>
      <point x="755" y="666" type="line"/>
      <point x="661" y="-47" type="line" smooth="yes"/>
      <point x="646" y="-160"/>
      <point x="604" y="-259"/>
      <point x="535" y="-327" type="curve" smooth="yes"/>
      <point x="468" y="-393"/>
      <point x="379" y="-426"/>
    </contour>
  </outline>
</glyph>
<glyph name="Gcaron" format="1">
  <advance width="1233"/>
  <unicode hex="01E6"/>
  <outline>
    <contour>
      <point x="505" y="1853" type="line" name="sv01"/>
      <point x="675" y="1853" type="line"/>
      <point x="824" y="1691" type="line"/>
      <point x="1053" y="1853" type="line" name="dv04"/>
      <point x="1234" y="1853" type="line"/>
      <point x="990" y="1589" type="line" name="dv03"/>
      <point x="642" y="1589" type="line"/>
    </contour>
    <contour>
      <point x="610" y="-29" type="curve" smooth="yes" name="dv01"/>
      <point x="287" y="-29" name="dh01"/>
      <point x="102" y="168"/>
      <point x="102" y="533" type="curve" smooth="yes" name="at01"/>
      <point x="102" y="805"/>
      <point x="204" y="1110"/>
      <point x="367" y="1294" type="curve" smooth="yes" name="sv02"/>
      <point x="499" y="1443"/>
      <point x="674" y="1520"/>
      <point x="875" y="1520" type="curve" smooth="yes" name="dh02"/>
      <point x="987" y="1520" name="dv02"/>
      <point x="1088" y="1496"/>
      <point x="1192" y="1448" type="curve"/>
      <point x="1126" y="1120" type="line" name="dv05"/>
      <point x="1058" y="1209" name="dv06"/>
      <point x="964" y="1257"/>
      <point x="857" y="1257" type="curve" smooth="yes"/>
      <point x="764" y="1257"/>
      <point x="676" y="1221"/>
      <point x="604" y="1141" type="curve" smooth="yes"/>
      <point x="545" y="1077"/>
      <point x="504" y="991"/>
      <point x="469" y="891" type="curve" smooth="yes"/>
      <point x="429" y="777"/>
      <point x="403" y="638"/>
      <point x="403" y="533" type="curve" smooth="yes"/>
      <point x="403" y="338"/>
      <point x="492" y="231"/>
      <point x="645" y="231" type="curve" smooth="yes"/>
      <point x="695" y="231"/>
      <point x="737" y="242"/>
      <point x="770" y="264" type="curve"/>
      <point x="827" y="555" type="line"/>
      <point x="621" y="555" type="line"/>
      <point x="670" y="803" type="line"/>
      <point x="1130" y="803" type="line"/>
      <point x="991" y="94" type="line"/>
      <point x="898" y="14"/>
      <point x="763" y="-29"/>
    </contour>
  </outline>
</glyph>
<glyph name="gcaron" format="1">
  <advance width="1233"/>
  <unicode hex="01E7"/>
  <outline>
    <contour>
      <point x="414" y="1677" type="line" name="ih01"/>
      <point x="588" y="1677" type="line"/>
      <point x="741" y="1450" type="line"/>
      <point x="979" y="1677" type="line" name="av01"/>
      <point x="1169" y="1677" type="line"/>
      <point x="838" y="1301" type="line"/>
      <point x="596" y="1301" type="line"/>
    </contour>
    <contour>
      <point x="389" y="-424" type="curve" name="ab01" smooth="yes"/>
      <point x="252" y="-424"/>
      <point x="135" y="-404" name="ih02"/>
      <point x="18" y="-365" type="curve" name="sv01"/>
      <point x="72" y="-100" type="line"/>
      <point x="172" y="-160" name="ih03"/>
      <point x="284" y="-190" name="dv01"/>
      <point x="395" y="-190" type="curve" name="dh01" smooth="yes"/>
      <point x="571" y="-190"/>
      <point x="656" y="-113" name="dv04"/>
      <point x="688" y="51" type="curve" name="iv01" smooth="yes"/>
      <point x="715" y="184" type="line" name="at01"/>
      <point x="640" y="69"/>
      <point x="536" y="16"/>
      <point x="409" y="16" type="curve" smooth="yes"/>
      <point x="201" y="16" name="dv02"/>
      <point x="68" y="161" name="sh01"/>
      <point x="68" y="412" type="curve" name="dv03" smooth="yes"/>
      <point x="68" y="584" name="dh02"/>
      <point x="132" y="796"/>
      <point x="225" y="932" type="curve" smooth="yes"/>
      <point x="321" y="1071"/>
      <point x="459" y="1151"/>
      <point x="603" y="1151" type="curve" smooth="yes"/>
      <point x="742" y="1151"/>
      <point x="834" y="1075"/>
      <point x="862" y="938" type="curve"/>
      <point x="926" y="1120" type="line"/>
      <point x="1190" y="1120" type="line"/>
      <point x="987" y="84" type="line" smooth="yes"/>
      <point x="915" y="-285"/>
      <point x="749" y="-424"/>
    </contour>
    <contour>
      <point x="516" y="246" type="curve" smooth="yes"/>
      <point x="675" y="246"/>
      <point x="803" y="457"/>
      <point x="803" y="684" type="curve" smooth="yes"/>
      <point x="803" y="837"/>
      <point x="745" y="909"/>
      <point x="653" y="909" type="curve" smooth="yes"/>
      <point x="496" y="909"/>
      <point x="367" y="702"/>
      <point x="367" y="471" type="curve" smooth="yes"/>
      <point x="367" y="318"/>
      <point x="423" y="246"/>
    </contour>
  </outline>
</glyph>
<glyph name="oslashacute" format="1">
  <advance width="1233"/>
  <unicode hex="01FF"/>
  <outline>
    <contour>
      <point x="887" y="1675" type="line" name="av01"/>
      <point x="1208" y="1675" type="line"/>
      <point x="766" y="1299" type="line"/>
      <point x="569" y="1299" type="line" name="iv01"/>
    </contour>
    <contour>
      <point x="-82" y="2" type="line"/>
      <point x="129" y="209" type="line"/>
      <point x="101" y="274"/>
      <point x="88" y="336" name="dv04"/>
      <point x="88" y="433" type="curve" smooth="yes"/>
      <point x="88" y="853"/>
      <point x="330" y="1149"/>
      <point x="690" y="1149" type="curve" smooth="yes"/>
      <point x="810" y="1149" name="dh02"/>
      <point x="914" y="1116" name="dv01"/>
      <point x="1001" y="1049" type="curve"/>
      <point x="1194" y="1235" type="line" name="av02"/>
      <point x="1311" y="1114" type="line"/>
      <point x="1104" y="913" type="line" name="dv03"/>
      <point x="1133" y="842" name="iv02"/>
      <point x="1145" y="777" name="dv02"/>
      <point x="1145" y="684" type="curve" smooth="yes" name="dh01"/>
      <point x="1145" y="264"/>
      <point x="903" y="-29"/>
      <point x="538" y="-29" type="curve" smooth="yes"/>
      <point x="414" y="-29" name="sh01"/>
      <point x="312" y="5"/>
      <point x="233" y="72" type="curve"/>
      <point x="35" y="-117" type="line"/>
    </contour>
    <contour>
      <point x="801" y="856" type="line"/>
      <point x="768" y="893"/>
      <point x="726" y="911"/>
      <point x="673" y="911" type="curve" smooth="yes"/>
      <point x="513" y="911"/>
      <point x="408" y="752"/>
      <point x="383" y="453" type="curve"/>
    </contour>
    <contour>
      <point x="562" y="207" type="curve" smooth="yes"/>
      <point x="722" y="207"/>
      <point x="829" y="375"/>
      <point x="850" y="670" type="curve"/>
      <point x="434" y="266" type="line"/>
      <point x="465" y="227"/>
      <point x="508" y="207"/>
    </contour>
  </outline>
</glyph>
<glyph name="uni02B9" format="1">
  <advance width="1233"/>
  <unicode hex="02B9"/>
  <outline>
    <contour>
      <point x="613" y="1638" type="line" name="dv02"/>
      <point x="834" y="1638" type="line"/>
      <point x="628" y="1140" type="line" name="dv01"/>
      <point x="452" y="1140" type="line"/>
    </contour>
  </outline>
</glyph>
<glyph name="uni02BE" format="1">
  <advance width="1233"/>
  <unicode hex="02BE"/>
  <outline>
    <contour>
      <point x="632" y="1140" type="line" name="at02"/>
      <point x="712" y="1140" name="dh01"/>
      <point x="790" y="1212"/>
      <point x="790" y="1295" type="curve" smooth="yes" name="at01"/>
      <point x="790" y="1355" name="dh02"/>
      <point x="746" y="1402"/>
      <point x="682" y="1402" type="curve" name="sv01"/>
      <point x="712" y="1556" type="line"/>
      <point x="850" y="1556" name="sh01"/>
      <point x="947" y="1457"/>
      <point x="947" y="1326" type="curve" smooth="yes"/>
      <point x="947" y="1307"/>
      <point x="946" y="1290"/>
      <point x="942" y="1271" type="curve" smooth="yes"/>
      <point x="910" y="1114"/>
      <point x="759" y="986"/>
      <point x="602" y="986" type="curve"/>
    </contour>
  </outline>
</glyph>
<glyph name="uni02BE" format="1">
  <advance width="1233"/>
  <unicode hex="02BE"/>
  <outline>
    <contour>
      <point x="632" y="1140" type="line" name="at02"/>
      <point x="712" y="1140" name="dh01"/>
      <point x="790" y="1212"/>
      <point x="790" y="1295" type="curve" name="at01" smooth="yes"/>
      <point x="790" y="1355" name="dh02"/>
      <point x="746" y="1402"/>
      <point x="682" y="1402" type="curve" name="sv01"/>
      <point x="712" y="1556" type="line"/>
      <point x="850" y="1556" name="sh01"/>
      <point x="947" y="1457"/>
      <point x="947" y="1326" type="curve" smooth="yes"/>
      <point x="947" y="1307"/>
      <point x="946" y="1290"/>
      <point x="942" y="1271" type="curve" smooth="yes"/>
      <point x="910" y="1114"/>
      <point x="759" y="986"/>
      <point x="602" y="986" type="curve"/>
    </contour>
  </outline>
</glyph>
<glyph name="uni02BF" format="1">
  <advance width="1233"/>
  <unicode hex="02BF"/>
  <outline>
    <contour>
      <point x="771" y="986" type="line" name="av01"/>
      <point x="692" y="986"/>
      <point x="630" y="1014" name="dh01"/>
      <point x="585" y="1069" type="curve"/>
      <point x="552" y="1112" name="at01"/>
      <point x="537" y="1162"/>
      <point x="537" y="1215" type="curve" smooth="yes" name="dh02"/>
      <point x="537" y="1307" name="at02"/>
      <point x="580" y="1402"/>
      <point x="664" y="1473" type="curve" smooth="yes"/>
      <point x="731" y="1528"/>
      <point x="804" y="1556"/>
      <point x="882" y="1556" type="curve"/>
      <point x="852" y="1402" type="line"/>
      <point x="772" y="1402"/>
      <point x="693" y="1328"/>
      <point x="693" y="1246" type="curve" smooth="yes"/>
      <point x="693" y="1186"/>
      <point x="737" y="1140"/>
      <point x="801" y="1140" type="curve"/>
    </contour>
  </outline>
</glyph>
<glyph name="uni02BF" format="1">
  <advance width="1233"/>
  <unicode hex="02BF"/>
  <outline>
    <contour>
      <point x="771" y="986" type="line" name="av01"/>
      <point x="692" y="986"/>
      <point x="630" y="1014" name="dh01"/>
      <point x="585" y="1069" type="curve"/>
      <point x="552" y="1112" name="at01"/>
      <point x="537" y="1162"/>
      <point x="537" y="1215" type="curve" name="dh02" smooth="yes"/>
      <point x="537" y="1307" name="at02"/>
      <point x="580" y="1402"/>
      <point x="664" y="1473" type="curve" smooth="yes"/>
      <point x="731" y="1528"/>
      <point x="804" y="1556"/>
      <point x="882" y="1556" type="curve"/>
      <point x="852" y="1402" type="line"/>
      <point x="772" y="1402"/>
      <point x="693" y="1328"/>
      <point x="693" y="1246" type="curve" smooth="yes"/>
      <point x="693" y="1186"/>
      <point x="737" y="1140"/>
      <point x="801" y="1140" type="curve"/>
    </contour>
  </outline>
</glyph>
<glyph name="uni02C0" format="1">
  <advance width="1233"/>
  <unicode hex="02C0"/>
  <outline>
    <contour>
      <point x="437" y="1080" type="line" name="hr00"/>
      <point x="491" y="1080" type="line" smooth="yes" name="dv02"/>
      <point x="575" y="1080"/>
      <point x="637" y="1101" name="dh01"/>
      <point x="678" y="1144" type="curve" smooth="yes"/>
      <point x="713" y="1180" name="dv03"/>
      <point x="730" y="1220"/>
      <point x="730" y="1257" type="curve" smooth="yes"/>
      <point x="730" y="1279" name="dv04"/>
      <point x="724" y="1299" name="dh02"/>
      <point x="712" y="1317" type="curve" smooth="yes"/>
      <point x="682" y="1360"/>
      <point x="633" y="1381" name="dv01"/>
      <point x="564" y="1381" type="curve" smooth="yes"/>
      <point x="501" y="1381"/>
      <point x="438" y="1365" name="sh01"/>
      <point x="373" y="1333" type="curve"/>
      <point x="405" y="1500" type="line"/>
      <point x="470" y="1524"/>
      <point x="514" y="1539"/>
      <point x="655" y="1539" type="curve" smooth="yes"/>
      <point x="820" y="1539"/>
      <point x="934" y="1416"/>
      <point x="934" y="1276" type="curve" smooth="yes"/>
      <point x="934" y="1261"/>
      <point x="932" y="1245"/>
      <point x="929" y="1226" type="curve" smooth="yes"/>
      <point x="897" y="1053"/>
      <point x="767" y="970"/>
      <point x="617" y="946" type="curve"/>
      <point x="563" y="668" type="line"/>
      <point x="357" y="668" type="line"/>
    </contour>
  </outline>
</glyph>
<glyph name="uni02C0" format="1">
  <advance width="1233"/>
  <unicode hex="02C0"/>
  <outline>
    <contour>
      <point x="437" y="1080" type="line" name="hr00"/>
      <point x="491" y="1080" type="line" name="dv02" smooth="yes"/>
      <point x="575" y="1080"/>
      <point x="637" y="1101" name="dh01"/>
      <point x="678" y="1144" type="curve" smooth="yes"/>
      <point x="713" y="1180" name="dv03"/>
      <point x="730" y="1220"/>
      <point x="730" y="1257" type="curve" smooth="yes"/>
      <point x="730" y="1279" name="dv04"/>
      <point x="724" y="1299" name="dh02"/>
      <point x="712" y="1317" type="curve" smooth="yes"/>
      <point x="682" y="1360"/>
      <point x="633" y="1381" name="dv01"/>
      <point x="564" y="1381" type="curve" smooth="yes"/>
      <point x="501" y="1381"/>
      <point x="438" y="1365" name="sh01"/>
      <point x="373" y="1333" type="curve"/>
      <point x="405" y="1500" type="line"/>
      <point x="470" y="1524"/>
      <point x="514" y="1539"/>
      <point x="655" y="1539" type="curve" smooth="yes"/>
      <point x="820" y="1539"/>
      <point x="934" y="1416"/>
      <point x="934" y="1276" type="curve" smooth="yes"/>
      <point x="934" y="1261"/>
      <point x="932" y="1245"/>
      <point x="929" y="1226" type="curve" smooth="yes"/>
      <point x="897" y="1053"/>
      <point x="767" y="970"/>
      <point x="617" y="946" type="curve"/>
      <point x="563" y="668" type="line"/>
      <point x="357" y="668" type="line"/>
    </contour>
  </outline>
</glyph>
<glyph name="uni02C1" format="1">
  <advance width="1233"/>
  <unicode hex="02C1"/>
  <outline>
    <contour>
      <point x="554" y="946" type="line" name="hr00"/>
      <point x="433" y="965" name="dh01"/>
      <point x="345" y="1033"/>
      <point x="345" y="1161" type="curve" smooth="yes" name="dv04"/>
      <point x="345" y="1181"/>
      <point x="348" y="1203"/>
      <point x="352" y="1226" type="curve" smooth="yes" name="dv03"/>
      <point x="384" y="1386"/>
      <point x="564" y="1539" name="dh02"/>
      <point x="748" y="1539" type="curve" smooth="yes"/>
      <point x="888" y="1539" name="dv02"/>
      <point x="928" y="1524"/>
      <point x="982" y="1500" type="curve" name="dv01"/>
      <point x="950" y="1333" type="line"/>
      <point x="895" y="1365"/>
      <point x="837" y="1381"/>
      <point x="777" y="1381" type="curve" smooth="yes"/>
      <point x="708" y="1381"/>
      <point x="651" y="1360"/>
      <point x="604" y="1317" type="curve" smooth="yes"/>
      <point x="569" y="1286"/>
      <point x="553" y="1249"/>
      <point x="553" y="1210" type="curve" smooth="yes"/>
      <point x="553" y="1187"/>
      <point x="559" y="1165"/>
      <point x="571" y="1144" type="curve" smooth="yes"/>
      <point x="595" y="1101"/>
      <point x="649" y="1080"/>
      <point x="732" y="1080" type="curve" smooth="yes"/>
      <point x="786" y="1080" type="line"/>
      <point x="706" y="668" type="line"/>
      <point x="500" y="668" type="line"/>
    </contour>
  </outline>
</glyph>
<glyph name="uni02C9" format="1">
  <advance width="1233"/>
  <unicode hex="02C9"/>
  <outline>
    <contour>
      <point x="459" y="1556" type="line" name="at01"/>
      <point x="1090" y="1556" type="line"/>
      <point x="1053" y="1368" type="line" name="sv01"/>
      <point x="422" y="1368" type="line"/>
    </contour>
  </outline>
</glyph>
<glyph name="uni02CC" format="1">
  <advance width="1233"/>
  <unicode hex="02CC"/>
  <outline>
    <contour>
      <point x="576" y="390" type="line" name="av01"/>
      <point x="765" y="390" type="line"/>
      <point x="657" y="-165" type="line" name="av02"/>
      <point x="468" y="-165" type="line"/>
    </contour>
  </outline>
</glyph>
<glyph name="uni02D0" format="1">
  <advance width="1233"/>
  <unicode hex="02D0"/>
  <outline>
    <contour>
      <point x="520" y="1120" type="line" name="at01"/>
      <point x="931" y="1120" type="line"/>
      <point x="651" y="740" type="line" name="iv01"/>
    </contour>
    <contour>
      <point x="582" y="380" type="line" name="iv02"/>
      <point x="713" y="0" type="line" name="ab01"/>
      <point x="302" y="0" type="line"/>
    </contour>
  </outline>
</glyph>
<glyph name="dotaccent" format="1">
  <advance width="1233"/>
  <unicode hex="02D9"/>
  <outline>
    <contour>
      <point x="627" y="1339" type="line" name="dv01" smooth="yes"/>
      <point x="609" y="1339"/>
      <point x="600" y="1347"/>
      <point x="600" y="1363" type="curve" smooth="yes"/>
      <point x="600" y="1367" name="dv02"/>
      <point x="600" y="1370"/>
      <point x="601" y="1372" type="curve" smooth="yes"/>
      <point x="638" y="1558" type="line" smooth="yes"/>
      <point x="641" y="1576" name="sv01"/>
      <point x="651" y="1585"/>
      <point x="670" y="1585" type="curve" smooth="yes"/>
      <point x="882" y="1585" type="line" smooth="yes"/>
      <point x="902" y="1585"/>
      <point x="913" y="1572"/>
      <point x="909" y="1552" type="curve" smooth="yes"/>
      <point x="873" y="1366" type="line" smooth="yes"/>
      <point x="870" y="1348"/>
      <point x="859" y="1339"/>
      <point x="841" y="1339" type="curve" smooth="yes"/>
    </contour>
  </outline>
</glyph>
<glyph name="uni0302" format="1">
  <advance width="0"/>
  <unicode hex="0302"/>
  <outline>
    <contour>
      <point x="-565" y="1638" type="line" name="av03"/>
      <point x="-322" y="1638" type="line"/>
      <point x="-139" y="1262" type="line" name="av01"/>
      <point x="-315" y="1262" type="line"/>
      <point x="-467" y="1487" type="line"/>
      <point x="-707" y="1262" type="line" name="av02"/>
      <point x="-897" y="1262" type="line"/>
    </contour>
  </outline>
</glyph>
<glyph name="tildecomb" format="1">
  <advance width="0"/>
  <unicode hex="0303"/>
  <outline>
    <contour>
      <point x="-354" y="1307" type="curve" smooth="yes" name="dv01"/>
      <point x="-401" y="1307"/>
      <point x="-441" y="1323"/>
      <point x="-494" y="1364" type="curve" smooth="yes"/>
      <point x="-543" y="1401" type="line" name="dv03"/>
      <point x="-548" y="1405" type="line" smooth="yes" name="sv01"/>
      <point x="-576" y="1427"/>
      <point x="-600" y="1438" name="dv04"/>
      <point x="-621" y="1438" type="curve" smooth="yes"/>
      <point x="-666" y="1438"/>
      <point x="-704" y="1389" name="dv02"/>
      <point x="-717" y="1309" type="curve" name="sv02"/>
      <point x="-856" y="1309" type="line"/>
      <point x="-832" y="1482"/>
      <point x="-733" y="1593"/>
      <point x="-606" y="1593" type="curve" smooth="yes"/>
      <point x="-561" y="1593"/>
      <point x="-526" y="1580"/>
      <point x="-465" y="1532" type="curve" smooth="yes"/>
      <point x="-414" y="1493" type="line" smooth="yes"/>
      <point x="-388" y="1472"/>
      <point x="-365" y="1462"/>
      <point x="-344" y="1462" type="curve" smooth="yes"/>
      <point x="-293" y="1462"/>
      <point x="-257" y="1507"/>
      <point x="-244" y="1591" type="curve"/>
      <point x="-105" y="1591" type="line"/>
      <point x="-136" y="1402"/>
      <point x="-219" y="1307"/>
    </contour>
  </outline>
</glyph>
<glyph name="uni0304" format="1">
  <advance width="0"/>
  <unicode hex="0304"/>
  <outline>
    <contour>
      <point x="-774" y="1556" type="line" name="at01"/>
      <point x="-143" y="1556" type="line"/>
      <point x="-180" y="1368" type="line" name="sv01"/>
      <point x="-811" y="1368" type="line"/>
    </contour>
  </outline>
</glyph>
<glyph name="uni030A" format="1">
  <advance width="0"/>
  <unicode hex="030A"/>
  <outline>
    <contour>
      <point x="-485" y="1249" type="curve" smooth="yes" name="dv01"/>
      <point x="-645" y="1249" name="sh01"/>
      <point x="-770" y="1377" name="dv04"/>
      <point x="-770" y="1534" type="curve" smooth="yes" name="sh02"/>
      <point x="-770" y="1691"/>
      <point x="-645" y="1819" name="dv02"/>
      <point x="-485" y="1819" type="curve" smooth="yes" name="ah02"/>
      <point x="-329" y="1819" name="dv03"/>
      <point x="-201" y="1691" name="sh03"/>
      <point x="-201" y="1534" type="curve" smooth="yes"/>
      <point x="-201" y="1377" name="ah01"/>
      <point x="-329" y="1249"/>
    </contour>
    <contour>
      <point x="-485" y="1403" type="curve" smooth="yes"/>
      <point x="-413" y="1403"/>
      <point x="-354" y="1462"/>
      <point x="-354" y="1534" type="curve" smooth="yes"/>
      <point x="-354" y="1606"/>
      <point x="-414" y="1665"/>
      <point x="-485" y="1665" type="curve" smooth="yes"/>
      <point x="-557" y="1665"/>
      <point x="-617" y="1606"/>
      <point x="-617" y="1534" type="curve" smooth="yes"/>
      <point x="-617" y="1461"/>
      <point x="-557" y="1403"/>
    </contour>
  </outline>
</glyph>
<glyph name="uni0312" format="1">
  <advance width="0"/>
  <unicode hex="0312"/>
  <outline>
    <contour>
      <point x="-562" y="1209" type="line" name="dv02"/>
      <point x="-368" y="1209" type="line"/>
      <point x="-516" y="903" type="line" name="dv01"/>
      <point x="-798" y="903" type="line"/>
    </contour>
  </outline>
</glyph>
<glyph name="uni0313" format="1">
  <advance width="0"/>
  <unicode hex="0313"/>
  <outline>
    <contour>
      <point x="-775" y="1361" type="line" name="hr00"/>
      <point x="-695" y="1361"/>
      <point x="-647" y="1402"/>
      <point x="-631" y="1483" type="curve" name="dv02"/>
      <point x="-752" y="1483" type="line"/>
      <point x="-704" y="1729" type="line"/>
      <point x="-430" y="1729" type="line" name="dv01"/>
      <point x="-478" y="1483" type="line" smooth="yes"/>
      <point x="-512" y="1307"/>
      <point x="-620" y="1219"/>
      <point x="-803" y="1218" type="curve"/>
    </contour>
  </outline>
</glyph>
<glyph name="uni0314" format="1">
  <advance width="0"/>
  <unicode hex="0314"/>
  <outline>
    <contour>
      <point x="-529" y="1218" type="line" name="dv01"/>
      <point x="-683" y="1219" name="dh01"/>
      <point x="-760" y="1281"/>
      <point x="-760" y="1406" type="curve" smooth="yes"/>
      <point x="-760" y="1430" name="dv02"/>
      <point x="-757" y="1455"/>
      <point x="-752" y="1483" type="curve" smooth="yes"/>
      <point x="-704" y="1729" type="line" name="dh02"/>
      <point x="-430" y="1729" type="line"/>
      <point x="-478" y="1483" type="line"/>
      <point x="-599" y="1483" type="line"/>
      <point x="-602" y="1470"/>
      <point x="-603" y="1458"/>
      <point x="-603" y="1447" type="curve" smooth="yes"/>
      <point x="-603" y="1390"/>
      <point x="-569" y="1361"/>
      <point x="-501" y="1361" type="curve"/>
    </contour>
  </outline>
</glyph>
<glyph name="uni0315" format="1">
  <advance width="0"/>
  <unicode hex="0315"/>
  <outline>
    <contour>
      <point x="-531" y="1638" type="line" name="dv02"/>
      <point x="-210" y="1638" type="line"/>
      <point x="-467" y="1262" type="line" name="dv01"/>
      <point x="-664" y="1262" type="line"/>
    </contour>
  </outline>
</glyph>
<glyph name="uni0316" format="1">
  <advance width="0"/>
  <unicode hex="0316"/>
  <outline>
    <contour>
      <point x="-727" y="-217" type="line" name="av02"/>
      <point x="-443" y="-217" type="line"/>
      <point x="-234" y="-593" type="line" name="av01"/>
      <point x="-432" y="-593" type="line"/>
    </contour>
  </outline>
</glyph>
<glyph name="uni0319" format="1">
  <advance width="0"/>
  <unicode hex="0319"/>
  <outline>
    <contour>
      <point x="-758" y="-252" type="line" name="hr00"/>
      <point x="-568" y="-252" type="line" name="sv01"/>
      <point x="-604" y="-435" type="line"/>
      <point x="-421" y="-435" type="line" name="dv02"/>
      <point x="-458" y="-624" type="line" name="dv01"/>
      <point x="-640" y="-624" type="line"/>
      <point x="-676" y="-807" type="line" name="av01"/>
      <point x="-865" y="-807" type="line"/>
    </contour>
  </outline>
</glyph>
<glyph name="uni031C" format="1">
  <advance width="0"/>
  <unicode hex="031C"/>
  <outline>
    <contour>
      <point x="-750" y="-502" type="line" name="ab01"/>
      <point x="-874" y="-502" name="dh01"/>
      <point x="-931" y="-412" name="sv01"/>
      <point x="-931" y="-328" type="curve" smooth="yes"/>
      <point x="-931" y="-169" name="dh02"/>
      <point x="-788" y="-63"/>
      <point x="-664" y="-63" type="curve"/>
      <point x="-690" y="-195" type="line"/>
      <point x="-738" y="-195"/>
      <point x="-797" y="-241"/>
      <point x="-797" y="-290" type="curve" smooth="yes"/>
      <point x="-797" y="-343"/>
      <point x="-773" y="-370"/>
      <point x="-724" y="-370" type="curve"/>
    </contour>
  </outline>
</glyph>
<glyph name="uni031D" format="1">
  <advance width="0"/>
  <unicode hex="031D"/>
  <outline>
    <contour>
      <point x="-946" y="-435" type="line" name="sv01"/>
      <point x="-763" y="-435" type="line"/>
      <point x="-728" y="-252" type="line"/>
      <point x="-538" y="-252" type="line" name="sv02"/>
      <point x="-574" y="-435" type="line"/>
      <point x="-391" y="-435" type="line" name="dv02"/>
      <point x="-428" y="-624" type="line" name="dv01"/>
      <point x="-983" y="-624" type="line"/>
    </contour>
  </outline>
</glyph>
<glyph name="uni031F" format="1">
  <advance width="0"/>
  <unicode hex="031F"/>
  <outline>
    <contour>
      <point x="-825" y="-624" type="line" name="dv03"/>
      <point x="-1008" y="-624" type="line"/>
      <point x="-971" y="-435" type="line" name="sv01"/>
      <point x="-788" y="-435" type="line" name="dv04"/>
      <point x="-753" y="-252" type="line" name="sv02"/>
      <point x="-563" y="-252" type="line"/>
      <point x="-599" y="-435" type="line" name="dv02"/>
      <point x="-416" y="-435" type="line"/>
      <point x="-453" y="-624" type="line" name="sv03"/>
      <point x="-635" y="-624" type="line"/>
      <point x="-671" y="-807" type="line" name="dv01"/>
      <point x="-860" y="-807" type="line"/>
    </contour>
  </outline>
</glyph>
<glyph name="uni0321" format="1">
  <advance width="0"/>
  <unicode hex="0321"/>
  <outline>
    <contour>
      <point x="-688" y="-199" type="line" name="sv01"/>
      <point x="-649" y="-199" type="line" smooth="yes"/>
      <point x="-518" y="-199"/>
      <point x="-455" y="-137" name="av01"/>
      <point x="-420" y="43" type="curve" smooth="yes"/>
      <point x="-395" y="168" type="line"/>
      <point x="-104" y="168" type="line" name="ab01"/>
      <point x="-129" y="43" type="line"/>
      <point x="-193" y="-290"/>
      <point x="-331" y="-424"/>
      <point x="-611" y="-424" type="curve" smooth="yes"/>
      <point x="-732" y="-424" type="line"/>
    </contour>
  </outline>
</glyph>
<glyph name="uni0322" format="1">
  <advance width="0"/>
  <unicode hex="0322"/>
  <outline>
    <contour>
      <point x="-733" y="-426" type="line" smooth="yes" name="ab01"/>
      <point x="-954" y="-426" name="dh01"/>
      <point x="-1053" y="-342"/>
      <point x="-1053" y="-142" type="curve" smooth="yes" name="av01"/>
      <point x="-1053" y="-90"/>
      <point x="-1046" y="-30"/>
      <point x="-1033" y="41" type="curve" name="dh02"/>
      <point x="-1008" y="166" type="line" name="sv01"/>
      <point x="-717" y="166" type="line"/>
      <point x="-742" y="41" type="line" smooth="yes" name="ab02"/>
      <point x="-750" y="0"/>
      <point x="-754" y="-36"/>
      <point x="-754" y="-65" type="curve" smooth="yes"/>
      <point x="-754" y="-165"/>
      <point x="-708" y="-201"/>
      <point x="-607" y="-201" type="curve" smooth="yes"/>
      <point x="-568" y="-201" type="line"/>
      <point x="-612" y="-426" type="line"/>
    </contour>
  </outline>
</glyph>
<glyph name="uni0325" format="1">
  <advance width="0"/>
  <unicode hex="0325"/>
  <outline>
    <contour>
      <point x="-859" y="-502" type="curve" name="ab01" smooth="yes"/>
      <point x="-983" y="-502" name="sh01"/>
      <point x="-1040" y="-412" name="dv02"/>
      <point x="-1040" y="-328" type="curve" name="sh02" smooth="yes"/>
      <point x="-1040" y="-169"/>
      <point x="-897" y="-63" name="sv01"/>
      <point x="-774" y="-63" type="curve" name="ah02" smooth="yes"/>
      <point x="-650" y="-63" name="dv01"/>
      <point x="-592" y="-153" name="sh03"/>
      <point x="-592" y="-236" type="curve" smooth="yes"/>
      <point x="-592" y="-396" name="ah01"/>
      <point x="-736" y="-502"/>
    </contour>
    <contour>
      <point x="-834" y="-370" type="curve" smooth="yes"/>
      <point x="-786" y="-370"/>
      <point x="-727" y="-323"/>
      <point x="-727" y="-276" type="curve" smooth="yes"/>
      <point x="-727" y="-222"/>
      <point x="-751" y="-195"/>
      <point x="-800" y="-195" type="curve" smooth="yes"/>
      <point x="-849" y="-195"/>
      <point x="-906" y="-241"/>
      <point x="-906" y="-290" type="curve" smooth="yes"/>
      <point x="-906" y="-343"/>
      <point x="-882" y="-370"/>
    </contour>
  </outline>
</glyph>
<glyph name="uni0326" format="1">
  <advance width="0"/>
  <unicode hex="0326"/>
  <outline>
    <contour>
      <point x="-949" y="-198" type="line" name="sv01"/>
      <point x="-667" y="-198" type="line"/>
      <point x="-903" y="-504" type="line" name="ab01"/>
      <point x="-1097" y="-504" type="line"/>
    </contour>
  </outline>
</glyph>
<glyph name="uni0329" format="1">
  <advance width="0"/>
  <unicode hex="0329"/>
  <outline>
    <contour>
      <point x="-668" y="-218" type="line" name="hr00"/>
      <point x="-479" y="-218" type="line" name="dv02"/>
      <point x="-565" y="-662" type="line" name="dv01"/>
      <point x="-754" y="-662" type="line"/>
    </contour>
  </outline>
</glyph>
<glyph name="uni032A" format="1">
  <advance width="0"/>
  <unicode hex="032A"/>
  <outline>
    <contour>
      <point x="-895" y="-218" type="line" name="hr00"/>
      <point x="-265" y="-218" type="line" name="dv02"/>
      <point x="-338" y="-592" type="line" name="dv01"/>
      <point x="-526" y="-592" type="line"/>
      <point x="-490" y="-406" type="line" name="sv01"/>
      <point x="-744" y="-406" type="line"/>
      <point x="-780" y="-592" type="line" name="sv02"/>
      <point x="-968" y="-592" type="line"/>
    </contour>
  </outline>
</glyph>
<glyph name="uni032E" format="1">
  <advance width="0"/>
  <unicode hex="032E"/>
  <outline>
    <contour>
      <point x="-840" y="-491" type="curve" smooth="yes" name="ab01"/>
      <point x="-1037" y="-491"/>
      <point x="-1135" y="-403" name="dh01"/>
      <point x="-1135" y="-227" type="curve" smooth="yes"/>
      <point x="-1135" y="-194" type="line" name="dh02"/>
      <point x="-991" y="-194" type="line" name="sv01"/>
      <point x="-991" y="-207" type="line" smooth="yes" name="sv02"/>
      <point x="-991" y="-288" name="sv03"/>
      <point x="-928" y="-340"/>
      <point x="-827" y="-340" type="curve" smooth="yes"/>
      <point x="-719" y="-340"/>
      <point x="-637" y="-286"/>
      <point x="-604" y="-194" type="curve"/>
      <point x="-461" y="-194" type="line"/>
      <point x="-500" y="-385"/>
      <point x="-636" y="-491"/>
    </contour>
  </outline>
</glyph>
<glyph name="uni0330" format="1">
  <advance width="0"/>
  <unicode hex="0330"/>
  <outline>
    <contour>
      <point x="-702" y="-487" type="curve" smooth="yes" name="av01"/>
      <point x="-749" y="-487"/>
      <point x="-789" y="-471"/>
      <point x="-842" y="-430" type="curve" smooth="yes"/>
      <point x="-891" y="-393" type="line" name="dv01"/>
      <point x="-896" y="-389" type="line" smooth="yes" name="av02"/>
      <point x="-924" y="-367" name="sv01"/>
      <point x="-948" y="-356" name="dv02"/>
      <point x="-969" y="-356" type="curve" smooth="yes"/>
      <point x="-1014" y="-356"/>
      <point x="-1052" y="-405" name="sv02"/>
      <point x="-1065" y="-485" type="curve" name="sv03"/>
      <point x="-1204" y="-485" type="line"/>
      <point x="-1180" y="-312"/>
      <point x="-1081" y="-201"/>
      <point x="-954" y="-201" type="curve" smooth="yes"/>
      <point x="-909" y="-201"/>
      <point x="-874" y="-214"/>
      <point x="-813" y="-262" type="curve" smooth="yes"/>
      <point x="-762" y="-301" type="line" smooth="yes"/>
      <point x="-736" y="-322"/>
      <point x="-713" y="-332"/>
      <point x="-692" y="-332" type="curve" smooth="yes"/>
      <point x="-641" y="-332"/>
      <point x="-605" y="-287"/>
      <point x="-592" y="-203" type="curve"/>
      <point x="-453" y="-203" type="line"/>
      <point x="-484" y="-392"/>
      <point x="-567" y="-487"/>
    </contour>
  </outline>
</glyph>
<glyph name="uni0331" format="1">
  <advance width="0"/>
  <unicode hex="0331"/>
  <outline>
    <contour>
      <point x="-1119" y="-218" type="line" name="hr00"/>
      <point x="-488" y="-218" type="line" name="dv02"/>
      <point x="-525" y="-406" type="line" name="dv01"/>
      <point x="-1156" y="-406" type="line"/>
    </contour>
  </outline>
</glyph>
<glyph name="uni0332" format="1">
  <advance width="0"/>
  <unicode hex="0332"/>
  <outline>
    <contour>
      <point x="-1233" y="-293" type="line" name="hr00"/>
      <point x="0" y="-293" type="line" name="dv02"/>
      <point x="0" y="-483" type="line" name="dv01"/>
      <point x="-1233" y="-483" type="line"/>
    </contour>
  </outline>
</glyph>
<glyph name="uni0334" format="1">
  <advance width="0"/>
  <unicode hex="0334"/>
  <outline>
    <contour>
      <point x="-419" y="463" type="curve" name="dv01" smooth="yes"/>
      <point x="-479" y="463"/>
      <point x="-543" y="480"/>
      <point x="-612" y="514" type="curve" name="sv01" smooth="yes"/>
      <point x="-625" y="521" name="iv01"/>
      <point x="-635" y="525"/>
      <point x="-642" y="528" type="curve" name="av01" smooth="yes"/>
      <point x="-737" y="573"/>
      <point x="-794" y="586"/>
      <point x="-862" y="586" type="curve" name="dv02" smooth="yes"/>
      <point x="-966" y="586" name="av02"/>
      <point x="-1062" y="549"/>
      <point x="-1178" y="465" type="curve"/>
      <point x="-1134" y="694" type="line"/>
      <point x="-1014" y="775"/>
      <point x="-916" y="809"/>
      <point x="-805" y="809" type="curve" smooth="yes"/>
      <point x="-734" y="809"/>
      <point x="-680" y="797"/>
      <point x="-588" y="756" type="curve"/>
      <point x="-558" y="741" type="line" smooth="yes"/>
      <point x="-487" y="704"/>
      <point x="-421" y="686"/>
      <point x="-359" y="686" type="curve" smooth="yes"/>
      <point x="-266" y="686"/>
      <point x="-170" y="726"/>
      <point x="-54" y="811" type="curve"/>
      <point x="-99" y="578" type="line"/>
      <point x="-215" y="498"/>
      <point x="-314" y="463"/>
    </contour>
  </outline>
</glyph>
<glyph name="uni033A" format="1">
  <advance width="0"/>
  <unicode hex="033A"/>
  <outline>
    <contour>
      <point x="-895" y="-146" type="line" name="sv02"/>
      <point x="-707" y="-146" type="line"/>
      <point x="-743" y="-332" type="line"/>
      <point x="-489" y="-332" type="line" name="dv02"/>
      <point x="-453" y="-146" type="line"/>
      <point x="-265" y="-146" type="line" name="sv01"/>
      <point x="-338" y="-520" type="line" name="dv01"/>
      <point x="-968" y="-520" type="line"/>
    </contour>
  </outline>
</glyph>
<glyph name="uni0361" format="1">
  <advance width="0"/>
  <unicode hex="0361"/>
  <outline>
    <contour>
      <point x="-1502" y="1506" type="line" name="sv01"/>
      <point x="-1490" y="1737" name="dv02"/>
      <point x="-1007" y="1795"/>
      <point x="-587" y="1803" type="curve"/>
      <point x="-542" y="1803" type="line" smooth="yes"/>
      <point x="-219" y="1803" name="dv01"/>
      <point x="221" y="1735"/>
      <point x="221" y="1549" type="curve" smooth="yes" name="sv02"/>
      <point x="221" y="1534"/>
      <point x="219" y="1520" name="sv03"/>
      <point x="214" y="1506" type="curve"/>
      <point x="71" y="1506" type="line"/>
      <point x="71" y="1553"/>
      <point x="7" y="1589"/>
      <point x="-120" y="1613" type="curve" smooth="yes"/>
      <point x="-249" y="1638"/>
      <point x="-415" y="1650"/>
      <point x="-616" y="1650" type="curve" smooth="yes"/>
      <point x="-818" y="1650"/>
      <point x="-989" y="1638"/>
      <point x="-1128" y="1613" type="curve" smooth="yes"/>
      <point x="-1265" y="1589"/>
      <point x="-1342" y="1553"/>
      <point x="-1359" y="1506" type="curve"/>
    </contour>
  </outline>
</glyph>
<glyph name="Omicrontonos" format="1">
  <advance width="1233"/>
  <unicode hex="038C"/>
  <outline>
    <contour>
      <point x="100" y="1502" type="line" name="at01"/>
      <point x="421" y="1502" type="line" name="ih01"/>
      <point x="-21" y="1126" type="line" name="at03"/>
      <point x="-218" y="1126" type="line"/>
    </contour>
    <contour>
      <point x="489" y="-56" type="curve" name="dv01" smooth="yes"/>
      <point x="206" y="-56" name="sh01"/>
      <point x="53" y="112"/>
      <point x="53" y="455" type="curve" name="at02" smooth="yes"/>
      <point x="53" y="701" name="sh02"/>
      <point x="131" y="1018"/>
      <point x="238" y="1202" type="curve"/>
      <point x="347" y="1394" name="dv02"/>
      <point x="507" y="1493"/>
      <point x="727" y="1493" type="curve" smooth="yes"/>
      <point x="1008" y="1493" name="ah02"/>
      <point x="1163" y="1327" name="sv01"/>
      <point x="1163" y="984" type="curve" smooth="yes"/>
      <point x="1163" y="757"/>
      <point x="1095" y="436" name="sh03"/>
      <point x="981" y="237" type="curve" smooth="yes"/>
      <point x="872" y="45" name="ah01"/>
      <point x="710" y="-56" name="sh04"/>
    </contour>
    <contour>
      <point x="520" y="206" type="curve" smooth="yes"/>
      <point x="604" y="206"/>
      <point x="662" y="254"/>
      <point x="711" y="346" type="curve" smooth="yes"/>
      <point x="744" y="407"/>
      <point x="774" y="490"/>
      <point x="802" y="603" type="curve" smooth="yes"/>
      <point x="834" y="736"/>
      <point x="860" y="889"/>
      <point x="860" y="997" type="curve" smooth="yes"/>
      <point x="860" y="1154"/>
      <point x="806" y="1233"/>
      <point x="697" y="1233" type="curve" smooth="yes"/>
      <point x="610" y="1233"/>
      <point x="554" y="1184"/>
      <point x="506" y="1092" type="curve"/>
      <point x="475" y="1035"/>
      <point x="445" y="954"/>
      <point x="414" y="834" type="curve" smooth="yes"/>
      <point x="374" y="675"/>
      <point x="357" y="510"/>
      <point x="357" y="431" type="curve" smooth="yes"/>
      <point x="357" y="288"/>
      <point x="409" y="206"/>
    </contour>
  </outline>
</glyph>
<glyph name="Omicrontonos" format="1">
  <advance width="1233"/>
  <unicode hex="038C"/>
  <outline>
    <contour>
      <point x="100" y="1502" type="line" name="at01"/>
      <point x="421" y="1502" type="line" name="ih01"/>
      <point x="-21" y="1126" type="line" name="at03"/>
      <point x="-218" y="1126" type="line"/>
    </contour>
    <contour>
      <point x="489" y="-56" type="curve" smooth="yes" name="dv01"/>
      <point x="206" y="-56" name="sh01"/>
      <point x="53" y="112"/>
      <point x="53" y="455" type="curve" smooth="yes" name="at02"/>
      <point x="53" y="701" name="sh02"/>
      <point x="131" y="1018"/>
      <point x="238" y="1202" type="curve"/>
      <point x="347" y="1394" name="dv02"/>
      <point x="507" y="1493"/>
      <point x="727" y="1493" type="curve" smooth="yes"/>
      <point x="1008" y="1493" name="ah02"/>
      <point x="1163" y="1327" name="sv01"/>
      <point x="1163" y="984" type="curve" smooth="yes"/>
      <point x="1163" y="757"/>
      <point x="1095" y="436" name="sh03"/>
      <point x="981" y="237" type="curve" smooth="yes"/>
      <point x="872" y="45" name="ah01"/>
      <point x="710" y="-56" name="sh04"/>
    </contour>
    <contour>
      <point x="520" y="206" type="curve" smooth="yes"/>
      <point x="604" y="206"/>
      <point x="662" y="254"/>
      <point x="711" y="346" type="curve" smooth="yes"/>
      <point x="744" y="407"/>
      <point x="774" y="490"/>
      <point x="802" y="603" type="curve" smooth="yes"/>
      <point x="834" y="736"/>
      <point x="860" y="889"/>
      <point x="860" y="997" type="curve" smooth="yes"/>
      <point x="860" y="1154"/>
      <point x="806" y="1233"/>
      <point x="697" y="1233" type="curve" smooth="yes"/>
      <point x="610" y="1233"/>
      <point x="554" y="1184"/>
      <point x="506" y="1092" type="curve"/>
      <point x="475" y="1035"/>
      <point x="445" y="954"/>
      <point x="414" y="834" type="curve" smooth="yes"/>
      <point x="374" y="675"/>
      <point x="357" y="510"/>
      <point x="357" y="431" type="curve" smooth="yes"/>
      <point x="357" y="288"/>
      <point x="409" y="206"/>
    </contour>
  </outline>
</glyph>
<glyph name="Omegatonos" format="1">
  <advance width="1233"/>
  <unicode hex="038F"/>
  <outline>
    <contour>
      <point x="164" y="1502" type="line" name="at02"/>
      <point x="485" y="1502" type="line" name="ih01"/>
      <point x="43" y="1126" type="line" name="at01"/>
      <point x="-154" y="1126" type="line"/>
    </contour>
    <contour>
      <point x="4" y="211" type="line" name="sv01"/>
      <point x="242" y="211" type="line" name="ih02"/>
      <point x="147" y="315" name="sh01"/>
      <point x="104" y="430"/>
      <point x="104" y="582" type="curve" smooth="yes" name="sv03"/>
      <point x="104" y="642" name="sh02"/>
      <point x="111" y="709"/>
      <point x="125" y="782" type="curve" smooth="yes" name="ih03"/>
      <point x="205" y="1192" name="sv04"/>
      <point x="454" y="1460" name="ab01"/>
      <point x="772" y="1460" type="curve" smooth="yes"/>
      <point x="1030" y="1460"/>
      <point x="1179" y="1282"/>
      <point x="1179" y="989" type="curve" smooth="yes" name="ah02"/>
      <point x="1179" y="925"/>
      <point x="1172" y="856" name="sv02"/>
      <point x="1158" y="782" type="curve" smooth="yes"/>
      <point x="1110" y="528" name="sh03"/>
      <point x="1006" y="355"/>
      <point x="819" y="211" type="curve" name="ab02"/>
      <point x="1057" y="211" type="line"/>
      <point x="1016" y="0" type="line" name="ah01"/>
      <point x="545" y="0" type="line" name="sh04"/>
      <point x="597" y="268" type="line"/>
      <point x="734" y="381"/>
      <point x="804" y="527"/>
      <point x="849" y="748" type="curve" smooth="yes"/>
      <point x="865" y="828"/>
      <point x="873" y="898"/>
      <point x="873" y="957" type="curve" smooth="yes"/>
      <point x="873" y="1004"/>
      <point x="868" y="1044"/>
      <point x="858" y="1078" type="curve" smooth="yes"/>
      <point x="835" y="1157"/>
      <point x="789" y="1194"/>
      <point x="722" y="1194" type="curve" smooth="yes"/>
      <point x="582" y="1194"/>
      <point x="473" y="1024"/>
      <point x="419" y="748" type="curve" smooth="yes"/>
      <point x="405" y="676"/>
      <point x="398" y="611"/>
      <point x="398" y="552" type="curve" smooth="yes"/>
      <point x="398" y="431"/>
      <point x="428" y="337"/>
      <point x="488" y="268" type="curve"/>
      <point x="436" y="0" type="line"/>
      <point x="-37" y="0" type="line"/>
    </contour>
  </outline>
</glyph>
<glyph name="iotadieresistonos" format="1">
  <advance width="1233"/>
  <unicode hex="0390"/>
  <outline>
    <contour>
      <point x="951" y="1936" type="line" name="av01"/>
      <point x="1272" y="1936" type="line"/>
      <point x="830" y="1560" type="line" name="at01"/>
      <point x="633" y="1560" type="line" name="ih01"/>
    </contour>
    <contour>
      <point x="382" y="1320" type="line" smooth="yes" name="sv01"/>
      <point x="362" y="1320"/>
      <point x="351" y="1333"/>
      <point x="355" y="1353" type="curve" smooth="yes" name="at02"/>
      <point x="391" y="1539" type="line" smooth="yes"/>
      <point x="394" y="1557"/>
      <point x="404" y="1566"/>
      <point x="423" y="1566" type="curve" smooth="yes"/>
      <point x="600" y="1566" type="line" smooth="yes" name="sv02"/>
      <point x="621" y="1566"/>
      <point x="630" y="1553"/>
      <point x="626" y="1533" type="curve" smooth="yes" name="at03"/>
      <point x="589" y="1347" type="line" smooth="yes"/>
      <point x="586" y="1329"/>
      <point x="575" y="1320"/>
      <point x="557" y="1320" type="curve" smooth="yes" name="sv03"/>
    </contour>
    <contour>
      <point x="857" y="1320" type="line" smooth="yes" name="ab01"/>
      <point x="837" y="1320" name="dh01"/>
      <point x="826" y="1333"/>
      <point x="830" y="1353" type="curve" smooth="yes" name="sv04"/>
      <point x="866" y="1539" type="line" smooth="yes"/>
      <point x="869" y="1557" name="at04"/>
      <point x="879" y="1566"/>
      <point x="898" y="1566" type="curve" smooth="yes"/>
      <point x="1076" y="1566" type="line" smooth="yes" name="dh02"/>
      <point x="1097" y="1566" name="sv05"/>
      <point x="1106" y="1553"/>
      <point x="1102" y="1533" type="curve" smooth="yes"/>
      <point x="1065" y="1347" type="line" smooth="yes"/>
      <point x="1062" y="1329"/>
      <point x="1051" y="1320"/>
      <point x="1033" y="1320" type="curve" smooth="yes"/>
    </contour>
    <contour>
      <point x="765" y="-8" type="line" smooth="yes"/>
      <point x="497" y="-8"/>
      <point x="392" y="46"/>
      <point x="392" y="222" type="curve" smooth="yes"/>
      <point x="392" y="265"/>
      <point x="398" y="312"/>
      <point x="409" y="371" type="curve" smooth="yes"/>
      <point x="509" y="895" type="line"/>
      <point x="308" y="895" type="line"/>
      <point x="352" y="1120" type="line"/>
      <point x="845" y="1120" type="line"/>
      <point x="698" y="357" type="line" smooth="yes"/>
      <point x="695" y="341"/>
      <point x="693" y="328"/>
      <point x="693" y="313" type="curve" smooth="yes"/>
      <point x="693" y="245"/>
      <point x="736" y="217"/>
      <point x="829" y="217" type="curve" smooth="yes"/>
      <point x="887" y="217" type="line"/>
      <point x="843" y="-8" type="line"/>
    </contour>
  </outline>
</glyph>
<glyph name="Alpha" format="1">
  <advance width="1233"/>
  <unicode hex="0391"/>
  <outline>
    <contour>
      <point x="590" y="1493" type="line" name="at01"/>
      <point x="950" y="1493" type="line"/>
      <point x="1063" y="0" type="line" name="ab01"/>
      <point x="770" y="0" type="line"/>
      <point x="756" y="369" type="line" name="dv01"/>
      <point x="356" y="369" type="line"/>
      <point x="194" y="0" type="line" name="ab02"/>
      <point x="-105" y="0" type="line"/>
    </contour>
    <contour>
      <point x="745" y="612" type="line" name="dv02"/>
      <point x="725" y="1219" type="line"/>
      <point x="461" y="612" type="line"/>
    </contour>
  </outline>
</glyph>
<glyph name="Beta" format="1">
  <advance width="1233"/>
  <unicode hex="0392"/>
  <outline>
    <contour>
      <point x="277" y="1495" type="line" name="at01"/>
      <point x="759" y="1495" type="line" smooth="yes"/>
      <point x="1042" y="1495" name="sh03"/>
      <point x="1185" y="1387" name="sh04"/>
      <point x="1185" y="1163" type="curve" name="sh05" smooth="yes"/>
      <point x="1185" y="951"/>
      <point x="1052" y="813" name="ab01"/>
      <point x="820" y="786" type="curve"/>
      <point x="1000" y="770" name="dv02"/>
      <point x="1113" y="669" name="sh02"/>
      <point x="1113" y="477" type="curve" name="sv01" smooth="yes"/>
      <point x="1113" y="345"/>
      <point x="1060" y="211"/>
      <point x="968" y="127" type="curve" name="sv02" smooth="yes"/>
      <point x="872" y="39" name="sh01"/>
      <point x="727" y="0" name="dv01"/>
      <point x="468" y="0" type="curve" smooth="yes"/>
      <point x="-13" y="0" type="line"/>
    </contour>
    <contour>
      <point x="646" y="913" type="line" name="ah01" smooth="yes"/>
      <point x="807" y="913" name="sh06"/>
      <point x="890" y="990"/>
      <point x="890" y="1119" type="curve" smooth="yes"/>
      <point x="890" y="1219"/>
      <point x="841" y="1260"/>
      <point x="714" y="1260" type="curve" smooth="yes"/>
      <point x="517" y="1260" type="line"/>
      <point x="449" y="913" type="line"/>
    </contour>
    <contour>
      <point x="515" y="236" type="line" smooth="yes"/>
      <point x="716" y="236"/>
      <point x="818" y="321"/>
      <point x="818" y="496" type="curve" smooth="yes"/>
      <point x="818" y="612"/>
      <point x="772" y="678"/>
      <point x="601" y="678" type="curve" smooth="yes"/>
      <point x="404" y="678" type="line"/>
      <point x="318" y="236" type="line"/>
    </contour>
  </outline>
</glyph>
<glyph name="Lambda" format="1">
  <advance width="1233"/>
  <unicode hex="039B"/>
  <outline>
    <contour>
      <point x="590" y="1493" type="line" name="at01"/>
      <point x="951" y="1493" type="line"/>
      <point x="1064" y="0" type="line" name="ab01"/>
      <point x="769" y="0" type="line"/>
      <point x="718" y="1223" type="line" name="iv01"/>
      <point x="192" y="0" type="line" name="ab02"/>
      <point x="-103" y="0" type="line"/>
    </contour>
  </outline>
</glyph>
<glyph name="Phi" format="1">
  <advance width="1233"/>
  <unicode hex="03A6"/>
  <outline>
    <contour>
      <point x="255" y="260" type="line" name="sv01"/>
      <point x="374" y="260" type="line"/>
      <point x="388" y="330" type="line"/>
      <point x="214" y="354" name="sh01"/>
      <point x="81" y="443" name="sh02"/>
      <point x="81" y="633" type="curve" smooth="yes"/>
      <point x="81" y="666" name="sv02"/>
      <point x="84" y="710"/>
      <point x="91" y="745" type="curve" name="at01"/>
      <point x="136" y="1009"/>
      <point x="342" y="1134" name="sv03"/>
      <point x="550" y="1161" type="curve" name="sv04"/>
      <point x="564" y="1233" type="line"/>
      <point x="444" y="1233" type="line" name="sh03"/>
      <point x="495" y="1493" type="line" name="sh04"/>
      <point x="1028" y="1493" type="line"/>
      <point x="978" y="1233" type="line" name="sv05"/>
      <point x="859" y="1233" type="line" name="sv06"/>
      <point x="845" y="1161" type="line" name="ab01"/>
      <point x="1018" y="1132"/>
      <point x="1152" y="1054" name="ih01"/>
      <point x="1152" y="853" type="curve" smooth="yes"/>
      <point x="1152" y="822" name="sh05"/>
      <point x="1149" y="784"/>
      <point x="1141" y="744" type="curve" smooth="yes" name="ih02"/>
      <point x="1088" y="470" name="ih03"/>
      <point x="892" y="357"/>
      <point x="683" y="330" type="curve" name="ah02"/>
      <point x="669" y="260" type="line"/>
      <point x="789" y="260" type="line" name="ih04"/>
      <point x="738" y="0" type="line" name="ah01"/>
      <point x="205" y="0" type="line" name="sh06"/>
    </contour>
    <contour>
      <point x="511" y="965" type="line"/>
      <point x="472" y="938" type="line" smooth="yes"/>
      <point x="392" y="882"/>
      <point x="350" y="792"/>
      <point x="350" y="701" type="curve" smooth="yes"/>
      <point x="350" y="646"/>
      <point x="365" y="596"/>
      <point x="397" y="553" type="curve"/>
      <point x="404" y="542"/>
      <point x="414" y="533"/>
      <point x="426" y="526" type="curve"/>
    </contour>
    <contour>
      <point x="721" y="526" type="line"/>
      <point x="740" y="537"/>
      <point x="750" y="544"/>
      <point x="761" y="553" type="curve" smooth="yes"/>
      <point x="841" y="625"/>
      <point x="887" y="723"/>
      <point x="887" y="808" type="curve" smooth="yes"/>
      <point x="887" y="860"/>
      <point x="871" y="907"/>
      <point x="836" y="938" type="curve" smooth="yes"/>
      <point x="806" y="965" type="line"/>
    </contour>
  </outline>
</glyph>
<glyph name="Iotadieresis" format="1">
  <advance width="1233"/>
  <unicode hex="03AA"/>
  <outline>
    <contour>
      <point x="473" y="1608" type="line" smooth="yes" name="dv01"/>
      <point x="452" y="1608"/>
      <point x="443" y="1621"/>
      <point x="447" y="1641" type="curve" smooth="yes" name="dv02"/>
      <point x="485" y="1827" type="line" smooth="yes"/>
      <point x="489" y="1845"/>
      <point x="500" y="1854"/>
      <point x="517" y="1854" type="curve" smooth="yes"/>
      <point x="692" y="1854" type="line" smooth="yes" name="sv01"/>
      <point x="713" y="1854"/>
      <point x="722" y="1841"/>
      <point x="718" y="1821" type="curve" smooth="yes" name="sv02"/>
      <point x="681" y="1635" type="line" smooth="yes"/>
      <point x="678" y="1617"/>
      <point x="667" y="1608"/>
      <point x="649" y="1608" type="curve" smooth="yes"/>
    </contour>
    <contour>
      <point x="869" y="1608" type="line" smooth="yes" name="sv03"/>
      <point x="848" y="1608"/>
      <point x="839" y="1621" name="sv04"/>
      <point x="843" y="1641" type="curve" smooth="yes"/>
      <point x="880" y="1827" type="line" smooth="yes" name="at01"/>
      <point x="883" y="1845"/>
      <point x="893" y="1854" name="sv05"/>
      <point x="912" y="1854" type="curve" smooth="yes" name="sv06"/>
      <point x="1087" y="1854" type="line" smooth="yes" name="sv07"/>
      <point x="1107" y="1854" name="sv08"/>
      <point x="1118" y="1841" name="ab01"/>
      <point x="1114" y="1821" type="curve" smooth="yes"/>
      <point x="1078" y="1635" type="line" smooth="yes"/>
      <point x="1075" y="1617"/>
      <point x="1064" y="1608"/>
      <point x="1046" y="1608" type="curve" smooth="yes"/>
    </contour>
    <contour>
      <point x="78" y="260" type="line"/>
      <point x="375" y="260" type="line"/>
      <point x="563" y="1233" type="line"/>
      <point x="266" y="1233" type="line"/>
      <point x="317" y="1493" type="line"/>
      <point x="1206" y="1493" type="line"/>
      <point x="1155" y="1233" type="line"/>
      <point x="858" y="1233" type="line"/>
      <point x="670" y="260" type="line"/>
      <point x="967" y="260" type="line"/>
      <point x="915" y="0" type="line"/>
      <point x="27" y="0" type="line"/>
    </contour>
  </outline>
</glyph>
<glyph name="Upsilondieresis" format="1">
  <advance width="1233"/>
  <unicode hex="03AB"/>
  <outline>
    <contour>
      <point x="483" y="1608" type="line" smooth="yes" name="dv01"/>
      <point x="462" y="1608"/>
      <point x="453" y="1621"/>
      <point x="457" y="1641" type="curve" smooth="yes" name="dv02"/>
      <point x="495" y="1827" type="line" smooth="yes"/>
      <point x="499" y="1845"/>
      <point x="510" y="1854"/>
      <point x="527" y="1854" type="curve" smooth="yes"/>
      <point x="702" y="1854" type="line" smooth="yes" name="sv01"/>
      <point x="723" y="1854"/>
      <point x="732" y="1841"/>
      <point x="728" y="1821" type="curve" smooth="yes" name="sv02"/>
      <point x="691" y="1635" type="line" smooth="yes"/>
      <point x="688" y="1617"/>
      <point x="677" y="1608"/>
      <point x="659" y="1608" type="curve" smooth="yes"/>
    </contour>
    <contour>
      <point x="879" y="1608" type="line" smooth="yes"/>
      <point x="858" y="1608" name="dh01"/>
      <point x="849" y="1621"/>
      <point x="853" y="1641" type="curve" smooth="yes" name="sv03"/>
      <point x="890" y="1827" type="line" smooth="yes" name="sv04"/>
      <point x="893" y="1845" name="at01"/>
      <point x="903" y="1854" name="at02"/>
      <point x="922" y="1854" type="curve" smooth="yes" name="at03"/>
      <point x="1097" y="1854" type="line" smooth="yes" name="dh02"/>
      <point x="1117" y="1854" name="at04"/>
      <point x="1128" y="1841" name="at05"/>
      <point x="1124" y="1821" type="curve" smooth="yes"/>
      <point x="1088" y="1635" type="line" smooth="yes"/>
      <point x="1085" y="1617"/>
      <point x="1074" y="1608" name="sv05"/>
      <point x="1056" y="1608" type="curve" smooth="yes" name="iv01"/>
    </contour>
    <contour>
      <point x="432" y="534" type="line" smooth="yes"/>
      <point x="452" y="635" name="ab01"/>
      <point x="461" y="736"/>
      <point x="461" y="829" type="curve" smooth="yes"/>
      <point x="461" y="1020"/>
      <point x="423" y="1173"/>
      <point x="363" y="1203" type="curve" smooth="yes"/>
      <point x="315" y="1226"/>
      <point x="265" y="1238"/>
      <point x="214" y="1238" type="curve" smooth="yes"/>
      <point x="187" y="1238"/>
      <point x="160" y="1235"/>
      <point x="132" y="1229" type="curve"/>
      <point x="183" y="1493" type="line"/>
      <point x="208" y="1501"/>
      <point x="239" y="1504"/>
      <point x="274" y="1504" type="curve" smooth="yes"/>
      <point x="313" y="1504"/>
      <point x="359" y="1501"/>
      <point x="410" y="1490" type="curve"/>
      <point x="586" y="1458"/>
      <point x="673" y="1314"/>
      <point x="670" y="1057" type="curve"/>
      <point x="790" y="1308"/>
      <point x="933" y="1453"/>
      <point x="1098" y="1490" type="curve" smooth="yes"/>
      <point x="1123" y="1495"/>
      <point x="1146" y="1498"/>
      <point x="1165" y="1498" type="curve" smooth="yes"/>
      <point x="1206" y="1498"/>
      <point x="1240" y="1488"/>
      <point x="1269" y="1467" type="curve" smooth="yes"/>
      <point x="1315" y="1434"/>
      <point x="1338" y="1389"/>
      <point x="1338" y="1332" type="curve" smooth="yes"/>
      <point x="1338" y="1277"/>
      <point x="1315" y="1209"/>
      <point x="1270" y="1130" type="curve"/>
      <point x="1243" y="1085"/>
      <point x="1199" y="1063"/>
      <point x="1155" y="1063" type="curve" smooth="yes"/>
      <point x="1089" y="1063"/>
      <point x="1026" y="1111"/>
      <point x="1034" y="1203" type="curve"/>
      <point x="875" y="1022"/>
      <point x="779" y="803"/>
      <point x="727" y="534" type="curve" smooth="yes"/>
      <point x="623" y="0" type="line"/>
      <point x="328" y="0" type="line"/>
    </contour>
  </outline>
</glyph>
<glyph name="etatonos" format="1">
  <advance width="1233"/>
  <unicode hex="03AE"/>
  <outline>
    <contour>
      <point x="877" y="1673" type="line" name="av01"/>
      <point x="1198" y="1673" type="line"/>
      <point x="756" y="1297" type="line"/>
      <point x="559" y="1297" type="line" name="ih01"/>
    </contour>
    <contour>
      <point x="812" y="682" type="line" smooth="yes"/>
      <point x="820" y="723" name="dh02"/>
      <point x="824" y="757" name="sv01"/>
      <point x="824" y="786" type="curve" smooth="yes"/>
      <point x="824" y="870" name="ab02"/>
      <point x="788" y="909"/>
      <point x="716" y="909" type="curve" name="at01" smooth="yes"/>
      <point x="599" y="909" name="dh01"/>
      <point x="520" y="808" name="iv01"/>
      <point x="488" y="641" type="curve" name="at02" smooth="yes"/>
      <point x="363" y="0" type="line" name="sh01"/>
      <point x="72" y="0" type="line"/>
      <point x="290" y="1120" type="line" name="ab01"/>
      <point x="552" y="1120" type="line"/>
      <point x="548" y="952" type="line"/>
      <point x="615" y="1077"/>
      <point x="731" y="1147"/>
      <point x="876" y="1147" type="curve" smooth="yes"/>
      <point x="1041" y="1147"/>
      <point x="1129" y="1059"/>
      <point x="1129" y="880" type="curve" smooth="yes"/>
      <point x="1129" y="833"/>
      <point x="1123" y="783"/>
      <point x="1112" y="727" type="curve" smooth="yes"/>
      <point x="888" y="-426" type="line"/>
      <point x="597" y="-426" type="line"/>
    </contour>
  </outline>
</glyph>
<glyph name="iotatonos" format="1">
  <advance width="1233"/>
  <unicode hex="03AF"/>
  <outline>
    <contour>
      <point x="857" y="1648" type="line" name="av01"/>
      <point x="1178" y="1648" type="line"/>
      <point x="736" y="1272" type="line"/>
      <point x="539" y="1272" type="line" name="ih01"/>
    </contour>
    <contour>
      <point x="762" y="-8" type="line" name="ab01" smooth="yes"/>
      <point x="494" y="-8" name="dh01"/>
      <point x="389" y="46"/>
      <point x="389" y="222" type="curve" name="sv01" smooth="yes"/>
      <point x="389" y="265"/>
      <point x="395" y="312" name="at01"/>
      <point x="406" y="371" type="curve" smooth="yes"/>
      <point x="506" y="895" type="line"/>
      <point x="305" y="895" type="line" name="dh02"/>
      <point x="349" y="1120" type="line" name="sv02"/>
      <point x="842" y="1120" type="line"/>
      <point x="695" y="357" type="line" smooth="yes"/>
      <point x="692" y="341"/>
      <point x="690" y="328"/>
      <point x="690" y="313" type="curve" smooth="yes"/>
      <point x="690" y="245"/>
      <point x="733" y="217"/>
      <point x="826" y="217" type="curve" smooth="yes"/>
      <point x="884" y="217" type="line"/>
      <point x="840" y="-8" type="line"/>
    </contour>
  </outline>
</glyph>
